M48
;Layer_Color=9474304
;FILE_FORMAT=2:4
INCH,LZ
;TYPE=PLATED
T1F00S00C0.0197
T2F00S00C0.0200
T3F00S00C0.0236
T4F00S00C0.0276
T5F00S00C0.0320
T6F00S00C0.0350
T7F00S00C0.0354
T8F00S00C0.0394
;TYPE=NON_PLATED
T9F00S00C0.1190
%
T01
X0205Y0013
Y0018
T02
X037151Y01129
X03858Y01175
X050541Y012537
X035949Y010983
X02394Y011071
X015434Y010429
X01959Y02057
X00085Y01048
X02222Y02457
X05482Y02271
X0542Y02905
T03
X0089Y00426
X01145Y00415
X012631
X02085Y004181
Y003
X0227
Y004181
X012632Y006145
X011451
X0089Y00615
T04
X01333Y0097
Y0102
Y0107
T05
X01585Y0039
Y0049
X01885
Y0039
Y0059
Y0069
X01585
Y0059
T06
X002461Y003737
X00245Y004751
X005457
Y003737
Y00575
Y006749
Y007748
Y008747
Y009746
Y010745
Y011744
Y012743
Y013742
Y014741
Y01574
X005453Y016739
X002461
X00245Y01574
Y014741
Y013742
Y012743
Y011744
Y010745
Y009746
Y008747
Y007748
Y006749
Y00575
T07
X02475Y005311
X0289Y004144
Y003144
X0316
Y004144
X0354Y005217
X039121Y007567
X038479Y008333
X042121Y010217
X041479Y010983
X04485Y013994
X045616Y013351
X04735Y016944
X048256Y016521
X04878Y020965
X04972Y020623
X02175Y020575
Y019575
Y018575
X022171Y008433
X021529Y007667
X02525Y006177
X0349Y006083
X019033Y011071
X018267Y010429
X0162Y01405
X015434Y013407
X0131Y017494
X012194Y017071
X01062Y02114
X01156Y021482
X01075Y025094
X00975
X00965Y028894
X01065
X010867Y032871
X011633Y032229
X0137Y034817
X0132Y035683
X0166Y0363
X02Y0368
X01965Y028994
X01865
X01765
X02065
X02165
X02265
X02365
X02465
X02565
X02665
X02765
X02865
X02965
X03065
X03165
X03265
X0315Y032194
Y033194
X02895
Y032194
X02615Y0346
Y0356
X02315Y03585
X0345Y0354
Y0344
X03475Y02315
X03575
X03675
X03375
X03275
X03175
X03075
X02975
X02875
X02775
X02675
X02575
X02475
X02375
X02275
X02175
Y021575
X03755Y0358
Y0368
X0439Y0361
X04695Y035583
X04645Y034717
X048817Y032529
X049583Y033171
X04975Y028794
X05075
X0507Y024894
X0497
X05295Y0298
Y0308
Y0318
X0439Y0371
X0407Y03685
Y03785
X02315Y03685
X02Y0378
X0166Y0373
T08
X052074Y005296
X05857Y004509
Y01376
X052074Y011989
X0025Y01935
Y02035
Y02135
Y02235
Y02335
Y02435
Y02535
Y02635
Y02735
Y02835
Y02935
Y03035
Y03135
Y03235
Y03335
Y03435
X00575Y03785
X00675
X00775
X00875
X00975
X01075
X01175
X00475
T09
X002269Y001512
X057387
Y036945
X002269
M30
