G04*
G04 #@! TF.GenerationSoftware,Altium Limited,Altium Designer,21.2.1 (34)*
G04*
G04 Layer_Color=65535*
%FSLAX24Y24*%
%MOIN*%
G70*
G04*
G04 #@! TF.SameCoordinates,E21C5DDE-85CC-462C-932C-37DFDCE46009*
G04*
G04*
G04 #@! TF.FilePolarity,Positive*
G04*
G01*
G75*
%ADD10C,0.0100*%
%ADD11C,0.0080*%
%ADD12C,0.0079*%
%ADD13C,0.0037*%
%ADD14C,0.0059*%
%ADD15C,0.0300*%
%ADD16C,0.0060*%
D10*
X12800Y9411D02*
G03*
X12800Y10989I529J789D01*
G01*
X11067Y29505D02*
G03*
X11067Y28282I-917J-611D01*
G01*
X11167Y25705D02*
G03*
X11167Y24482I-917J-611D01*
G01*
X20611Y36383D02*
G03*
X19389Y36383I-611J917D01*
G01*
X14438Y34761D02*
G03*
X13379Y34150I-988J489D01*
G01*
X12346Y32429D02*
G03*
X11560Y31492I-1096J121D01*
G01*
X44137Y13793D02*
G03*
X44923Y14730I1096J-121D01*
G01*
X40742Y10910D02*
G03*
X41679Y11696I1058J-310D01*
G01*
X21971Y9146D02*
G03*
X22908Y8360I-121J-1096D01*
G01*
X3693Y17379D02*
G03*
X4193Y17379I250J0D01*
G01*
X17600Y3400D02*
G03*
X17100Y3400I-250J0D01*
G01*
X29561Y31776D02*
G03*
X28339Y31776I-611J917D01*
G01*
X26761Y34183D02*
G03*
X25539Y34183I-611J917D01*
G01*
X23761Y35433D02*
G03*
X22539Y35433I-611J917D01*
G01*
X17211Y35883D02*
G03*
X15989Y35883I-611J917D01*
G01*
X11743Y22199D02*
G03*
X12161Y21050I-653J-888D01*
G01*
X13220Y18224D02*
G03*
X13737Y17116I-573J-942D01*
G01*
X16127Y14787D02*
G03*
X16913Y13850I-310J-1058D01*
G01*
X18960Y11808D02*
G03*
X19746Y10871I-310J-1058D01*
G01*
X24929Y6844D02*
G03*
X25988Y6232I71J-1100D01*
G01*
X28289Y4561D02*
G03*
X29511Y4561I611J-917D01*
G01*
X30989D02*
G03*
X32211Y4561I611J-917D01*
G01*
X34162Y6139D02*
G03*
X35221Y6750I988J-489D01*
G01*
X37742Y8260D02*
G03*
X38679Y9046I1058J-310D01*
G01*
X46713Y16566D02*
G03*
X47230Y17674I1090J167D01*
G01*
X48179Y20533D02*
G03*
X48597Y21682I1071J261D01*
G01*
X49283Y24282D02*
G03*
X49283Y25505I917J611D01*
G01*
X49333Y28182D02*
G03*
X49333Y29405I917J611D01*
G01*
X48890Y31792D02*
G03*
X48104Y32729I310J1058D01*
G01*
X46771Y34050D02*
G03*
X45712Y34661I-71J1100D01*
G01*
X44511Y35683D02*
G03*
X43289Y35683I-611J917D01*
G01*
X41311Y36433D02*
G03*
X40089Y36433I-611J917D01*
G01*
X38161Y35383D02*
G03*
X36939Y35383I-611J917D01*
G01*
X35111Y33983D02*
G03*
X33889Y33983I-611J917D01*
G01*
X32111Y31776D02*
G03*
X30889Y31776I-611J917D01*
G01*
X12800Y10989D02*
X12800Y9411D01*
X11067Y28282D02*
Y29505D01*
X20724Y1408D02*
X21091D01*
X20743Y1250D02*
X21091D01*
X23453Y1136D02*
Y1963D01*
X21091Y1136D02*
Y1963D01*
Y1136D02*
X23453D01*
X21091Y1963D02*
X23453D01*
X20724Y1640D02*
X21091D01*
X20731Y1839D02*
X21091D01*
X20400Y2550D02*
X21300D01*
X20400D02*
Y4650D01*
X21300D01*
Y2550D02*
Y4650D01*
X20850Y4091D02*
Y4287D01*
X22250Y2550D02*
X23150D01*
X22250D02*
Y4650D01*
X23150D01*
Y2550D02*
Y4650D01*
X22700Y4091D02*
Y4287D01*
X11167Y24482D02*
Y25705D01*
X19389Y36383D02*
X20611D01*
X13379Y34150D02*
X14438Y34761D01*
X11560Y31492D02*
X12346Y32429D01*
X44137Y13793D02*
X44923Y14730D01*
X13220Y18224D02*
X13737Y17116D01*
X46713Y16566D02*
X47230Y17674D01*
X48179Y20533D02*
X48597Y21682D01*
X40742Y10910D02*
X41679Y11696D01*
X21971Y9146D02*
X22908Y8360D01*
X4203Y17391D02*
X4892D01*
Y3127D02*
Y17391D01*
X3047Y3127D02*
X4892D01*
X3047D02*
Y17381D01*
X3692D01*
X17600Y3400D02*
X18200D01*
X16500D02*
X17100D01*
X16500D02*
Y7400D01*
X18200D01*
Y3400D02*
Y7400D01*
X11001Y5695D02*
Y6595D01*
X13101D01*
Y5695D02*
Y6595D01*
X11001Y5695D02*
X13101D01*
X12542Y6145D02*
X12738D01*
X11000Y3700D02*
Y4600D01*
X13100D01*
Y3700D02*
Y4600D01*
X11000Y3700D02*
X13100D01*
X12541Y4150D02*
X12737D01*
X28339Y31776D02*
X29561D01*
X25539Y34183D02*
X26761D01*
X22539Y35433D02*
X23761D01*
X15989Y35883D02*
X17211D01*
X11743Y22199D02*
X12161Y21050D01*
X16127Y14787D02*
X16913Y13850D01*
X18960Y11808D02*
X19746Y10871D01*
X24929Y6844D02*
X25988Y6232D01*
X28289Y4561D02*
X29511D01*
X30989D02*
X32211D01*
X34162Y6139D02*
X35221Y6750D01*
X37742Y8260D02*
X38679Y9046D01*
X49283Y24282D02*
Y25505D01*
X49333Y28182D02*
Y29405D01*
X48104Y32729D02*
X48890Y31792D01*
X45712Y34661D02*
X46771Y34050D01*
X43289Y35683D02*
X44511D01*
X40089Y36433D02*
X41311D01*
X36939Y35383D02*
X38161D01*
X33889Y33983D02*
X35111D01*
X30889Y31776D02*
X32111D01*
X7300Y36650D02*
Y37250D01*
X7000D01*
X6900Y37150D01*
Y36950D01*
X7000Y36850D01*
X7300D01*
X7100D02*
X6900Y36650D01*
X6700Y37250D02*
X6300Y36650D01*
Y37250D02*
X6700Y36650D01*
X6100Y37250D02*
X5700D01*
X5900D01*
Y36650D01*
X5500Y37250D02*
X5100Y36650D01*
Y37250D02*
X5500Y36650D01*
X4750Y36600D02*
Y37200D01*
X4450D01*
X4350Y37100D01*
Y36900D01*
X4450Y36800D01*
X4750D01*
X4550D02*
X4350Y36600D01*
X3750Y37100D02*
X3850Y37200D01*
X4050D01*
X4150Y37100D01*
Y37000D01*
X4050Y36900D01*
X3850D01*
X3750Y36800D01*
Y36700D01*
X3850Y36600D01*
X4050D01*
X4150Y36700D01*
X3550Y37200D02*
X3151D01*
X3350D01*
Y36600D01*
X10000Y33600D02*
X10400D01*
X10200Y33800D02*
Y33400D01*
X27650Y25550D02*
Y24950D01*
X28050D01*
X28650Y25450D02*
X28550Y25550D01*
X28350D01*
X28250Y25450D01*
Y25050D01*
X28350Y24950D01*
X28550D01*
X28650Y25050D01*
X28850Y25550D02*
Y24950D01*
X29150D01*
X29249Y25050D01*
Y25450D01*
X29150Y25550D01*
X28850D01*
X29449Y24950D02*
X29649D01*
X29549D01*
Y25550D01*
X29449Y25450D01*
X30349Y25550D02*
X30149Y25450D01*
X29949Y25250D01*
Y25050D01*
X30049Y24950D01*
X30249D01*
X30349Y25050D01*
Y25150D01*
X30249Y25250D01*
X29949D01*
X30549Y25450D02*
X30649Y25550D01*
X30849D01*
X30949Y25450D01*
Y25050D01*
X30849Y24950D01*
X30649D01*
X30549Y25050D01*
Y25450D01*
X31549Y24950D02*
X31149D01*
X31549Y25350D01*
Y25450D01*
X31449Y25550D01*
X31249D01*
X31149Y25450D01*
X4950Y41450D02*
Y41350D01*
X4850D01*
X5050D01*
X4950D01*
Y41050D01*
X5050Y40950D01*
X5450D02*
X5650D01*
X5750Y41050D01*
Y41250D01*
X5650Y41350D01*
X5450D01*
X5350Y41250D01*
Y41050D01*
X5450Y40950D01*
X5950Y40750D02*
Y41350D01*
X6250D01*
X6350Y41250D01*
Y41050D01*
X6250Y40950D01*
X5950D01*
X7249D02*
X7449D01*
X7549Y41050D01*
Y41250D01*
X7449Y41350D01*
X7249D01*
X7149Y41250D01*
Y41050D01*
X7249Y40950D01*
X7749Y41350D02*
X7949Y40950D01*
X8149Y41350D01*
X8649Y40950D02*
X8449D01*
X8349Y41050D01*
Y41250D01*
X8449Y41350D01*
X8649D01*
X8749Y41250D01*
Y41150D01*
X8349D01*
X8949Y41350D02*
Y40950D01*
Y41150D01*
X9049Y41250D01*
X9149Y41350D01*
X9249D01*
X9548Y40950D02*
X9748D01*
X9648D01*
Y41550D01*
X9548D01*
X10148Y41350D02*
X10348D01*
X10448Y41250D01*
Y40950D01*
X10148D01*
X10048Y41050D01*
X10148Y41150D01*
X10448D01*
X10648Y41350D02*
Y41050D01*
X10748Y40950D01*
X11048D01*
Y40850D01*
X10948Y40750D01*
X10848D01*
X11048Y40950D02*
Y41350D01*
X52750Y19750D02*
X53350D01*
Y20050D01*
X53250Y20150D01*
X53150D01*
X53050Y20050D01*
Y19750D01*
Y20050D01*
X52950Y20150D01*
X52850D01*
X52750Y20050D01*
Y19750D01*
Y20350D02*
Y20550D01*
Y20450D01*
X53350D01*
Y20350D01*
Y20550D01*
Y20850D02*
X52750D01*
Y21150D01*
X52850Y21250D01*
X53050D01*
X53150Y21150D01*
Y20850D01*
Y21050D02*
X53350Y21250D01*
X52750Y21449D02*
Y21849D01*
Y21649D01*
X53350D01*
X52750Y22049D02*
X53350D01*
X53050D01*
Y22449D01*
X52750D01*
X53350D01*
X52750Y22649D02*
X53350D01*
Y22949D01*
X53250Y23049D01*
X52850D01*
X52750Y22949D01*
Y22649D01*
X53350Y23249D02*
X52950D01*
X52750Y23449D01*
X52950Y23649D01*
X53350D01*
X53050D01*
Y23249D01*
X52750Y23849D02*
X52850D01*
X53050Y24049D01*
X52850Y24249D01*
X52750D01*
X53050Y24049D02*
X53350D01*
X52750Y25648D02*
X53150D01*
X53350Y25848D01*
X53150Y26048D01*
X52750D01*
Y26648D02*
Y26248D01*
X53350D01*
Y26648D01*
X53050Y26248D02*
Y26448D01*
X53350Y26848D02*
X52750D01*
Y27148D01*
X52850Y27248D01*
X53050D01*
X53150Y27148D01*
Y26848D01*
Y27048D02*
X53350Y27248D01*
Y27448D02*
X53250D01*
Y27547D01*
X53350D01*
Y27448D01*
X52850Y28347D02*
X52750Y28247D01*
Y28047D01*
X52850Y27947D01*
X53250D01*
X53350Y28047D01*
Y28247D01*
X53250Y28347D01*
X54200Y20150D02*
X54800D01*
Y19850D01*
X54700Y19750D01*
X54500D01*
X54400Y19850D01*
Y20150D01*
X54800Y20650D02*
Y20450D01*
X54700Y20350D01*
X54500D01*
X54400Y20450D01*
Y20650D01*
X54500Y20750D01*
X54600D01*
Y20350D01*
X54800Y20950D02*
Y21250D01*
X54700Y21349D01*
X54600Y21250D01*
Y21050D01*
X54500Y20950D01*
X54400Y21050D01*
Y21349D01*
X54800Y21549D02*
Y21749D01*
Y21649D01*
X54400D01*
Y21549D01*
X55000Y22249D02*
Y22349D01*
X54900Y22449D01*
X54400D01*
Y22149D01*
X54500Y22049D01*
X54700D01*
X54800Y22149D01*
Y22449D01*
Y22649D02*
X54400D01*
Y22949D01*
X54500Y23049D01*
X54800D01*
Y23549D02*
Y23349D01*
X54700Y23249D01*
X54500D01*
X54400Y23349D01*
Y23549D01*
X54500Y23649D01*
X54600D01*
Y23249D01*
X54200Y24249D02*
X54800D01*
Y23949D01*
X54700Y23849D01*
X54500D01*
X54400Y23949D01*
Y24249D01*
X54200Y25048D02*
X54800D01*
Y25348D01*
X54700Y25448D01*
X54600D01*
X54500D01*
X54400Y25348D01*
Y25048D01*
Y25648D02*
X54700D01*
X54800Y25748D01*
Y26048D01*
X54900D01*
X55000Y25948D01*
Y25848D01*
X54800Y26048D02*
X54400D01*
Y26848D02*
Y27248D01*
X54800Y26848D01*
Y27248D01*
X54400Y27448D02*
X54700D01*
X54800Y27547D01*
Y27847D01*
X54900D01*
X55000Y27747D01*
Y27647D01*
X54800Y27847D02*
X54400D01*
X54200Y28047D02*
X54800D01*
X54500D01*
X54400Y28147D01*
Y28347D01*
X54500Y28447D01*
X54800D01*
X56000Y20150D02*
Y19850D01*
X56100Y19750D01*
X56300D01*
X56400Y19850D01*
Y20150D01*
Y20450D02*
Y20650D01*
X56300Y20750D01*
X56100D01*
X56000Y20650D01*
Y20450D01*
X56100Y20350D01*
X56300D01*
X56400Y20450D01*
X55800Y21349D02*
X56400D01*
Y21050D01*
X56300Y20950D01*
X56100D01*
X56000Y21050D01*
Y21349D01*
X56400Y21549D02*
Y21749D01*
Y21649D01*
X56000D01*
Y21549D01*
X56400Y22049D02*
X56000D01*
Y22349D01*
X56100Y22449D01*
X56400D01*
X56600Y22849D02*
Y22949D01*
X56500Y23049D01*
X56000D01*
Y22749D01*
X56100Y22649D01*
X56300D01*
X56400Y22749D01*
Y23049D01*
X55800Y23849D02*
X56400D01*
Y24149D01*
X56300Y24249D01*
X56200D01*
X56100D01*
X56000Y24149D01*
Y23849D01*
Y24448D02*
X56300D01*
X56400Y24548D01*
Y24848D01*
X56500D01*
X56600Y24748D01*
Y24648D01*
X56400Y24848D02*
X56000D01*
Y26048D02*
Y25748D01*
X56100Y25648D01*
X56300D01*
X56400Y25748D01*
Y26048D01*
Y26248D02*
Y26448D01*
Y26348D01*
X56000D01*
Y26248D01*
X56400Y26748D02*
X56000D01*
Y27048D01*
X56100Y27148D01*
X56400D01*
X55800Y27747D02*
X56400D01*
Y27448D01*
X56300Y27348D01*
X56100D01*
X56000Y27448D01*
Y27747D01*
Y27947D02*
X56300D01*
X56400Y28047D01*
Y28347D01*
X56500D01*
X56600Y28247D01*
Y28147D01*
X56400Y28347D02*
X56000D01*
X4350Y4950D02*
X3750D01*
Y5250D01*
X3850Y5350D01*
X4050D01*
X4150Y5250D01*
Y4950D01*
Y5650D02*
Y5850D01*
X4050Y5950D01*
X3850D01*
X3750Y5850D01*
Y5650D01*
X3850Y5550D01*
X4050D01*
X4150Y5650D01*
X3750Y6150D02*
X4050D01*
X4150Y6250D01*
X4050Y6350D01*
X4150Y6450D01*
X4050Y6549D01*
X3750D01*
X4150Y7049D02*
Y6849D01*
X4050Y6749D01*
X3850D01*
X3750Y6849D01*
Y7049D01*
X3850Y7149D01*
X3950D01*
Y6749D01*
X3750Y7349D02*
X4150D01*
X3950D01*
X3850Y7449D01*
X3750Y7549D01*
Y7649D01*
X4150Y8249D02*
Y8049D01*
X4050Y7949D01*
X3850D01*
X3750Y8049D01*
Y8249D01*
X3850Y8349D01*
X3950D01*
Y7949D01*
X3550Y8949D02*
X4150D01*
Y8649D01*
X4050Y8549D01*
X3850D01*
X3750Y8649D01*
Y8949D01*
X3550Y9748D02*
X4150D01*
Y10048D01*
X4050Y10148D01*
X3950D01*
X3850D01*
X3750Y10048D01*
Y9748D01*
Y10348D02*
X4050D01*
X4150Y10448D01*
Y10748D01*
X4250D01*
X4350Y10648D01*
Y10548D01*
X4150Y10748D02*
X3750D01*
Y11648D02*
Y11848D01*
X3850Y11948D01*
X4150D01*
Y11648D01*
X4050Y11548D01*
X3950Y11648D01*
Y11948D01*
X3750Y12148D02*
X4150D01*
X3950D01*
X3850Y12248D01*
X3750Y12348D01*
Y12448D01*
X3550Y13147D02*
X4150D01*
Y12847D01*
X4050Y12747D01*
X3850D01*
X3750Y12847D01*
Y13147D01*
X4150Y13347D02*
Y13547D01*
Y13447D01*
X3750D01*
Y13347D01*
Y13847D02*
X4050D01*
X4150Y13947D01*
Y14247D01*
X3750D01*
X4150Y14447D02*
X3750D01*
Y14747D01*
X3850Y14847D01*
X4150D01*
Y15147D02*
Y15347D01*
X4050Y15447D01*
X3850D01*
X3750Y15347D01*
Y15147D01*
X3850Y15047D01*
X4050D01*
X4150Y15147D01*
X21793Y1900D02*
X21593D01*
X21493Y1800D01*
Y1400D01*
X21593Y1300D01*
X21793D01*
X21893Y1400D01*
Y1800D01*
X21793Y1900D01*
X22492Y1800D02*
X22392Y1900D01*
X22193D01*
X22093Y1800D01*
Y1700D01*
X22193Y1600D01*
X22392D01*
X22492Y1500D01*
Y1400D01*
X22392Y1300D01*
X22193D01*
X22093Y1400D01*
X23092Y1800D02*
X22992Y1900D01*
X22792D01*
X22692Y1800D01*
Y1400D01*
X22792Y1300D01*
X22992D01*
X23092Y1400D01*
X23292Y1200D02*
X23692D01*
X23892Y1800D02*
X23992Y1900D01*
X24192D01*
X24292Y1800D01*
Y1700D01*
X24192Y1600D01*
X24092D01*
X24192D01*
X24292Y1500D01*
Y1400D01*
X24192Y1300D01*
X23992D01*
X23892Y1400D01*
X24892Y1300D02*
X24492D01*
X24892Y1700D01*
Y1800D01*
X24792Y1900D01*
X24592D01*
X24492Y1800D01*
X25092Y1900D02*
Y1300D01*
Y1500D01*
X25491Y1900D01*
X25192Y1600D01*
X25491Y1300D01*
X22500Y5500D02*
X22400Y5600D01*
X22200D01*
X22100Y5500D01*
Y5100D01*
X22200Y5000D01*
X22400D01*
X22500Y5100D01*
X23000Y5000D02*
Y5600D01*
X22700Y5300D01*
X23100D01*
X20650Y5500D02*
X20550Y5600D01*
X20350D01*
X20250Y5500D01*
Y5100D01*
X20350Y5000D01*
X20550D01*
X20650Y5100D01*
X20850Y5500D02*
X20950Y5600D01*
X21150D01*
X21250Y5500D01*
Y5400D01*
X21150Y5300D01*
X21050D01*
X21150D01*
X21250Y5200D01*
Y5100D01*
X21150Y5000D01*
X20950D01*
X20850Y5100D01*
X20330Y10430D02*
Y9830D01*
X20730D01*
X20930D02*
X21130D01*
X21030D01*
Y10430D01*
X20930Y10330D01*
X21430Y9930D02*
X21530Y9830D01*
X21730D01*
X21830Y9930D01*
Y10330D01*
X21730Y10430D01*
X21530D01*
X21430Y10330D01*
Y10230D01*
X21530Y10130D01*
X21830D01*
X2010Y35840D02*
Y35440D01*
X2210Y35240D01*
X2410Y35440D01*
Y35840D01*
X2910D02*
X2710D01*
X2610Y35740D01*
Y35340D01*
X2710Y35240D01*
X2910D01*
X3010Y35340D01*
Y35740D01*
X2910Y35840D01*
X3210D02*
X3410D01*
X3310D01*
Y35240D01*
X3210D01*
X3410D01*
X4109Y35740D02*
X4009Y35840D01*
X3809D01*
X3709Y35740D01*
Y35340D01*
X3809Y35240D01*
X4009D01*
X4109Y35340D01*
X4709Y35840D02*
X4309D01*
Y35240D01*
X4709D01*
X4309Y35540D02*
X4509D01*
X2210Y18340D02*
Y17840D01*
X2310Y17740D01*
X2510D01*
X2610Y17840D01*
Y18340D01*
X2810Y17740D02*
X3010D01*
X2910D01*
Y18340D01*
X2810Y18240D01*
X13250Y11600D02*
Y12000D01*
X13150Y12100D01*
X12950D01*
X12850Y12000D01*
Y11600D01*
X12950Y11500D01*
X13150D01*
X13050Y11700D02*
X13250Y11500D01*
X13150D02*
X13250Y11600D01*
X13450Y11500D02*
X13650D01*
X13550D01*
Y12100D01*
X13450Y12000D01*
X8340Y8320D02*
X8140D01*
X8040Y8220D01*
Y7820D01*
X8140Y7720D01*
X8340D01*
X8440Y7820D01*
Y8220D01*
X8340Y8320D01*
X9040Y8220D02*
X8940Y8320D01*
X8740D01*
X8640Y8220D01*
Y8120D01*
X8740Y8020D01*
X8940D01*
X9040Y7920D01*
Y7820D01*
X8940Y7720D01*
X8740D01*
X8640Y7820D01*
X9639Y8220D02*
X9540Y8320D01*
X9340D01*
X9240Y8220D01*
Y7820D01*
X9340Y7720D01*
X9540D01*
X9639Y7820D01*
X14450Y31030D02*
Y30430D01*
X14850D01*
X15450Y30930D02*
X15350Y31030D01*
X15150D01*
X15050Y30930D01*
Y30530D01*
X15150Y30430D01*
X15350D01*
X15450Y30530D01*
X15650Y31030D02*
Y30430D01*
X15950D01*
X16049Y30530D01*
Y30930D01*
X15950Y31030D01*
X15650D01*
X16249Y30430D02*
X16449D01*
X16349D01*
Y31030D01*
X16249Y30930D01*
X17149Y31030D02*
X16949Y30930D01*
X16749Y30730D01*
Y30530D01*
X16849Y30430D01*
X17049D01*
X17149Y30530D01*
Y30630D01*
X17049Y30730D01*
X16749D01*
X17349Y30930D02*
X17449Y31030D01*
X17649D01*
X17749Y30930D01*
Y30530D01*
X17649Y30430D01*
X17449D01*
X17349Y30530D01*
Y30930D01*
X18349Y30430D02*
X17949D01*
X18349Y30830D01*
Y30930D01*
X18249Y31030D01*
X18049D01*
X17949Y30930D01*
X15510Y8430D02*
Y7830D01*
X15810D01*
X15910Y7930D01*
Y8330D01*
X15810Y8430D01*
X15510D01*
X16510Y8330D02*
X16410Y8430D01*
X16210D01*
X16110Y8330D01*
Y8230D01*
X16210Y8130D01*
X16410D01*
X16510Y8030D01*
Y7930D01*
X16410Y7830D01*
X16210D01*
X16110Y7930D01*
X16710Y7830D02*
X16910D01*
X16810D01*
Y8430D01*
X16710Y8330D01*
X17209D02*
X17309Y8430D01*
X17509D01*
X17609Y8330D01*
Y8230D01*
X17509Y8130D01*
X17409D01*
X17509D01*
X17609Y8030D01*
Y7930D01*
X17509Y7830D01*
X17309D01*
X17209Y7930D01*
X17809Y8330D02*
X17909Y8430D01*
X18109D01*
X18209Y8330D01*
Y7930D01*
X18109Y7830D01*
X17909D01*
X17809Y7930D01*
Y8330D01*
X18809Y7830D02*
X18409D01*
X18809Y8230D01*
Y8330D01*
X18709Y8430D01*
X18509D01*
X18409Y8330D01*
X13551Y6095D02*
X13451Y5995D01*
Y5795D01*
X13551Y5695D01*
X13951D01*
X14051Y5795D01*
Y5995D01*
X13951Y6095D01*
X14051Y6695D02*
Y6295D01*
X13651Y6695D01*
X13551D01*
X13451Y6595D01*
Y6395D01*
X13551Y6295D01*
X13600Y4200D02*
X13500Y4100D01*
Y3900D01*
X13600Y3800D01*
X14000D01*
X14100Y3900D01*
Y4100D01*
X14000Y4200D01*
X14100Y4400D02*
Y4600D01*
Y4500D01*
X13500D01*
X13600Y4400D01*
X27900Y34750D02*
Y34150D01*
X28300D01*
X28500Y34650D02*
X28600Y34750D01*
X28800D01*
X28900Y34650D01*
Y34550D01*
X28800Y34450D01*
X28700D01*
X28800D01*
X28900Y34350D01*
Y34250D01*
X28800Y34150D01*
X28600D01*
X28500Y34250D01*
X29499Y34150D02*
X29100D01*
X29499Y34550D01*
Y34650D01*
X29400Y34750D01*
X29200D01*
X29100Y34650D01*
X25100Y37150D02*
Y36550D01*
X25500D01*
X25700Y37050D02*
X25800Y37150D01*
X26000D01*
X26100Y37050D01*
Y36950D01*
X26000Y36850D01*
X25900D01*
X26000D01*
X26100Y36750D01*
Y36650D01*
X26000Y36550D01*
X25800D01*
X25700Y36650D01*
X26300Y36550D02*
X26500D01*
X26400D01*
Y37150D01*
X26300Y37050D01*
X22100Y38400D02*
Y37800D01*
X22500D01*
X22700Y38300D02*
X22800Y38400D01*
X23000D01*
X23100Y38300D01*
Y38200D01*
X23000Y38100D01*
X22900D01*
X23000D01*
X23100Y38000D01*
Y37900D01*
X23000Y37800D01*
X22800D01*
X22700Y37900D01*
X23300Y38300D02*
X23400Y38400D01*
X23600D01*
X23699Y38300D01*
Y37900D01*
X23600Y37800D01*
X23400D01*
X23300Y37900D01*
Y38300D01*
X18950Y39300D02*
Y38700D01*
X19350D01*
X19950D02*
X19550D01*
X19950Y39100D01*
Y39200D01*
X19850Y39300D01*
X19650D01*
X19550Y39200D01*
X20150Y38800D02*
X20250Y38700D01*
X20450D01*
X20550Y38800D01*
Y39200D01*
X20450Y39300D01*
X20250D01*
X20150Y39200D01*
Y39100D01*
X20250Y39000D01*
X20550D01*
X15550Y38850D02*
Y38250D01*
X15950D01*
X16550D02*
X16150D01*
X16550Y38650D01*
Y38750D01*
X16450Y38850D01*
X16250D01*
X16150Y38750D01*
X16750D02*
X16850Y38850D01*
X17050D01*
X17149Y38750D01*
Y38650D01*
X17050Y38550D01*
X17149Y38450D01*
Y38350D01*
X17050Y38250D01*
X16850D01*
X16750Y38350D01*
Y38450D01*
X16850Y38550D01*
X16750Y38650D01*
Y38750D01*
X16850Y38550D02*
X17050D01*
X12650Y37250D02*
Y36650D01*
X13050D01*
X13650D02*
X13250D01*
X13650Y37050D01*
Y37150D01*
X13550Y37250D01*
X13350D01*
X13250Y37150D01*
X13850Y37250D02*
X14250D01*
Y37150D01*
X13850Y36750D01*
Y36650D01*
X10000Y34950D02*
Y34350D01*
X10400D01*
X11000D02*
X10600D01*
X11000Y34750D01*
Y34850D01*
X10900Y34950D01*
X10700D01*
X10600Y34850D01*
X11600Y34950D02*
X11400Y34850D01*
X11200Y34650D01*
Y34450D01*
X11300Y34350D01*
X11500D01*
X11600Y34450D01*
Y34550D01*
X11500Y34650D01*
X11200D01*
X9100Y30950D02*
Y30350D01*
X9500D01*
X10100D02*
X9700D01*
X10100Y30750D01*
Y30850D01*
X10000Y30950D01*
X9800D01*
X9700Y30850D01*
X10699Y30950D02*
X10300D01*
Y30650D01*
X10500Y30750D01*
X10600D01*
X10699Y30650D01*
Y30450D01*
X10600Y30350D01*
X10400D01*
X10300Y30450D01*
X9200Y27150D02*
Y26550D01*
X9600D01*
X10200D02*
X9800D01*
X10200Y26950D01*
Y27050D01*
X10100Y27150D01*
X9900D01*
X9800Y27050D01*
X10700Y26550D02*
Y27150D01*
X10400Y26850D01*
X10799D01*
X9710Y23620D02*
Y23020D01*
X10110D01*
X10710D02*
X10310D01*
X10710Y23420D01*
Y23520D01*
X10610Y23620D01*
X10410D01*
X10310Y23520D01*
X10910D02*
X11010Y23620D01*
X11210D01*
X11309Y23520D01*
Y23420D01*
X11210Y23320D01*
X11110D01*
X11210D01*
X11309Y23220D01*
Y23120D01*
X11210Y23020D01*
X11010D01*
X10910Y23120D01*
X11220Y19640D02*
Y19040D01*
X11620D01*
X12220D02*
X11820D01*
X12220Y19440D01*
Y19540D01*
X12120Y19640D01*
X11920D01*
X11820Y19540D01*
X12819Y19040D02*
X12420D01*
X12819Y19440D01*
Y19540D01*
X12720Y19640D01*
X12520D01*
X12420Y19540D01*
X14017Y15679D02*
Y15079D01*
X14417D01*
X15017D02*
X14617D01*
X15017Y15479D01*
Y15579D01*
X14917Y15679D01*
X14717D01*
X14617Y15579D01*
X15217Y15079D02*
X15417D01*
X15317D01*
Y15679D01*
X15217Y15579D01*
X17130Y13150D02*
Y12550D01*
X17530D01*
X18130D02*
X17730D01*
X18130Y12950D01*
Y13050D01*
X18030Y13150D01*
X17830D01*
X17730Y13050D01*
X18330D02*
X18430Y13150D01*
X18630D01*
X18729Y13050D01*
Y12650D01*
X18630Y12550D01*
X18430D01*
X18330Y12650D01*
Y13050D01*
X23530Y8060D02*
Y7460D01*
X23930D01*
X24130D02*
X24330D01*
X24230D01*
Y8060D01*
X24130Y7960D01*
X24630D02*
X24730Y8060D01*
X24930D01*
X25030Y7960D01*
Y7860D01*
X24930Y7760D01*
X25030Y7660D01*
Y7560D01*
X24930Y7460D01*
X24730D01*
X24630Y7560D01*
Y7660D01*
X24730Y7760D01*
X24630Y7860D01*
Y7960D01*
X24730Y7760D02*
X24930D01*
X27850Y5510D02*
Y4910D01*
X28250D01*
X28450D02*
X28650D01*
X28550D01*
Y5510D01*
X28450Y5410D01*
X28950Y5510D02*
X29350D01*
Y5410D01*
X28950Y5010D01*
Y4910D01*
X30550Y5510D02*
Y4910D01*
X30950D01*
X31150D02*
X31350D01*
X31250D01*
Y5510D01*
X31150Y5410D01*
X32050Y5510D02*
X31850Y5410D01*
X31650Y5210D01*
Y5010D01*
X31750Y4910D01*
X31950D01*
X32050Y5010D01*
Y5110D01*
X31950Y5210D01*
X31650D01*
X33770Y7960D02*
Y7360D01*
X34170D01*
X34370D02*
X34570D01*
X34470D01*
Y7960D01*
X34370Y7860D01*
X35270Y7960D02*
X34870D01*
Y7660D01*
X35070Y7760D01*
X35170D01*
X35270Y7660D01*
Y7460D01*
X35170Y7360D01*
X34970D01*
X34870Y7460D01*
X37400Y10330D02*
Y9730D01*
X37800D01*
X38000D02*
X38200D01*
X38100D01*
Y10330D01*
X38000Y10230D01*
X38800Y9730D02*
Y10330D01*
X38500Y10030D01*
X38900D01*
X43050Y10300D02*
Y9700D01*
X43450D01*
X43650D02*
X43850D01*
X43750D01*
Y10300D01*
X43650Y10200D01*
X44150D02*
X44250Y10300D01*
X44450D01*
X44550Y10200D01*
Y10100D01*
X44450Y10000D01*
X44350D01*
X44450D01*
X44550Y9900D01*
Y9800D01*
X44450Y9700D01*
X44250D01*
X44150Y9800D01*
X46300Y12994D02*
Y12394D01*
X46700D01*
X46900D02*
X47100D01*
X47000D01*
Y12994D01*
X46900Y12894D01*
X47800Y12394D02*
X47400D01*
X47800Y12794D01*
Y12894D01*
X47700Y12994D01*
X47500D01*
X47400Y12894D01*
X49050Y16094D02*
Y15494D01*
X49450D01*
X49650D02*
X49850D01*
X49750D01*
Y16094D01*
X49650Y15994D01*
X50150Y15494D02*
X50350D01*
X50250D01*
Y16094D01*
X50150Y15994D01*
X50650Y20544D02*
Y19944D01*
X51050D01*
X51250D02*
X51450D01*
X51350D01*
Y20544D01*
X51250Y20444D01*
X51750D02*
X51850Y20544D01*
X52050D01*
X52150Y20444D01*
Y20044D01*
X52050Y19944D01*
X51850D01*
X51750Y20044D01*
Y20444D01*
X49330Y26950D02*
Y26350D01*
X49730D01*
X49930Y26450D02*
X50030Y26350D01*
X50230D01*
X50330Y26450D01*
Y26850D01*
X50230Y26950D01*
X50030D01*
X49930Y26850D01*
Y26750D01*
X50030Y26650D01*
X50330D01*
X49380Y30850D02*
Y30250D01*
X49780D01*
X49980Y30750D02*
X50080Y30850D01*
X50280D01*
X50380Y30750D01*
Y30650D01*
X50280Y30550D01*
X50380Y30450D01*
Y30350D01*
X50280Y30250D01*
X50080D01*
X49980Y30350D01*
Y30450D01*
X50080Y30550D01*
X49980Y30650D01*
Y30750D01*
X50080Y30550D02*
X50280D01*
X50300Y34550D02*
Y33950D01*
X50700D01*
X50900Y34550D02*
X51300D01*
Y34450D01*
X50900Y34050D01*
Y33950D01*
X47450Y37300D02*
Y36700D01*
X47850D01*
X48450Y37300D02*
X48250Y37200D01*
X48050Y37000D01*
Y36800D01*
X48150Y36700D01*
X48350D01*
X48450Y36800D01*
Y36900D01*
X48350Y37000D01*
X48050D01*
X42850Y38650D02*
Y38050D01*
X43250D01*
X43850Y38650D02*
X43450D01*
Y38350D01*
X43650Y38450D01*
X43750D01*
X43850Y38350D01*
Y38150D01*
X43750Y38050D01*
X43550D01*
X43450Y38150D01*
X39650Y39400D02*
Y38800D01*
X40050D01*
X40550D02*
Y39400D01*
X40250Y39100D01*
X40650D01*
X36500Y38350D02*
Y37750D01*
X36900D01*
X37100Y38250D02*
X37200Y38350D01*
X37400D01*
X37500Y38250D01*
Y38150D01*
X37400Y38050D01*
X37300D01*
X37400D01*
X37500Y37950D01*
Y37850D01*
X37400Y37750D01*
X37200D01*
X37100Y37850D01*
X33450Y36950D02*
Y36350D01*
X33850D01*
X34450D02*
X34050D01*
X34450Y36750D01*
Y36850D01*
X34350Y36950D01*
X34150D01*
X34050Y36850D01*
X30450Y34750D02*
Y34150D01*
X30850D01*
X31050D02*
X31250D01*
X31150D01*
Y34750D01*
X31050Y34650D01*
X1150Y7550D02*
X550D01*
Y7850D01*
X650Y7950D01*
X850D01*
X950Y7850D01*
Y7550D01*
Y7750D02*
X1150Y7950D01*
Y8450D02*
X550D01*
X850Y8150D01*
Y8550D01*
X650Y8750D02*
X550Y8850D01*
Y9050D01*
X650Y9150D01*
X1050D01*
X1150Y9050D01*
Y8850D01*
X1050Y8750D01*
X650D01*
X23550Y32687D02*
X22950D01*
Y32986D01*
X23050Y33086D01*
X23250D01*
X23350Y32986D01*
Y32687D01*
Y32887D02*
X23550Y33086D01*
X23050Y33286D02*
X22950Y33386D01*
Y33586D01*
X23050Y33686D01*
X23150D01*
X23250Y33586D01*
Y33486D01*
Y33586D01*
X23350Y33686D01*
X23450D01*
X23550Y33586D01*
Y33386D01*
X23450Y33286D01*
X23550Y34286D02*
Y33886D01*
X23150Y34286D01*
X23050D01*
X22950Y34186D01*
Y33986D01*
X23050Y33886D01*
X22350Y32844D02*
X21750D01*
Y33144D01*
X21850Y33244D01*
X22050D01*
X22150Y33144D01*
Y32844D01*
Y33044D02*
X22350Y33244D01*
X21850Y33444D02*
X21750Y33544D01*
Y33744D01*
X21850Y33844D01*
X21950D01*
X22050Y33744D01*
Y33644D01*
Y33744D01*
X22150Y33844D01*
X22250D01*
X22350Y33744D01*
Y33544D01*
X22250Y33444D01*
X22350Y34044D02*
Y34243D01*
Y34144D01*
X21750D01*
X21850Y34044D01*
X20800Y32844D02*
X20200D01*
Y33144D01*
X20300Y33244D01*
X20500D01*
X20600Y33144D01*
Y32844D01*
Y33044D02*
X20800Y33244D01*
X20300Y33444D02*
X20200Y33544D01*
Y33744D01*
X20300Y33844D01*
X20400D01*
X20500Y33744D01*
Y33644D01*
Y33744D01*
X20600Y33844D01*
X20700D01*
X20800Y33744D01*
Y33544D01*
X20700Y33444D01*
X20300Y34044D02*
X20200Y34144D01*
Y34343D01*
X20300Y34443D01*
X20700D01*
X20800Y34343D01*
Y34144D01*
X20700Y34044D01*
X20300D01*
X19350Y32838D02*
X18750D01*
Y33138D01*
X18850Y33238D01*
X19050D01*
X19150Y33138D01*
Y32838D01*
Y33038D02*
X19350Y33238D01*
Y33837D02*
Y33437D01*
X18950Y33837D01*
X18850D01*
X18750Y33737D01*
Y33537D01*
X18850Y33437D01*
X19250Y34037D02*
X19350Y34137D01*
Y34337D01*
X19250Y34437D01*
X18850D01*
X18750Y34337D01*
Y34137D01*
X18850Y34037D01*
X18950D01*
X19050Y34137D01*
Y34437D01*
X17800Y32844D02*
X17200D01*
Y33144D01*
X17300Y33244D01*
X17500D01*
X17600Y33144D01*
Y32844D01*
Y33044D02*
X17800Y33244D01*
Y33844D02*
Y33444D01*
X17400Y33844D01*
X17300D01*
X17200Y33744D01*
Y33544D01*
X17300Y33444D01*
Y34044D02*
X17200Y34144D01*
Y34343D01*
X17300Y34443D01*
X17400D01*
X17500Y34343D01*
X17600Y34443D01*
X17700D01*
X17800Y34343D01*
Y34144D01*
X17700Y34044D01*
X17600D01*
X17500Y34144D01*
X17400Y34044D01*
X17300D01*
X17500Y34144D02*
Y34343D01*
X16350Y32794D02*
X15750D01*
Y33094D01*
X15850Y33194D01*
X16050D01*
X16150Y33094D01*
Y32794D01*
Y32994D02*
X16350Y33194D01*
Y33794D02*
Y33394D01*
X15950Y33794D01*
X15850D01*
X15750Y33694D01*
Y33494D01*
X15850Y33394D01*
X15750Y33994D02*
Y34393D01*
X15850D01*
X16250Y33994D01*
X16350D01*
X12260Y29940D02*
Y30540D01*
X12560D01*
X12660Y30440D01*
Y30240D01*
X12560Y30140D01*
X12260D01*
X12460D02*
X12660Y29940D01*
X13260D02*
X12860D01*
X13260Y30340D01*
Y30440D01*
X13160Y30540D01*
X12960D01*
X12860Y30440D01*
X13859Y30540D02*
X13660Y30440D01*
X13460Y30240D01*
Y30040D01*
X13560Y29940D01*
X13760D01*
X13859Y30040D01*
Y30140D01*
X13760Y30240D01*
X13460D01*
X12260Y28120D02*
Y28720D01*
X12560D01*
X12660Y28620D01*
Y28420D01*
X12560Y28320D01*
X12260D01*
X12460D02*
X12660Y28120D01*
X13260D02*
X12860D01*
X13260Y28520D01*
Y28620D01*
X13160Y28720D01*
X12960D01*
X12860Y28620D01*
X13859Y28720D02*
X13460D01*
Y28420D01*
X13660Y28520D01*
X13760D01*
X13859Y28420D01*
Y28220D01*
X13760Y28120D01*
X13560D01*
X13460Y28220D01*
X12260Y26300D02*
Y26900D01*
X12560D01*
X12660Y26800D01*
Y26600D01*
X12560Y26500D01*
X12260D01*
X12460D02*
X12660Y26300D01*
X13260D02*
X12860D01*
X13260Y26700D01*
Y26800D01*
X13160Y26900D01*
X12960D01*
X12860Y26800D01*
X13760Y26300D02*
Y26900D01*
X13460Y26600D01*
X13859D01*
X12150Y24394D02*
Y24994D01*
X12450D01*
X12550Y24894D01*
Y24694D01*
X12450Y24594D01*
X12150D01*
X12350D02*
X12550Y24394D01*
X13150D02*
X12750D01*
X13150Y24794D01*
Y24894D01*
X13050Y24994D01*
X12850D01*
X12750Y24894D01*
X13350D02*
X13450Y24994D01*
X13650D01*
X13750Y24894D01*
Y24794D01*
X13650Y24694D01*
X13550D01*
X13650D01*
X13750Y24594D01*
Y24494D01*
X13650Y24394D01*
X13450D01*
X13350Y24494D01*
X22000Y13094D02*
X21400D01*
Y13394D01*
X21500Y13494D01*
X21700D01*
X21800Y13394D01*
Y13094D01*
Y13294D02*
X22000Y13494D01*
Y14094D02*
Y13694D01*
X21600Y14094D01*
X21500D01*
X21400Y13994D01*
Y13794D01*
X21500Y13694D01*
X22000Y14693D02*
Y14294D01*
X21600Y14693D01*
X21500D01*
X21400Y14593D01*
Y14394D01*
X21500Y14294D01*
X23409Y13144D02*
X22809D01*
Y13444D01*
X22909Y13544D01*
X23109D01*
X23209Y13444D01*
Y13144D01*
Y13344D02*
X23409Y13544D01*
Y14144D02*
Y13744D01*
X23009Y14144D01*
X22909D01*
X22809Y14044D01*
Y13844D01*
X22909Y13744D01*
X23409Y14344D02*
Y14543D01*
Y14444D01*
X22809D01*
X22909Y14344D01*
X24968Y13188D02*
X24368D01*
Y13488D01*
X24468Y13588D01*
X24668D01*
X24768Y13488D01*
Y13188D01*
Y13388D02*
X24968Y13588D01*
Y14187D02*
Y13787D01*
X24568Y14187D01*
X24468D01*
X24368Y14087D01*
Y13887D01*
X24468Y13787D01*
Y14387D02*
X24368Y14487D01*
Y14687D01*
X24468Y14787D01*
X24868D01*
X24968Y14687D01*
Y14487D01*
X24868Y14387D01*
X24468D01*
X26427Y13088D02*
X25827D01*
Y13388D01*
X25927Y13488D01*
X26127D01*
X26227Y13388D01*
Y13088D01*
Y13288D02*
X26427Y13488D01*
Y13687D02*
Y13887D01*
Y13787D01*
X25827D01*
X25927Y13687D01*
X26327Y14187D02*
X26427Y14287D01*
Y14487D01*
X26327Y14587D01*
X25927D01*
X25827Y14487D01*
Y14287D01*
X25927Y14187D01*
X26027D01*
X26127Y14287D01*
Y14587D01*
X27936Y13088D02*
X27336D01*
Y13388D01*
X27436Y13488D01*
X27636D01*
X27736Y13388D01*
Y13088D01*
Y13288D02*
X27936Y13488D01*
Y13687D02*
Y13887D01*
Y13787D01*
X27336D01*
X27436Y13687D01*
Y14187D02*
X27336Y14287D01*
Y14487D01*
X27436Y14587D01*
X27536D01*
X27636Y14487D01*
X27736Y14587D01*
X27836D01*
X27936Y14487D01*
Y14287D01*
X27836Y14187D01*
X27736D01*
X27636Y14287D01*
X27536Y14187D01*
X27436D01*
X27636Y14287D02*
Y14487D01*
X29495Y13200D02*
X28896D01*
Y13500D01*
X28996Y13600D01*
X29195D01*
X29295Y13500D01*
Y13200D01*
Y13400D02*
X29495Y13600D01*
Y13800D02*
Y14000D01*
Y13900D01*
X28896D01*
X28996Y13800D01*
X28896Y14300D02*
Y14700D01*
X28996D01*
X29395Y14300D01*
X29495D01*
X30954Y13144D02*
X30355D01*
Y13444D01*
X30455Y13544D01*
X30655D01*
X30755Y13444D01*
Y13144D01*
Y13344D02*
X30954Y13544D01*
Y13744D02*
Y13944D01*
Y13844D01*
X30355D01*
X30455Y13744D01*
X30355Y14643D02*
X30455Y14444D01*
X30655Y14244D01*
X30854D01*
X30954Y14344D01*
Y14543D01*
X30854Y14643D01*
X30755D01*
X30655Y14543D01*
Y14244D01*
X32400Y13194D02*
X31800D01*
Y13494D01*
X31900Y13594D01*
X32100D01*
X32200Y13494D01*
Y13194D01*
Y13394D02*
X32400Y13594D01*
Y13794D02*
Y13994D01*
Y13894D01*
X31800D01*
X31900Y13794D01*
X31800Y14693D02*
Y14294D01*
X32100D01*
X32000Y14494D01*
Y14593D01*
X32100Y14693D01*
X32300D01*
X32400Y14593D01*
Y14394D01*
X32300Y14294D01*
X33973Y13188D02*
X33373D01*
Y13488D01*
X33473Y13588D01*
X33673D01*
X33773Y13488D01*
Y13188D01*
Y13388D02*
X33973Y13588D01*
Y13787D02*
Y13987D01*
Y13887D01*
X33373D01*
X33473Y13787D01*
X33973Y14587D02*
X33373D01*
X33673Y14287D01*
Y14687D01*
X35482Y13144D02*
X34882D01*
Y13444D01*
X34982Y13544D01*
X35182D01*
X35282Y13444D01*
Y13144D01*
Y13344D02*
X35482Y13544D01*
Y13744D02*
Y13944D01*
Y13844D01*
X34882D01*
X34982Y13744D01*
Y14244D02*
X34882Y14344D01*
Y14543D01*
X34982Y14643D01*
X35082D01*
X35182Y14543D01*
Y14444D01*
Y14543D01*
X35282Y14643D01*
X35382D01*
X35482Y14543D01*
Y14344D01*
X35382Y14244D01*
X37041Y13038D02*
X36441D01*
Y13338D01*
X36541Y13438D01*
X36741D01*
X36841Y13338D01*
Y13038D01*
Y13238D02*
X37041Y13438D01*
Y13637D02*
Y13837D01*
Y13737D01*
X36441D01*
X36541Y13637D01*
X37041Y14537D02*
Y14137D01*
X36641Y14537D01*
X36541D01*
X36441Y14437D01*
Y14237D01*
X36541Y14137D01*
X38450Y13100D02*
X37850D01*
Y13400D01*
X37950Y13500D01*
X38150D01*
X38250Y13400D01*
Y13100D01*
Y13300D02*
X38450Y13500D01*
Y13700D02*
Y13900D01*
Y13800D01*
X37850D01*
X37950Y13700D01*
X38450Y14200D02*
Y14400D01*
Y14300D01*
X37850D01*
X37950Y14200D01*
X47500Y23744D02*
Y24344D01*
X47800D01*
X47900Y24244D01*
Y24044D01*
X47800Y23944D01*
X47500D01*
X47700D02*
X47900Y23744D01*
X48100D02*
X48300D01*
X48200D01*
Y24344D01*
X48100Y24244D01*
X48600D02*
X48700Y24344D01*
X48900D01*
X49000Y24244D01*
Y23844D01*
X48900Y23744D01*
X48700D01*
X48600Y23844D01*
Y24244D01*
X47650Y25744D02*
Y26344D01*
X47950D01*
X48050Y26244D01*
Y26044D01*
X47950Y25944D01*
X47650D01*
X47850D02*
X48050Y25744D01*
X48250Y25844D02*
X48350Y25744D01*
X48550D01*
X48650Y25844D01*
Y26244D01*
X48550Y26344D01*
X48350D01*
X48250Y26244D01*
Y26144D01*
X48350Y26044D01*
X48650D01*
X47500Y27944D02*
Y28544D01*
X47800D01*
X47900Y28444D01*
Y28244D01*
X47800Y28144D01*
X47500D01*
X47700D02*
X47900Y27944D01*
X48100Y28444D02*
X48200Y28544D01*
X48400D01*
X48500Y28444D01*
Y28344D01*
X48400Y28244D01*
X48500Y28144D01*
Y28044D01*
X48400Y27944D01*
X48200D01*
X48100Y28044D01*
Y28144D01*
X48200Y28244D01*
X48100Y28344D01*
Y28444D01*
X48200Y28244D02*
X48400D01*
X46900Y30144D02*
Y30744D01*
X47200D01*
X47300Y30644D01*
Y30444D01*
X47200Y30344D01*
X46900D01*
X47100D02*
X47300Y30144D01*
X47500Y30744D02*
X47900D01*
Y30644D01*
X47500Y30244D01*
Y30144D01*
X43200Y32850D02*
X42600D01*
Y33150D01*
X42700Y33250D01*
X42900D01*
X43000Y33150D01*
Y32850D01*
Y33050D02*
X43200Y33250D01*
X42600Y33850D02*
X42700Y33650D01*
X42900Y33450D01*
X43100D01*
X43200Y33550D01*
Y33750D01*
X43100Y33850D01*
X43000D01*
X42900Y33750D01*
Y33450D01*
X41800Y32950D02*
X41200D01*
Y33250D01*
X41300Y33350D01*
X41500D01*
X41600Y33250D01*
Y32950D01*
Y33150D02*
X41800Y33350D01*
X41200Y33950D02*
Y33550D01*
X41500D01*
X41400Y33750D01*
Y33850D01*
X41500Y33950D01*
X41700D01*
X41800Y33850D01*
Y33650D01*
X41700Y33550D01*
X40450Y32800D02*
X39850D01*
Y33100D01*
X39950Y33200D01*
X40150D01*
X40250Y33100D01*
Y32800D01*
Y33000D02*
X40450Y33200D01*
Y33700D02*
X39850D01*
X40150Y33400D01*
Y33800D01*
X39000Y32806D02*
X38400D01*
Y33106D01*
X38500Y33206D01*
X38700D01*
X38800Y33106D01*
Y32806D01*
Y33006D02*
X39000Y33206D01*
X38500Y33406D02*
X38400Y33506D01*
Y33706D01*
X38500Y33806D01*
X38600D01*
X38700Y33706D01*
Y33606D01*
Y33706D01*
X38800Y33806D01*
X38900D01*
X39000Y33706D01*
Y33506D01*
X38900Y33406D01*
X37450Y32700D02*
X36850D01*
Y33000D01*
X36950Y33100D01*
X37150D01*
X37250Y33000D01*
Y32700D01*
Y32900D02*
X37450Y33100D01*
Y33700D02*
Y33300D01*
X37050Y33700D01*
X36950D01*
X36850Y33600D01*
Y33400D01*
X36950Y33300D01*
X35950Y32750D02*
X35350D01*
Y33050D01*
X35450Y33150D01*
X35650D01*
X35750Y33050D01*
Y32750D01*
Y32950D02*
X35950Y33150D01*
Y33350D02*
Y33550D01*
Y33450D01*
X35350D01*
X35450Y33350D01*
D11*
X7985Y3955D02*
G03*
X9815Y3956I915J-10D01*
G01*
X9815Y6455D02*
G03*
X7985Y6454I-915J10D01*
G01*
X9815Y3956D02*
Y6455D01*
X7985Y3955D02*
Y6454D01*
D12*
X1988Y18838D02*
X3012D01*
X3000Y34900D02*
X3012Y18838D01*
X1950Y34900D02*
X1988Y18838D01*
X1950Y34900D02*
X2974D01*
D13*
X48418Y8430D02*
X48567D01*
X48381Y8393D02*
X48604D01*
X49162D02*
X49273D01*
X48232Y8356D02*
X48493D01*
X48530D02*
X48604D01*
X49125D02*
X49311D01*
X48195Y8319D02*
X48493D01*
X48567D02*
X48604D01*
X49125D02*
X49348D01*
X48158Y8282D02*
X48493D01*
X48567D02*
X48604D01*
X49125D02*
X49385D01*
X48158Y8244D02*
X48493D01*
X48567D02*
X48604D01*
X49125D02*
X49385D01*
X48158Y8207D02*
X48493D01*
X48530D02*
X48604D01*
X48902D02*
X48976D01*
X49162D02*
X49311D01*
X48195Y8170D02*
X48604D01*
X48864D02*
X49050D01*
X46448Y8133D02*
X46596D01*
X48195D02*
X48567D01*
X48827D02*
X49050D01*
X46411Y8096D02*
X46485D01*
X46522D02*
X46634D01*
X48232D02*
X48567D01*
X48827D02*
X49162D01*
X46411Y8058D02*
X46448D01*
X46559D02*
X46634D01*
X48307D02*
X48567D01*
X48827D02*
X49199D01*
X46373Y8021D02*
X46448D01*
X46596D02*
X46745D01*
X48418D02*
X48530D01*
X48827D02*
X49199D01*
X46373Y7984D02*
X46448D01*
X46708D02*
X46782D01*
X48827D02*
X49199D01*
X46373Y7947D02*
X46448D01*
X46745D02*
X46820D01*
X48827D02*
X49199D01*
X46373Y7910D02*
X46448D01*
X46745D02*
X46782D01*
X48827D02*
X49162D01*
X46411Y7873D02*
X46448D01*
X46708D02*
X46782D01*
X48864D02*
X49125D01*
X46411Y7835D02*
X46448D01*
X46671D02*
X46745D01*
X48678D02*
X48716D01*
X48864D02*
X49013D01*
X46411Y7798D02*
X46448D01*
X46596D02*
X46708D01*
X48567D02*
X48790D01*
X46448Y7761D02*
X46596D01*
X48530D02*
X48641D01*
X48716D02*
X48827D01*
X44998Y7724D02*
X45035D01*
X48530D02*
X48604D01*
X48753D02*
X48827D01*
X48902D02*
X48939D01*
X44849Y7687D02*
X45146D01*
X48530D02*
X48604D01*
X48790D02*
X49013D01*
X44812Y7649D02*
X45184D01*
X48493D02*
X48567D01*
X48790D02*
X48864D01*
X48976D02*
X49050D01*
X42693Y7612D02*
X42804D01*
X44737D02*
X45035D01*
X45109D02*
X45221D01*
X46187D02*
X46336D01*
X48493D02*
X48567D01*
X49013D02*
X49050D01*
X42618Y7575D02*
X42841D01*
X43734D02*
X43808D01*
X44700D02*
X44998D01*
X45146D02*
X45258D01*
X45444D02*
X45555D01*
X46150D02*
X46373D01*
X46448D02*
X46596D01*
X48493D02*
X48567D01*
X49013D02*
X49087D01*
X42581Y7538D02*
X42730D01*
X42767D02*
X42878D01*
X43696D02*
X43845D01*
X44663D02*
X44886D01*
X44923D02*
X44998D01*
X45146D02*
X45258D01*
X45444D02*
X45555D01*
X46113D02*
X46634D01*
X48530D02*
X48567D01*
X48976D02*
X49087D01*
X42581Y7501D02*
X42730D01*
X42804D02*
X42878D01*
X43659D02*
X43845D01*
X44366D02*
X44589D01*
X44663D02*
X44849D01*
X45146D02*
X45258D01*
X45332D02*
X45370D01*
X45481D02*
X45555D01*
X46113D02*
X46671D01*
X48530D02*
X48604D01*
X48976D02*
X49050D01*
X42544Y7464D02*
X42767D01*
X42841D02*
X42916D01*
X43659D02*
X43808D01*
X44328D02*
X44663D01*
X44700D02*
X44849D01*
X45146D02*
X45258D01*
X45295D02*
X45370D01*
X45481D02*
X45555D01*
X46076D02*
X46559D01*
X46596D02*
X46671D01*
X48530D02*
X48604D01*
X48939D02*
X49050D01*
X42432Y7426D02*
X42767D01*
X42841D02*
X42916D01*
X43659D02*
X43771D01*
X44291D02*
X44700D01*
X44775D02*
X44886D01*
X45109D02*
X45258D01*
X45295D02*
X45407D01*
X45481D02*
X45555D01*
X46076D02*
X46559D01*
X46596D02*
X46671D01*
X48567D02*
X48604D01*
X48902D02*
X49013D01*
X42395Y7389D02*
X42767D01*
X42878D02*
X42916D01*
X43622D02*
X43771D01*
X44217D02*
X44514D01*
X44589D02*
X44700D01*
X44775D02*
X44923D01*
X45072D02*
X45258D01*
X45332D02*
X45555D01*
X46113D02*
X46522D01*
X46596D02*
X46671D01*
X48567D02*
X48641D01*
X48827D02*
X48976D01*
X42395Y7352D02*
X42804D01*
X42841D02*
X42916D01*
X43622D02*
X43734D01*
X44180D02*
X44403D01*
X44440D02*
X44477D01*
X44626D02*
X44737D01*
X44775D02*
X44961D01*
X45072D02*
X45221D01*
X45407D02*
X45555D01*
X46113D02*
X46522D01*
X46596D02*
X46671D01*
X48604D02*
X48641D01*
X48753D02*
X48902D01*
X42358Y7315D02*
X42916D01*
X43176D02*
X43287D01*
X43659D02*
X43734D01*
X44180D02*
X44366D01*
X44626D02*
X44737D01*
X44812D02*
X44961D01*
X45035D02*
X45221D01*
X45444D02*
X45518D01*
X46113D02*
X46485D01*
X46559D02*
X46634D01*
X48604D02*
X48827D01*
X42395Y7278D02*
X42916D01*
X43139D02*
X43325D01*
X43659D02*
X43734D01*
X44254D02*
X44366D01*
X44626D02*
X44737D01*
X44812D02*
X45184D01*
X45444D02*
X45518D01*
X46150D02*
X46485D01*
X46522D02*
X46596D01*
X48641D02*
X48716D01*
X42395Y7240D02*
X42916D01*
X43139D02*
X43362D01*
X43659D02*
X43771D01*
X44291D02*
X44403D01*
X44589D02*
X44737D01*
X44812D02*
X45146D01*
X45407D02*
X45518D01*
X46150D02*
X46596D01*
X42395Y7203D02*
X42916D01*
X43139D02*
X43399D01*
X43659D02*
X43771D01*
X44068D02*
X44105D01*
X44291D02*
X44440D01*
X44589D02*
X44737D01*
X44812D02*
X45072D01*
X45407D02*
X45481D01*
X46187D02*
X46559D01*
X42432Y7166D02*
X42916D01*
X43176D02*
X43399D01*
X43659D02*
X43771D01*
X43994D02*
X44180D01*
X44328D02*
X44477D01*
X44552D02*
X44700D01*
X44849D02*
X44961D01*
X45370D02*
X45481D01*
X46225D02*
X46485D01*
X42470Y7129D02*
X42916D01*
X43325D02*
X43436D01*
X43696D02*
X43808D01*
X43994D02*
X44068D01*
X44105D02*
X44217D01*
X44328D02*
X44477D01*
X44552D02*
X44700D01*
X44849D02*
X44923D01*
X45332D02*
X45444D01*
X46262D02*
X46448D01*
X47749D02*
X47823D01*
X42581Y7092D02*
X42878D01*
X43325D02*
X43436D01*
X43659D02*
X43808D01*
X43957D02*
X44068D01*
X44143D02*
X44217D01*
X44366D02*
X44663D01*
X44849D02*
X44923D01*
X45295D02*
X45407D01*
X46336D02*
X46411D01*
X47712D02*
X47972D01*
X43362Y7055D02*
X43473D01*
X43585D02*
X43808D01*
X43957D02*
X44068D01*
X44143D02*
X44217D01*
X44366D02*
X44626D01*
X44849D02*
X44961D01*
X45221D02*
X45370D01*
X47675D02*
X48009D01*
X48195D02*
X48307D01*
X43362Y7017D02*
X43808D01*
X44143D02*
X44217D01*
X44366D02*
X44589D01*
X44849D02*
X44961D01*
X45184D02*
X45332D01*
X47712D02*
X48009D01*
X48158D02*
X48344D01*
X48418D02*
X48455D01*
X43250Y6980D02*
X43659D01*
X43734D02*
X43845D01*
X44031D02*
X44291D01*
X44403D02*
X44477D01*
X44849D02*
X44961D01*
X45184D02*
X45332D01*
X45593D02*
X45704D01*
X47712D02*
X47972D01*
X48158D02*
X48530D01*
X43250Y6943D02*
X43548D01*
X43734D02*
X43882D01*
X44031D02*
X44328D01*
X44403D02*
X44477D01*
X44849D02*
X44998D01*
X45593D02*
X45704D01*
X47712D02*
X47935D01*
X48121D02*
X48530D01*
X43287Y6906D02*
X43511D01*
X43771D02*
X43920D01*
X44031D02*
X44328D01*
X44403D02*
X44514D01*
X44849D02*
X44961D01*
X45630D02*
X45704D01*
X47749D02*
X47935D01*
X48121D02*
X48530D01*
X43436Y6869D02*
X43511D01*
X43808D02*
X44254D01*
X44403D02*
X44514D01*
X44886D02*
X44961D01*
X45630D02*
X45704D01*
X46336D02*
X46448D01*
X47489D02*
X47526D01*
X47637D02*
X47712D01*
X47786D02*
X47861D01*
X48158D02*
X48530D01*
X43436Y6832D02*
X43511D01*
X43845D02*
X44217D01*
X44440D02*
X44514D01*
X45630D02*
X45704D01*
X45927D02*
X46039D01*
X46336D02*
X46448D01*
X47266D02*
X47340D01*
X47452D02*
X47749D01*
X47786D02*
X47861D01*
X48158D02*
X48493D01*
X43399Y6794D02*
X43511D01*
X43845D02*
X44031D01*
X44440D02*
X44552D01*
X45667D02*
X45741D01*
X45890D02*
X46076D01*
X46187D02*
X46225D01*
X46336D02*
X46448D01*
X47228D02*
X47377D01*
X47414D02*
X47749D01*
X47823D02*
X47861D01*
X48195D02*
X48455D01*
X43399Y6757D02*
X43511D01*
X43920D02*
X43994D01*
X44403D02*
X44552D01*
X44886D02*
X44961D01*
X45667D02*
X45741D01*
X45853D02*
X45964D01*
X46002D02*
X46113D01*
X46150D02*
X46262D01*
X46373D02*
X46448D01*
X47117D02*
X47377D01*
X47414D02*
X47749D01*
X47786D02*
X47861D01*
X48195D02*
X48418D01*
X43362Y6720D02*
X43511D01*
X44440D02*
X44552D01*
X44849D02*
X44998D01*
X45667D02*
X45778D01*
X45853D02*
X45964D01*
X46039D02*
X46113D01*
X46150D02*
X46299D01*
X46373D02*
X46448D01*
X47080D02*
X47377D01*
X47452D02*
X47712D01*
X47786D02*
X47861D01*
X48232D02*
X48307D01*
X43287Y6683D02*
X43473D01*
X44886D02*
X44961D01*
X45518D02*
X45778D01*
X45890D02*
X45964D01*
X46039D02*
X46113D01*
X46225D02*
X46448D01*
X47080D02*
X47377D01*
X47489D02*
X47712D01*
X47786D02*
X47861D01*
X47898D02*
X48195D01*
X48232D02*
X48270D01*
X43250Y6646D02*
X43473D01*
X44886D02*
X44998D01*
X45444D02*
X45778D01*
X46002D02*
X46113D01*
X46262D02*
X46448D01*
X47080D02*
X47377D01*
X47526D02*
X47675D01*
X47786D02*
X47861D01*
X47898D02*
X48195D01*
X48232D02*
X48270D01*
X43287Y6608D02*
X43436D01*
X44886D02*
X44998D01*
X45444D02*
X45630D01*
X45704D02*
X45816D01*
X45927D02*
X46187D01*
X46299D02*
X46448D01*
X47117D02*
X47340D01*
X47563D02*
X47637D01*
X47786D02*
X47861D01*
X47898D02*
X48270D01*
X43325Y6571D02*
X43362D01*
X44626D02*
X44737D01*
X44923D02*
X44998D01*
X45407D02*
X45593D01*
X45704D02*
X45816D01*
X45890D02*
X46225D01*
X46336D02*
X46448D01*
X47191D02*
X47340D01*
X47600D02*
X47637D01*
X47786D02*
X47861D01*
X47898D02*
X48270D01*
X48381D02*
X48530D01*
X44626Y6534D02*
X44737D01*
X44923D02*
X44998D01*
X45407D02*
X45481D01*
X45741D02*
X45816D01*
X45890D02*
X46225D01*
X46373D02*
X46448D01*
X47266D02*
X47303D01*
X47600D02*
X47637D01*
X47786D02*
X47861D01*
X47898D02*
X48158D01*
X48195D02*
X48232D01*
X48381D02*
X48641D01*
X43734Y6497D02*
X43882D01*
X44626D02*
X44737D01*
X44923D02*
X44998D01*
X45146D02*
X45295D01*
X45370D02*
X45481D01*
X45741D02*
X45853D01*
X45927D02*
X46150D01*
X46336D02*
X46411D01*
X47303D02*
X47340D01*
X47600D02*
X47637D01*
X47786D02*
X47861D01*
X47935D02*
X48121D01*
X48195D02*
X48232D01*
X48344D02*
X48678D01*
X43659Y6460D02*
X43920D01*
X44663D02*
X44737D01*
X44849D02*
X44886D01*
X44923D02*
X44998D01*
X45109D02*
X45332D01*
X45407D02*
X45481D01*
X45704D02*
X45890D01*
X45927D02*
X46113D01*
X46336D02*
X46411D01*
X47303D02*
X47340D01*
X47600D02*
X47637D01*
X47675D02*
X47861D01*
X47972D02*
X48084D01*
X48195D02*
X48232D01*
X48344D02*
X48678D01*
X43585Y6423D02*
X43957D01*
X44217D02*
X44291D01*
X44663D02*
X44886D01*
X44961D02*
X45035D01*
X45072D02*
X45332D01*
X45407D02*
X45518D01*
X45704D02*
X45890D01*
X46299D02*
X46411D01*
X47303D02*
X47340D01*
X47563D02*
X47861D01*
X48009D02*
X48046D01*
X48158D02*
X48232D01*
X48381D02*
X48678D01*
X43399Y6385D02*
X43696D01*
X43771D02*
X43994D01*
X44180D02*
X44328D01*
X44663D02*
X44886D01*
X44961D02*
X45035D01*
X45072D02*
X45146D01*
X45258D02*
X45370D01*
X45407D02*
X45593D01*
X45704D02*
X45853D01*
X46299D02*
X46411D01*
X47340D02*
X47377D01*
X47526D02*
X47861D01*
X48009D02*
X48046D01*
X48158D02*
X48232D01*
X48381D02*
X48641D01*
X43362Y6348D02*
X43585D01*
X43808D02*
X43994D01*
X44180D02*
X44328D01*
X44589D02*
X44775D01*
X44961D02*
X45146D01*
X45295D02*
X45370D01*
X45407D02*
X45816D01*
X46262D02*
X46373D01*
X47340D02*
X47377D01*
X47489D02*
X47861D01*
X47972D02*
X48046D01*
X48158D02*
X48195D01*
X48418D02*
X48567D01*
X43362Y6311D02*
X43585D01*
X43845D02*
X43994D01*
X44217D02*
X44291D01*
X44514D02*
X44775D01*
X44961D02*
X45146D01*
X45295D02*
X45407D01*
X45444D02*
X45778D01*
X46225D02*
X46373D01*
X47340D02*
X47377D01*
X47526D02*
X47861D01*
X47972D02*
X48046D01*
X48158D02*
X48195D01*
X48418D02*
X48530D01*
X43399Y6274D02*
X43622D01*
X43845D02*
X43957D01*
X44514D02*
X44626D01*
X44700D02*
X44775D01*
X44998D02*
X45109D01*
X45332D02*
X45407D01*
X45518D02*
X45704D01*
X46262D02*
X46336D01*
X47340D02*
X47414D01*
X47526D02*
X47861D01*
X47972D02*
X48046D01*
X48158D02*
X48195D01*
X48418D02*
X48455D01*
X43511Y6237D02*
X43622D01*
X43845D02*
X43957D01*
X44440D02*
X44477D01*
X44700D02*
X44812D01*
X44998D02*
X45109D01*
X45332D02*
X45444D01*
X47377D02*
X47414D01*
X47563D02*
X47749D01*
X47786D02*
X47861D01*
X47972D02*
X48009D01*
X48121D02*
X48195D01*
X48381D02*
X48455D01*
X43511Y6199D02*
X43659D01*
X43808D02*
X44105D01*
X44254D02*
X44328D01*
X44403D02*
X44514D01*
X44737D02*
X44812D01*
X45035D02*
X45109D01*
X45332D02*
X45444D01*
X47377D02*
X47414D01*
X47637D02*
X47749D01*
X47786D02*
X47823D01*
X47972D02*
X48009D01*
X48121D02*
X48195D01*
X48381D02*
X48418D01*
X43548Y6162D02*
X43659D01*
X43808D02*
X44143D01*
X44217D02*
X44366D01*
X44403D02*
X44477D01*
X44552D02*
X44663D01*
X44737D02*
X44812D01*
X45035D02*
X45146D01*
X47377D02*
X47414D01*
X47637D02*
X47749D01*
X47786D02*
X47823D01*
X47972D02*
X48009D01*
X48121D02*
X48158D01*
X48381D02*
X48418D01*
X43548Y6125D02*
X43696D01*
X43771D02*
X44180D01*
X44254D02*
X44328D01*
X44440D02*
X44626D01*
X44737D02*
X44849D01*
X45035D02*
X45146D01*
X47414D02*
X47452D01*
X47637D02*
X47675D01*
X47712D02*
X47749D01*
X47786D02*
X47823D01*
X47972D02*
X48009D01*
X48084D02*
X48158D01*
X48344D02*
X48381D01*
X43585Y6088D02*
X43696D01*
X43734D02*
X43882D01*
X43994D02*
X44180D01*
X44254D02*
X44328D01*
X44440D02*
X44552D01*
X44775D02*
X44886D01*
X47414D02*
X47452D01*
X47637D02*
X47675D01*
X47712D02*
X47861D01*
X47972D02*
X48009D01*
X48084D02*
X48158D01*
X48344D02*
X48381D01*
X43585Y6051D02*
X43734D01*
X44031D02*
X44180D01*
X44254D02*
X44328D01*
X44440D02*
X44514D01*
X44812D02*
X44923D01*
X47414D02*
X47452D01*
X47600D02*
X48158D01*
X48307D02*
X48381D01*
X43622Y6014D02*
X43734D01*
X44068D02*
X44217D01*
X44291D02*
X44366D01*
X44440D02*
X44514D01*
X44812D02*
X44886D01*
X47414D02*
X48418D01*
X43622Y5976D02*
X43734D01*
X44068D02*
X44217D01*
X44291D02*
X44366D01*
X44440D02*
X44552D01*
X47303D02*
X47489D01*
X47637D02*
X47675D01*
X47749D02*
X47823D01*
X47972D02*
X48009D01*
X48084D02*
X48121D01*
X48270D02*
X48493D01*
X43622Y5939D02*
X43734D01*
X44068D02*
X44217D01*
X44291D02*
X44403D01*
X44440D02*
X44552D01*
X47228D02*
X47377D01*
X47452D02*
X47489D01*
X47637D02*
X47675D01*
X47749D02*
X47823D01*
X47972D02*
X48009D01*
X48046D02*
X48121D01*
X48270D02*
X48344D01*
X48381D02*
X48567D01*
X43659Y5902D02*
X43771D01*
X44068D02*
X44217D01*
X44291D02*
X44403D01*
X44477D02*
X44552D01*
X47154D02*
X47266D01*
X47452D02*
X47526D01*
X47637D02*
X47675D01*
X47749D02*
X47823D01*
X47972D02*
X48009D01*
X48046D02*
X48121D01*
X48270D02*
X48307D01*
X48493D02*
X48641D01*
X43659Y5865D02*
X43771D01*
X44031D02*
X44180D01*
X44291D02*
X44403D01*
X47117D02*
X47191D01*
X47637D02*
X47675D01*
X47786D02*
X47823D01*
X47972D02*
X48009D01*
X48046D02*
X48084D01*
X48232D02*
X48307D01*
X48567D02*
X48678D01*
X43659Y5828D02*
X43771D01*
X43994D02*
X44143D01*
X47080D02*
X47154D01*
X47637D02*
X47675D01*
X47786D02*
X47823D01*
X47972D02*
X48009D01*
X48232D02*
X48270D01*
X48604D02*
X48716D01*
X43659Y5790D02*
X43771D01*
X43845D02*
X44143D01*
X47043D02*
X47154D01*
X47786D02*
X47823D01*
X47972D02*
X48009D01*
X48641D02*
X48753D01*
X43659Y5753D02*
X43771D01*
X43808D02*
X44068D01*
X47043D02*
X47154D01*
X47786D02*
X47823D01*
X47972D02*
X48009D01*
X48678D02*
X48753D01*
X43659Y5716D02*
X43771D01*
X43808D02*
X43994D01*
X47043D02*
X47080D01*
X47117D02*
X47191D01*
X48641D02*
X48753D01*
X43622Y5679D02*
X43771D01*
X43845D02*
X43882D01*
X47043D02*
X47080D01*
X47154D02*
X47228D01*
X48604D02*
X48753D01*
X43622Y5642D02*
X43771D01*
X47043D02*
X47080D01*
X47191D02*
X47303D01*
X48493D02*
X48753D01*
X43622Y5605D02*
X43734D01*
X47043D02*
X47080D01*
X47228D02*
X47377D01*
X48418D02*
X48641D01*
X48716D02*
X48753D01*
X47043Y5567D02*
X47080D01*
X47303D02*
X47414D01*
X48270D02*
X48530D01*
X48716D02*
X48753D01*
X47043Y5530D02*
X47080D01*
X47489D02*
X48418D01*
X48678D02*
X48753D01*
X47043Y5493D02*
X47080D01*
X47154D02*
X47266D01*
X47526D02*
X48270D01*
X48641D02*
X48753D01*
X47043Y5456D02*
X47080D01*
X47154D02*
X47266D01*
X48641D02*
X48790D01*
X46968Y5419D02*
X47303D01*
X47414D02*
X47489D01*
X48641D02*
X48790D01*
X46894Y5382D02*
X47303D01*
X47377D02*
X47526D01*
X48121D02*
X48195D01*
X48641D02*
X48790D01*
X51095D02*
X51207D01*
X46857Y5344D02*
X46931D01*
X47043D02*
X47303D01*
X47377D02*
X47526D01*
X47786D02*
X47861D01*
X48084D02*
X48232D01*
X48418D02*
X48530D01*
X48641D02*
X48790D01*
X50984D02*
X51244D01*
X46671Y5307D02*
X46782D01*
X46820D02*
X46894D01*
X47080D02*
X47303D01*
X47340D02*
X47526D01*
X47749D02*
X47898D01*
X48084D02*
X48270D01*
X48418D02*
X48567D01*
X48604D02*
X48790D01*
X50946D02*
X51244D01*
X46596Y5270D02*
X46857D01*
X47117D02*
X47563D01*
X47712D02*
X47935D01*
X48084D02*
X48307D01*
X48418D02*
X48827D01*
X50946D02*
X51244D01*
X46559Y5233D02*
X46857D01*
X47154D02*
X47563D01*
X47675D02*
X47972D01*
X48046D02*
X48344D01*
X48418D02*
X48827D01*
X50946D02*
X51244D01*
X46559Y5196D02*
X46820D01*
X46894D02*
X47080D01*
X47228D02*
X47563D01*
X47675D02*
X48641D01*
X48790D02*
X48864D01*
X50946D02*
X51207D01*
X46596Y5158D02*
X47080D01*
X47303D02*
X47563D01*
X47637D02*
X48567D01*
X48827D02*
X48939D01*
X50984D02*
X51207D01*
X46634Y5121D02*
X47080D01*
X47414D02*
X48455D01*
X48864D02*
X48939D01*
X49050D02*
X49087D01*
X51058D02*
X51207D01*
X46708Y5084D02*
X47080D01*
X47526D02*
X48344D01*
X48902D02*
X48976D01*
X49013D02*
X49162D01*
X46634Y5047D02*
X47080D01*
X47340D02*
X47452D01*
X47675D02*
X48046D01*
X48716D02*
X48827D01*
X48939D02*
X49162D01*
X46559Y5010D02*
X47080D01*
X47303D02*
X47489D01*
X47637D02*
X47749D01*
X48716D02*
X48902D01*
X48939D02*
X49199D01*
X51281D02*
X51467D01*
X46596Y4973D02*
X46708D01*
X46782D02*
X46894D01*
X47266D02*
X47526D01*
X47563D02*
X47786D01*
X48084D02*
X48195D01*
X48381D02*
X48493D01*
X48678D02*
X49236D01*
X51244D02*
X51467D01*
X46559Y4935D02*
X46671D01*
X46745D02*
X46931D01*
X47266D02*
X47526D01*
X47563D02*
X47786D01*
X48046D02*
X48232D01*
X48307D02*
X48530D01*
X48678D02*
X49199D01*
X51095D02*
X51504D01*
X46782Y4898D02*
X46931D01*
X47266D02*
X47786D01*
X48046D02*
X48270D01*
X48307D02*
X48567D01*
X48678D02*
X49125D01*
X51095D02*
X51504D01*
X46782Y4861D02*
X46931D01*
X47303D02*
X47823D01*
X48009D02*
X48567D01*
X48678D02*
X49050D01*
X51058D02*
X51504D01*
X46782Y4824D02*
X46968D01*
X47414D02*
X47786D01*
X48009D02*
X48567D01*
X48864D02*
X49087D01*
X51058D02*
X51504D01*
X46782Y4787D02*
X46820D01*
X46931D02*
X47043D01*
X47377D02*
X47489D01*
X47526D02*
X47637D01*
X48046D02*
X48530D01*
X48827D02*
X49199D01*
X51058D02*
X51467D01*
X46745Y4749D02*
X46820D01*
X46968D02*
X47154D01*
X47303D02*
X47452D01*
X47526D02*
X47637D01*
X48158D02*
X48418D01*
X48790D02*
X48902D01*
X48939D02*
X49013D01*
X49050D02*
X49125D01*
X51095D02*
X51467D01*
X46485Y4712D02*
X46522D01*
X46671D02*
X46820D01*
X46894D02*
X46931D01*
X47043D02*
X47452D01*
X47563D02*
X47675D01*
X48158D02*
X48270D01*
X48307D02*
X48418D01*
X48790D02*
X48902D01*
X48939D02*
X48976D01*
X49087D02*
X49125D01*
X51132D02*
X51467D01*
X46411Y4675D02*
X46596D01*
X46634D02*
X46820D01*
X46857D02*
X46968D01*
X47154D02*
X47266D01*
X47340D02*
X47414D01*
X47563D02*
X47712D01*
X48046D02*
X48270D01*
X48344D02*
X48493D01*
X48716D02*
X48864D01*
X48939D02*
X49013D01*
X51170D02*
X51430D01*
X46373Y4638D02*
X46448D01*
X46559D02*
X46671D01*
X46708D02*
X46968D01*
X47340D02*
X47377D01*
X47600D02*
X47786D01*
X48046D02*
X48232D01*
X48381D02*
X48790D01*
X48939D02*
X49013D01*
X51281D02*
X51430D01*
X46299Y4601D02*
X46448D01*
X46671D02*
X46708D01*
X46745D02*
X47005D01*
X47637D02*
X47675D01*
X47712D02*
X48195D01*
X48418D02*
X48455D01*
X48493D02*
X48716D01*
X48939D02*
X49013D01*
X44552Y4564D02*
X44663D01*
X46299D02*
X46448D01*
X46485D02*
X46596D01*
X46671D02*
X46708D01*
X46782D02*
X47043D01*
X47786D02*
X48046D01*
X48939D02*
X48976D01*
X44477Y4526D02*
X44700D01*
X46299D02*
X46373D01*
X46448D02*
X46485D01*
X46559D02*
X46634D01*
X46708D02*
X46745D01*
X46782D02*
X47043D01*
X48939D02*
X49013D01*
X44440Y4489D02*
X44737D01*
X46299D02*
X46373D01*
X46448D02*
X46485D01*
X46559D02*
X46634D01*
X46708D02*
X46745D01*
X46820D02*
X47043D01*
X48864D02*
X49013D01*
X51244D02*
X51318D01*
X51467D02*
X51653D01*
X44068Y4452D02*
X44180D01*
X44440D02*
X44849D01*
X46262D02*
X46299D01*
X46373D02*
X46411D01*
X46448D02*
X46634D01*
X46671D02*
X46782D01*
X46820D02*
X47005D01*
X47117D02*
X47266D01*
X48753D02*
X48902D01*
X48976D02*
X49050D01*
X51170D02*
X51653D01*
X44031Y4415D02*
X44217D01*
X44403D02*
X44923D01*
X46262D02*
X46299D01*
X46373D02*
X46411D01*
X46448D02*
X46559D01*
X46671D02*
X46745D01*
X46782D02*
X47005D01*
X47191D02*
X47489D01*
X48641D02*
X48827D01*
X49013D02*
X49087D01*
X51170D02*
X51690D01*
X43994Y4378D02*
X44031D01*
X44180D02*
X44254D01*
X44403D02*
X44961D01*
X46299D02*
X46336D01*
X46411D02*
X46448D01*
X46485D02*
X46596D01*
X46782D02*
X47005D01*
X47303D02*
X47675D01*
X48455D02*
X48716D01*
X49050D02*
X49125D01*
X51132D02*
X51579D01*
X51616D02*
X51690D01*
X43994Y4340D02*
X44031D01*
X44217D02*
X44254D01*
X44403D02*
X44961D01*
X46336D02*
X46411D01*
X46522D02*
X46596D01*
X46782D02*
X47043D01*
X47489D02*
X48567D01*
X49050D02*
X49125D01*
X51132D02*
X51579D01*
X51616D02*
X51690D01*
X43957Y4303D02*
X44031D01*
X44217D02*
X44254D01*
X44403D02*
X44849D01*
X44886D02*
X44998D01*
X46299D02*
X46448D01*
X46745D02*
X47005D01*
X47712D02*
X48344D01*
X49050D02*
X49162D01*
X51132D02*
X51541D01*
X51616D02*
X51690D01*
X43920Y4266D02*
X44031D01*
X44217D02*
X44291D01*
X44403D02*
X44812D01*
X44886D02*
X44961D01*
X46262D02*
X46522D01*
X46634D02*
X47005D01*
X49013D02*
X49162D01*
X51132D02*
X51541D01*
X51616D02*
X51690D01*
X43882Y4229D02*
X43957D01*
X44254D02*
X44291D01*
X44440D02*
X44775D01*
X44886D02*
X44961D01*
X46262D02*
X47005D01*
X48976D02*
X49162D01*
X51132D02*
X51541D01*
X51616D02*
X51690D01*
X43882Y4192D02*
X43920D01*
X44254D02*
X44291D01*
X44440D02*
X44737D01*
X44849D02*
X44923D01*
X46299D02*
X47117D01*
X48902D02*
X49199D01*
X51170D02*
X51541D01*
X51579D02*
X51653D01*
X43882Y4155D02*
X43957D01*
X44254D02*
X44291D01*
X44440D02*
X44737D01*
X44812D02*
X44923D01*
X46336D02*
X47303D01*
X48790D02*
X49199D01*
X51170D02*
X51616D01*
X43920Y4117D02*
X43994D01*
X44217D02*
X44291D01*
X44477D02*
X44849D01*
X46373D02*
X47489D01*
X48678D02*
X49199D01*
X51207D02*
X51616D01*
X43957Y4080D02*
X44217D01*
X44477D02*
X44812D01*
X46411D02*
X47786D01*
X48493D02*
X49199D01*
X51244D02*
X51579D01*
X44514Y4043D02*
X44700D01*
X46448D02*
X46671D01*
X46782D02*
X47266D01*
X47340D02*
X48678D01*
X48753D02*
X49199D01*
X51318D02*
X51541D01*
X46448Y4006D02*
X46634D01*
X46820D02*
X47191D01*
X47377D02*
X48678D01*
X48753D02*
X49199D01*
X51355D02*
X51541D01*
X46411Y3969D02*
X46596D01*
X46857D02*
X47191D01*
X47414D02*
X48195D01*
X48270D02*
X48678D01*
X48753D02*
X49199D01*
X46411Y3932D02*
X46596D01*
X46857D02*
X47191D01*
X47414D02*
X47600D01*
X47675D02*
X48158D01*
X48344D02*
X49236D01*
X45964Y3894D02*
X46076D01*
X46225D02*
X46596D01*
X46820D02*
X47191D01*
X47414D02*
X47600D01*
X47675D02*
X48121D01*
X48344D02*
X49311D01*
X45890Y3857D02*
X46076D01*
X46187D02*
X46225D01*
X46373D02*
X46634D01*
X46820D02*
X47228D01*
X47377D02*
X48121D01*
X48344D02*
X49385D01*
X45853Y3820D02*
X46113D01*
X46150D02*
X46225D01*
X46448D02*
X46708D01*
X46745D02*
X48121D01*
X48344D02*
X48604D01*
X48716D02*
X48902D01*
X48976D02*
X49385D01*
X45816Y3783D02*
X46187D01*
X46485D02*
X47080D01*
X47117D02*
X47749D01*
X47898D02*
X48158D01*
X48307D02*
X48567D01*
X48753D02*
X48902D01*
X48976D02*
X49199D01*
X49348D02*
X49422D01*
X45853Y3746D02*
X46187D01*
X46559D02*
X47043D01*
X47154D02*
X47712D01*
X47935D02*
X48567D01*
X48753D02*
X48902D01*
X48976D02*
X49199D01*
X49385D02*
X49459D01*
X44775Y3708D02*
X44812D01*
X45853D02*
X46150D01*
X46225D02*
X46411D01*
X46634D02*
X47043D01*
X47154D02*
X47712D01*
X47935D02*
X48567D01*
X48753D02*
X49125D01*
X49422D02*
X49534D01*
X44700Y3671D02*
X44886D01*
X45890D02*
X46448D01*
X46745D02*
X47712D01*
X47935D02*
X48567D01*
X48753D02*
X49050D01*
X49422D02*
X49608D01*
X44477Y3634D02*
X44589D01*
X44663D02*
X44775D01*
X44849D02*
X44923D01*
X45964D02*
X46448D01*
X46820D02*
X47749D01*
X47898D02*
X48604D01*
X48716D02*
X49013D01*
X49422D02*
X49682D01*
X50984D02*
X51132D01*
X44403Y3597D02*
X44812D01*
X44886D02*
X44961D01*
X45964D02*
X46448D01*
X46931D02*
X47786D01*
X47861D02*
X48902D01*
X49385D02*
X49682D01*
X50909D02*
X51207D01*
X44403Y3560D02*
X44812D01*
X44886D02*
X44961D01*
X45778D02*
X46448D01*
X47080D02*
X48753D01*
X49385D02*
X49682D01*
X50835D02*
X51281D01*
X44366Y3523D02*
X44812D01*
X44886D02*
X44961D01*
X45778D02*
X46448D01*
X47303D02*
X48567D01*
X49385D02*
X49645D01*
X50798D02*
X51281D01*
X44366Y3485D02*
X44812D01*
X44886D02*
X44961D01*
X45816D02*
X46002D01*
X46076D02*
X46448D01*
X46745D02*
X46857D01*
X47675D02*
X47712D01*
X47749D02*
X48084D01*
X48121D02*
X48158D01*
X49125D02*
X49645D01*
X50761D02*
X51058D01*
X51132D02*
X51318D01*
X51430D02*
X51764D01*
X44366Y3448D02*
X44812D01*
X44886D02*
X44923D01*
X45778D02*
X45927D01*
X46039D02*
X46187D01*
X46336D02*
X46411D01*
X46708D02*
X46894D01*
X49087D02*
X49571D01*
X50723D02*
X51021D01*
X51170D02*
X51839D01*
X44403Y3411D02*
X44775D01*
X44849D02*
X44923D01*
X45778D02*
X45816D01*
X46039D02*
X46225D01*
X46671D02*
X46931D01*
X47154D02*
X47191D01*
X49087D02*
X49571D01*
X50723D02*
X50984D01*
X51207D02*
X51876D01*
X44403Y3374D02*
X44923D01*
X46039D02*
X46225D01*
X46634D02*
X46931D01*
X47043D02*
X47228D01*
X48864D02*
X48902D01*
X49087D02*
X49757D01*
X50686D02*
X50984D01*
X51244D02*
X51876D01*
X44440Y3337D02*
X44886D01*
X46039D02*
X46262D01*
X46634D02*
X46968D01*
X47005D02*
X47266D01*
X48790D02*
X48939D01*
X49087D02*
X49459D01*
X49496D02*
X49720D01*
X50686D02*
X50984D01*
X51318D02*
X51355D01*
X51541D02*
X51913D01*
X44477Y3299D02*
X44886D01*
X46039D02*
X46262D01*
X46634D02*
X47266D01*
X47637D02*
X47786D01*
X48084D02*
X48121D01*
X48418D02*
X48567D01*
X48753D02*
X48976D01*
X49087D02*
X49311D01*
X49348D02*
X49459D01*
X49571D02*
X49720D01*
X50649D02*
X50984D01*
X51541D02*
X51950D01*
X44514Y3262D02*
X44849D01*
X46039D02*
X46262D01*
X46671D02*
X47266D01*
X47600D02*
X47823D01*
X47972D02*
X48158D01*
X48418D02*
X48641D01*
X48716D02*
X48976D01*
X49087D02*
X49273D01*
X49348D02*
X49459D01*
X49571D02*
X49720D01*
X50649D02*
X51058D01*
X51541D02*
X51950D01*
X44589Y3225D02*
X44812D01*
X46039D02*
X46113D01*
X46187D02*
X46299D01*
X46745D02*
X47303D01*
X47600D02*
X47861D01*
X47935D02*
X48195D01*
X48381D02*
X49013D01*
X49311D02*
X49459D01*
X49571D02*
X49645D01*
X50649D02*
X51095D01*
X51541D02*
X51988D01*
X44663Y3188D02*
X44812D01*
X46039D02*
X46113D01*
X46225D02*
X46336D01*
X46820D02*
X47303D01*
X47563D02*
X47861D01*
X47935D02*
X48195D01*
X48381D02*
X49050D01*
X49311D02*
X49459D01*
X49571D02*
X49645D01*
X50649D02*
X50984D01*
X51170D02*
X51244D01*
X51541D02*
X51913D01*
X51950D02*
X51988D01*
X46039Y3151D02*
X46113D01*
X46262D02*
X46411D01*
X46745D02*
X46894D01*
X46968D02*
X47303D01*
X47526D02*
X48195D01*
X48344D02*
X49013D01*
X49311D02*
X49422D01*
X49571D02*
X49645D01*
X50649D02*
X50909D01*
X51132D02*
X51244D01*
X51355D02*
X51393D01*
X51504D02*
X51876D01*
X51950D02*
X52136D01*
X46039Y3114D02*
X46113D01*
X46299D02*
X46894D01*
X46968D02*
X47080D01*
X47563D02*
X48232D01*
X48344D02*
X48976D01*
X49311D02*
X49422D01*
X49571D02*
X49645D01*
X50612D02*
X50909D01*
X51095D02*
X51281D01*
X51355D02*
X51430D01*
X51504D02*
X51876D01*
X51950D02*
X51988D01*
X52099D02*
X52173D01*
X46039Y3076D02*
X46113D01*
X46411D02*
X46857D01*
X46968D02*
X47080D01*
X47600D02*
X48232D01*
X48381D02*
X48827D01*
X49273D02*
X49422D01*
X49571D02*
X49645D01*
X50612D02*
X51021D01*
X51095D02*
X51244D01*
X51393D02*
X51839D01*
X51950D02*
X51988D01*
X52173D02*
X52248D01*
X45184Y3039D02*
X45332D01*
X46039D02*
X46113D01*
X46596D02*
X46634D01*
X46671D02*
X46820D01*
X46968D02*
X47117D01*
X47675D02*
X47712D01*
X47749D02*
X48195D01*
X48567D02*
X48827D01*
X49236D02*
X49348D01*
X49608D02*
X49645D01*
X50612D02*
X51021D01*
X51058D02*
X51244D01*
X51393D02*
X51839D01*
X51913D02*
X51988D01*
X52211D02*
X52248D01*
X45146Y3002D02*
X45221D01*
X45295D02*
X45370D01*
X46039D02*
X46113D01*
X46708D02*
X46782D01*
X46968D02*
X47154D01*
X47712D02*
X48009D01*
X48530D02*
X48678D01*
X48753D02*
X48902D01*
X49199D02*
X49311D01*
X49608D02*
X49645D01*
X50612D02*
X51021D01*
X51058D02*
X51244D01*
X51393D02*
X51802D01*
X51913D02*
X52062D01*
X52211D02*
X52285D01*
X45109Y2965D02*
X45221D01*
X45332D02*
X45407D01*
X46039D02*
X46113D01*
X47005D02*
X47191D01*
X47675D02*
X47861D01*
X47898D02*
X48046D01*
X48493D02*
X48678D01*
X48753D02*
X49013D01*
X49125D02*
X49273D01*
X49608D02*
X49645D01*
X50612D02*
X51244D01*
X51393D02*
X51764D01*
X51876D02*
X52173D01*
X52248D02*
X52285D01*
X45072Y2928D02*
X45258D01*
X45370D02*
X45407D01*
X46039D02*
X46113D01*
X47043D02*
X47266D01*
X47600D02*
X47823D01*
X47935D02*
X48084D01*
X48493D02*
X48641D01*
X48790D02*
X49236D01*
X49608D02*
X49645D01*
X50612D02*
X51244D01*
X51281D02*
X51355D01*
X51430D02*
X51764D01*
X51876D02*
X51913D01*
X51950D02*
X52173D01*
X52248D02*
X52322D01*
X45035Y2890D02*
X45295D01*
X45370D02*
X45407D01*
X46039D02*
X46113D01*
X47043D02*
X47080D01*
X47154D02*
X47377D01*
X47563D02*
X47823D01*
X47935D02*
X48121D01*
X48455D02*
X48604D01*
X48827D02*
X48902D01*
X48976D02*
X49162D01*
X49608D02*
X49645D01*
X49682D02*
X49757D01*
X50649D02*
X51355D01*
X51393D02*
X51727D01*
X51839D02*
X51913D01*
X51950D02*
X52136D01*
X52248D02*
X52359D01*
X44923Y2853D02*
X45332D01*
X45407D02*
X45444D01*
X46039D02*
X46113D01*
X47228D02*
X47786D01*
X47972D02*
X48195D01*
X48344D02*
X48604D01*
X48864D02*
X48902D01*
X49273D02*
X49348D01*
X49608D02*
X49645D01*
X49720D02*
X49794D01*
X50649D02*
X51690D01*
X51802D02*
X51876D01*
X51988D02*
X52136D01*
X52248D02*
X52359D01*
X44886Y2816D02*
X45444D01*
X46039D02*
X46113D01*
X47303D02*
X47600D01*
X47675D02*
X47749D01*
X47972D02*
X48046D01*
X48084D02*
X48567D01*
X49236D02*
X49385D01*
X49608D02*
X49645D01*
X49757D02*
X49868D01*
X50649D02*
X50723D01*
X50761D02*
X51653D01*
X51802D02*
X51839D01*
X51988D02*
X52062D01*
X52248D02*
X52396D01*
X44886Y2779D02*
X45332D01*
X45370D02*
X45444D01*
X45964D02*
X46002D01*
X46039D02*
X46113D01*
X48009D02*
X48046D01*
X48158D02*
X48418D01*
X49199D02*
X49422D01*
X49608D02*
X49645D01*
X49794D02*
X49868D01*
X50649D02*
X50723D01*
X50761D02*
X51616D01*
X51764D02*
X51876D01*
X52248D02*
X52396D01*
X44886Y2742D02*
X45332D01*
X45407D02*
X45444D01*
X45890D02*
X46002D01*
X46039D02*
X46113D01*
X46448D02*
X46485D01*
X49199D02*
X49422D01*
X49608D02*
X49645D01*
X49794D02*
X49905D01*
X50649D02*
X50723D01*
X50761D02*
X51579D01*
X51727D02*
X51988D01*
X52248D02*
X52396D01*
X44886Y2705D02*
X45332D01*
X45407D02*
X45444D01*
X45853D02*
X45964D01*
X46039D02*
X46113D01*
X46373D02*
X46559D01*
X46931D02*
X47005D01*
X49199D02*
X49385D01*
X49571D02*
X49645D01*
X49831D02*
X49905D01*
X50649D02*
X50723D01*
X50798D02*
X51504D01*
X51690D02*
X51764D01*
X51802D02*
X51988D01*
X52211D02*
X52396D01*
X44886Y2667D02*
X45407D01*
X45816D02*
X45927D01*
X46039D02*
X46150D01*
X46373D02*
X46559D01*
X46894D02*
X47043D01*
X48678D02*
X48790D01*
X49236D02*
X49348D01*
X49571D02*
X49645D01*
X49831D02*
X49943D01*
X49980D02*
X50017D01*
X50649D02*
X50723D01*
X50798D02*
X51467D01*
X51653D02*
X51690D01*
X51802D02*
X51988D01*
X52211D02*
X52396D01*
X44923Y2630D02*
X45407D01*
X45778D02*
X45890D01*
X46076D02*
X46150D01*
X46373D02*
X46559D01*
X46894D02*
X47080D01*
X47861D02*
X47972D01*
X48641D02*
X48827D01*
X49534D02*
X49645D01*
X49831D02*
X49943D01*
X49980D02*
X50017D01*
X50649D02*
X50723D01*
X50798D02*
X51430D01*
X51616D02*
X51653D01*
X51802D02*
X51950D01*
X52173D02*
X52396D01*
X44961Y2593D02*
X45407D01*
X45778D02*
X45890D01*
X46076D02*
X46150D01*
X46373D02*
X46559D01*
X46894D02*
X47043D01*
X47823D02*
X47972D01*
X48641D02*
X48827D01*
X49496D02*
X49608D01*
X49868D02*
X49943D01*
X50017D02*
X50054D01*
X50686D02*
X50723D01*
X50798D02*
X51355D01*
X51541D02*
X51690D01*
X51839D02*
X51876D01*
X52173D02*
X52396D01*
X44998Y2556D02*
X45407D01*
X45741D02*
X45853D01*
X46076D02*
X46187D01*
X46373D02*
X46522D01*
X46894D02*
X47043D01*
X47786D02*
X47972D01*
X48641D02*
X48827D01*
X49459D02*
X49608D01*
X49868D02*
X49980D01*
X50017D02*
X50054D01*
X50686D02*
X50723D01*
X50798D02*
X51281D01*
X51504D02*
X51727D01*
X51950D02*
X51988D01*
X52136D02*
X52396D01*
X45109Y2519D02*
X45370D01*
X45741D02*
X45853D01*
X46076D02*
X46187D01*
X46931D02*
X47005D01*
X47786D02*
X47972D01*
X48641D02*
X48827D01*
X49422D02*
X49571D01*
X49868D02*
X49980D01*
X50017D02*
X50054D01*
X50686D02*
X50761D01*
X50835D02*
X51207D01*
X51430D02*
X51541D01*
X51579D02*
X51839D01*
X51913D02*
X52062D01*
X52099D02*
X52359D01*
X45704Y2482D02*
X45853D01*
X46113D02*
X46225D01*
X47823D02*
X47972D01*
X48678D02*
X48790D01*
X49385D02*
X49571D01*
X49868D02*
X49980D01*
X50017D02*
X50091D01*
X50686D02*
X50761D01*
X50835D02*
X51132D01*
X51355D02*
X51467D01*
X51579D02*
X51839D01*
X51876D02*
X52322D01*
X45704Y2444D02*
X45853D01*
X46113D02*
X46262D01*
X47340D02*
X47414D01*
X48307D02*
X48418D01*
X49348D02*
X49534D01*
X49831D02*
X49980D01*
X50017D02*
X50091D01*
X50723D02*
X50761D01*
X50835D02*
X51021D01*
X51318D02*
X51467D01*
X51579D02*
X51802D01*
X51876D02*
X52322D01*
X45667Y2407D02*
X45853D01*
X46150D02*
X46299D01*
X47303D02*
X47452D01*
X48270D02*
X48455D01*
X49273D02*
X49496D01*
X49831D02*
X49943D01*
X50017D02*
X50091D01*
X50723D02*
X50946D01*
X51244D02*
X51504D01*
X51616D02*
X51764D01*
X51876D02*
X52285D01*
X45667Y2370D02*
X45853D01*
X46187D02*
X46373D01*
X47266D02*
X47452D01*
X48270D02*
X48455D01*
X49199D02*
X49459D01*
X49794D02*
X49943D01*
X49980D02*
X50054D01*
X50761D02*
X50835D01*
X51170D02*
X51281D01*
X51355D02*
X51541D01*
X51616D02*
X51690D01*
X51876D02*
X52248D01*
X45667Y2333D02*
X45853D01*
X46225D02*
X46411D01*
X47266D02*
X47452D01*
X48270D02*
X48455D01*
X49125D02*
X49422D01*
X49757D02*
X49943D01*
X49980D02*
X50054D01*
X50761D02*
X50798D01*
X51095D02*
X51207D01*
X51355D02*
X51541D01*
X51839D02*
X52211D01*
X45667Y2296D02*
X45890D01*
X46262D02*
X46522D01*
X47266D02*
X47452D01*
X48270D02*
X48455D01*
X49050D02*
X49385D01*
X49720D02*
X49905D01*
X49980D02*
X50054D01*
X50798D02*
X50835D01*
X51021D02*
X51207D01*
X51355D02*
X51504D01*
X51802D02*
X52173D01*
X45667Y2258D02*
X45890D01*
X46299D02*
X46634D01*
X47340D02*
X47414D01*
X48939D02*
X49311D01*
X49682D02*
X49868D01*
X49943D02*
X50054D01*
X50835D02*
X51058D01*
X51095D02*
X51281D01*
X51690D02*
X52136D01*
X45667Y2221D02*
X45927D01*
X46373D02*
X46782D01*
X48790D02*
X49236D01*
X49645D02*
X49868D01*
X49943D02*
X50017D01*
X51095D02*
X51244D01*
X51579D02*
X52099D01*
X52322D02*
X52359D01*
X45667Y2184D02*
X45741D01*
X45778D02*
X45964D01*
X46485D02*
X46931D01*
X48604D02*
X49125D01*
X49571D02*
X49831D01*
X49905D02*
X50017D01*
X51021D02*
X51058D01*
X51467D02*
X52025D01*
X52248D02*
X52396D01*
X45704Y2147D02*
X45741D01*
X45816D02*
X46002D01*
X46559D02*
X47154D01*
X48381D02*
X49013D01*
X49534D02*
X49794D01*
X49868D02*
X49980D01*
X51021D02*
X51058D01*
X51355D02*
X51988D01*
X52248D02*
X52434D01*
X45704Y2110D02*
X45778D01*
X45816D02*
X46039D01*
X46745D02*
X47526D01*
X47972D02*
X48864D01*
X49459D02*
X49757D01*
X49831D02*
X49943D01*
X51058D02*
X51913D01*
X52211D02*
X52434D01*
X45741Y2073D02*
X45778D01*
X45853D02*
X46076D01*
X46894D02*
X48716D01*
X49385D02*
X49720D01*
X49794D02*
X49905D01*
X50761D02*
X50835D01*
X51095D02*
X51839D01*
X52173D02*
X52434D01*
X42618Y2035D02*
X42655D01*
X45741D02*
X45816D01*
X45890D02*
X46150D01*
X47117D02*
X48530D01*
X49273D02*
X49645D01*
X49757D02*
X49868D01*
X50723D02*
X50872D01*
X51132D02*
X51764D01*
X52173D02*
X52434D01*
X45778Y1998D02*
X45853D01*
X45927D02*
X46225D01*
X47377D02*
X48270D01*
X49199D02*
X49571D01*
X49720D02*
X49831D01*
X50723D02*
X50946D01*
X51170D02*
X51653D01*
X52173D02*
X52434D01*
X45816Y1961D02*
X45853D01*
X45964D02*
X46373D01*
X49087D02*
X49496D01*
X49645D02*
X49794D01*
X50723D02*
X50984D01*
X51207D02*
X51504D01*
X45853Y1924D02*
X45890D01*
X46002D02*
X46485D01*
X48939D02*
X49422D01*
X49571D02*
X49757D01*
X50723D02*
X50984D01*
X51653D02*
X51727D01*
X51950D02*
X52062D01*
X45927Y1887D02*
X45964D01*
X46113D02*
X46671D01*
X48790D02*
X49311D01*
X49459D02*
X49682D01*
X50761D02*
X50946D01*
X51504D02*
X51764D01*
X51950D02*
X52173D01*
X45964Y1849D02*
X46076D01*
X46225D02*
X46857D01*
X48604D02*
X49162D01*
X49348D02*
X49608D01*
X50761D02*
X50872D01*
X51467D02*
X51764D01*
X51950D02*
X52211D01*
X46076Y1812D02*
X46187D01*
X46373D02*
X47080D01*
X48381D02*
X49050D01*
X49236D02*
X49496D01*
X51467D02*
X51727D01*
X51950D02*
X52211D01*
X42655Y1775D02*
X42693D01*
X46187D02*
X46336D01*
X46522D02*
X47414D01*
X48046D02*
X48864D01*
X49087D02*
X49385D01*
X51504D02*
X51727D01*
X51950D02*
X52173D01*
X42655Y1738D02*
X42693D01*
X46336D02*
X46522D01*
X46708D02*
X48641D01*
X48864D02*
X49236D01*
X51541D02*
X51690D01*
X51988D02*
X52136D01*
X42655Y1701D02*
X42693D01*
X46448D02*
X46671D01*
X46968D02*
X48418D01*
X48641D02*
X49087D01*
X51579D02*
X51690D01*
X51988D02*
X52062D01*
X42098Y1664D02*
X42172D01*
X42655D02*
X42693D01*
X46634D02*
X46931D01*
X47340D02*
X48009D01*
X48381D02*
X48864D01*
X42135Y1626D02*
X42172D01*
X42655D02*
X42693D01*
X46857D02*
X47377D01*
X47675D02*
X48604D01*
X42655Y1589D02*
X42693D01*
X47154D02*
X48195D01*
X42655Y1552D02*
X42693D01*
X42655Y1515D02*
X42693D01*
X42135Y1478D02*
X42172D01*
X42655D02*
X42693D01*
X42655Y1440D02*
X42693D01*
X42023Y1403D02*
X42061D01*
X42655D02*
X42693D01*
D14*
X40465Y31141D02*
Y32559D01*
X39835D02*
X40465D01*
X39835Y31141D02*
X40465D01*
X39835D02*
Y32559D01*
X1165Y4491D02*
Y5909D01*
X535D02*
X1165D01*
X535Y4491D02*
X1165D01*
X535D02*
Y5909D01*
X22885Y31078D02*
Y32495D01*
Y31078D02*
X23515D01*
X22885Y32495D02*
X23515D01*
Y31078D02*
Y32495D01*
X21685Y31185D02*
Y32602D01*
Y31185D02*
X22315D01*
X21685Y32602D02*
X22315D01*
Y31185D02*
Y32602D01*
X20185Y31185D02*
Y32602D01*
Y31185D02*
X20815D01*
X20185Y32602D02*
X20815D01*
Y31185D02*
Y32602D01*
X18685Y31185D02*
Y32602D01*
Y31185D02*
X19315D01*
X18685Y32602D02*
X19315D01*
Y31185D02*
Y32602D01*
X17185Y31185D02*
Y32602D01*
Y31185D02*
X17815D01*
X17185Y32602D02*
X17815D01*
Y31185D02*
Y32602D01*
X15685Y31185D02*
Y32602D01*
Y31185D02*
X16315D01*
X15685Y32602D02*
X16315D01*
Y31185D02*
Y32602D01*
X12191Y28979D02*
X13609D01*
Y29609D01*
X12191Y28979D02*
Y29609D01*
X13609D01*
X12191Y27162D02*
X13609D01*
Y27792D01*
X12191Y27162D02*
Y27792D01*
X13609D01*
X12191Y25345D02*
X13609D01*
Y25975D01*
X12191Y25345D02*
Y25975D01*
X13609D01*
X12191Y23529D02*
X13609D01*
Y24159D01*
X12191Y23529D02*
Y24159D01*
X13609D01*
X21915Y11435D02*
Y12852D01*
X21285D02*
X21915D01*
X21285Y11435D02*
X21915D01*
X21285D02*
Y12852D01*
X23424Y11435D02*
Y12852D01*
X22794D02*
X23424D01*
X22794Y11435D02*
X23424D01*
X22794D02*
Y12852D01*
X24933Y11435D02*
Y12852D01*
X24303D02*
X24933D01*
X24303Y11435D02*
X24933D01*
X24303D02*
Y12852D01*
X26442Y11435D02*
Y12852D01*
X25812D02*
X26442D01*
X25812Y11435D02*
X26442D01*
X25812D02*
Y12852D01*
X27951Y11435D02*
Y12852D01*
X27321D02*
X27951D01*
X27321Y11435D02*
X27951D01*
X27321D02*
Y12852D01*
X29460Y11435D02*
Y12852D01*
X28830D02*
X29460D01*
X28830Y11435D02*
X29460D01*
X28830D02*
Y12852D01*
X30970Y11435D02*
Y12852D01*
X30340D02*
X30970D01*
X30340Y11435D02*
X30970D01*
X30340D02*
Y12852D01*
X32479Y11435D02*
Y12852D01*
X31849D02*
X32479D01*
X31849Y11435D02*
X32479D01*
X31849D02*
Y12852D01*
X33988Y11435D02*
Y12852D01*
X33358D02*
X33988D01*
X33358Y11435D02*
X33988D01*
X33358D02*
Y12852D01*
X35497Y11435D02*
Y12852D01*
X34867D02*
X35497D01*
X34867Y11435D02*
X35497D01*
X34867D02*
Y12852D01*
X37006Y11435D02*
Y12852D01*
X36376D02*
X37006D01*
X36376Y11435D02*
X37006D01*
X36376D02*
Y12852D01*
X38515Y11435D02*
Y12852D01*
X37885D02*
X38515D01*
X37885Y11435D02*
X38515D01*
X37885D02*
Y12852D01*
X46885Y23359D02*
X48302D01*
X46885Y22729D02*
Y23359D01*
X48302Y22729D02*
Y23359D01*
X46885Y22729D02*
X48302D01*
X46885Y25492D02*
X48302D01*
X46885Y24862D02*
Y25492D01*
X48302Y24862D02*
Y25492D01*
X46885Y24862D02*
X48302D01*
X46885Y26995D02*
X48302D01*
Y27625D01*
X46885Y26995D02*
Y27625D01*
X48302D01*
X46885Y29759D02*
X48302D01*
X46885Y29129D02*
Y29759D01*
X48302Y29129D02*
Y29759D01*
X46885Y29129D02*
X48302D01*
X42585Y31191D02*
Y32609D01*
Y31191D02*
X43215D01*
X42585Y32609D02*
X43215D01*
Y31191D02*
Y32609D01*
X41235Y31191D02*
Y32609D01*
Y31191D02*
X41865D01*
X41235Y32609D02*
X41865D01*
Y31191D02*
Y32609D01*
X38385Y31141D02*
Y32559D01*
Y31141D02*
X39015D01*
X38385Y32559D02*
X39015D01*
Y31141D02*
Y32559D01*
X36835Y31091D02*
Y32509D01*
Y31091D02*
X37465D01*
X36835Y32509D02*
X37465D01*
Y31091D02*
Y32509D01*
X35335Y31141D02*
Y32559D01*
Y31141D02*
X35965D01*
X35335Y32559D02*
X35965D01*
Y31141D02*
Y32559D01*
X2376Y18850D02*
X2357Y18888D01*
X2300Y18945D01*
X2700D01*
D15*
X17650Y26041D02*
X42847D01*
X14500Y15805D02*
Y29978D01*
X17650Y19742D02*
Y26041D01*
X14500Y15805D02*
X45996D01*
X17650Y19742D02*
X42847D01*
X14500Y29978D02*
X45996D01*
X42847Y19742D02*
Y26041D01*
X45996Y15805D02*
Y29978D01*
X37650Y24150D02*
X37700Y16850D01*
X20850Y24150D02*
X37650D01*
X20800Y16817D02*
X37600D01*
X20850Y16850D02*
Y24150D01*
D16*
X8500Y5305D02*
X9300D01*
X8500Y5105D02*
Y5305D01*
Y5105D02*
X9300D01*
Y5305D01*
X8500Y5455D02*
X9300D01*
X8500Y4955D02*
X9300D01*
X8900Y4655D02*
Y4955D01*
Y5455D02*
Y5755D01*
M02*
