G04*
G04 #@! TF.GenerationSoftware,Altium Limited,Altium Designer,21.2.1 (34)*
G04*
G04 Layer_Color=8388736*
%FSLAX24Y24*%
%MOIN*%
G70*
G04*
G04 #@! TF.SameCoordinates,E21C5DDE-85CC-462C-932C-37DFDCE46009*
G04*
G04*
G04 #@! TF.FilePolarity,Negative*
G04*
G01*
G75*
%ADD19R,0.0474X0.0474*%
%ADD20R,0.0474X0.0474*%
%ADD21R,0.0710X0.0434*%
%ADD22O,0.0710X0.0434*%
%ADD23R,0.0671X0.0671*%
%ADD24C,0.0671*%
%ADD25R,0.0749X0.0749*%
%ADD26C,0.0749*%
%ADD27R,0.0671X0.0671*%
%ADD28O,0.0434X0.0356*%
%ADD29C,0.0710*%
%ADD30R,0.0749X0.0749*%
%ADD31P,0.1060X4X75.0*%
%ADD32P,0.1060X4X95.0*%
%ADD33P,0.1060X4X265.0*%
%ADD34P,0.1060X4X185.0*%
%ADD35C,0.0690*%
%ADD36R,0.0690X0.0690*%
%ADD37C,0.0592*%
%ADD38R,0.0880X0.0580*%
%ADD39O,0.0880X0.0580*%
%ADD40P,0.1060X4X155.0*%
%ADD41P,0.1060X4X160.0*%
%ADD42P,0.1060X4X175.0*%
%ADD43P,0.1060X4X195.0*%
%ADD44P,0.1060X4X290.0*%
%ADD45P,0.1060X4X295.0*%
%ADD46C,0.0680*%
%ADD47C,0.0380*%
D19*
X40150Y32244D02*
D03*
Y31456D02*
D03*
X850Y5594D02*
D03*
Y4806D02*
D03*
X23200Y31393D02*
D03*
Y32180D02*
D03*
X22000Y31500D02*
D03*
Y32287D02*
D03*
X20500Y31500D02*
D03*
Y32287D02*
D03*
X19000Y31500D02*
D03*
Y32287D02*
D03*
X17500Y31500D02*
D03*
Y32287D02*
D03*
X16000Y31500D02*
D03*
Y32287D02*
D03*
X21600Y12537D02*
D03*
Y11750D02*
D03*
X23109Y12537D02*
D03*
Y11750D02*
D03*
X24618Y12537D02*
D03*
Y11750D02*
D03*
X26127Y12537D02*
D03*
Y11750D02*
D03*
X27636Y12537D02*
D03*
Y11750D02*
D03*
X29145Y12537D02*
D03*
Y11750D02*
D03*
X30655Y12537D02*
D03*
Y11750D02*
D03*
X32164Y12537D02*
D03*
Y11750D02*
D03*
X33673Y12537D02*
D03*
Y11750D02*
D03*
X35182Y12537D02*
D03*
Y11750D02*
D03*
X36691Y12537D02*
D03*
Y11750D02*
D03*
X38200Y12537D02*
D03*
Y11750D02*
D03*
X42900Y31506D02*
D03*
Y32294D02*
D03*
X41550Y31506D02*
D03*
Y32294D02*
D03*
X38700Y31456D02*
D03*
Y32244D02*
D03*
X37150Y31406D02*
D03*
Y32194D02*
D03*
X35650Y31456D02*
D03*
Y32244D02*
D03*
D20*
X13294Y29294D02*
D03*
X12506D02*
D03*
X13294Y27477D02*
D03*
X12506D02*
D03*
X13294Y25660D02*
D03*
X12506D02*
D03*
X13294Y23844D02*
D03*
X12506D02*
D03*
X47200Y23044D02*
D03*
X47987D02*
D03*
X47200Y25177D02*
D03*
X47987D02*
D03*
Y27310D02*
D03*
X47200D02*
D03*
Y29444D02*
D03*
X47987D02*
D03*
D21*
X13250Y10700D02*
D03*
D22*
X13900Y10200D02*
D03*
X13250Y9700D02*
D03*
D23*
X11838Y37850D02*
D03*
D24*
X10838D02*
D03*
X9838D02*
D03*
X8838D02*
D03*
X7838D02*
D03*
X6838D02*
D03*
X5838D02*
D03*
X4838D02*
D03*
X2500Y20350D02*
D03*
Y21350D02*
D03*
Y22350D02*
D03*
Y23350D02*
D03*
Y24350D02*
D03*
Y25350D02*
D03*
Y26350D02*
D03*
Y27350D02*
D03*
Y28350D02*
D03*
Y29350D02*
D03*
Y30350D02*
D03*
Y31350D02*
D03*
Y32350D02*
D03*
Y33350D02*
D03*
Y34350D02*
D03*
X52074Y5296D02*
D03*
Y11989D02*
D03*
X58570Y13760D02*
D03*
Y4509D02*
D03*
D25*
X9650Y28894D02*
D03*
X52950Y29800D02*
D03*
X9750Y25094D02*
D03*
X50700Y24894D02*
D03*
X50750Y28794D02*
D03*
D26*
X10650Y28894D02*
D03*
X52950Y31800D02*
D03*
Y30800D02*
D03*
X10750Y25094D02*
D03*
X20000Y36800D02*
D03*
X13700Y34817D02*
D03*
X11633Y32229D02*
D03*
X44850Y13994D02*
D03*
X19650Y28994D02*
D03*
X18650D02*
D03*
X21650D02*
D03*
X22650D02*
D03*
X20650D02*
D03*
X30650D02*
D03*
X31650D02*
D03*
X32650D02*
D03*
X25650D02*
D03*
X23650D02*
D03*
X24650D02*
D03*
X28650D02*
D03*
X29650D02*
D03*
X26650D02*
D03*
X27650D02*
D03*
X11560Y21482D02*
D03*
X41479Y10983D02*
D03*
X22171Y8433D02*
D03*
X28950Y32194D02*
D03*
X26150Y34600D02*
D03*
X23150Y35850D02*
D03*
X16600Y36300D02*
D03*
X13100Y17494D02*
D03*
X16200Y14050D02*
D03*
X19033Y11071D02*
D03*
X25250Y6177D02*
D03*
X28900Y4144D02*
D03*
X31600D02*
D03*
X34900Y6083D02*
D03*
X38479Y8333D02*
D03*
X47350Y16944D02*
D03*
X48780Y20965D02*
D03*
X49700Y24894D02*
D03*
X49750Y28794D02*
D03*
X48817Y32529D02*
D03*
X46450Y34717D02*
D03*
X43900Y36100D02*
D03*
X40700Y36850D02*
D03*
X37550Y35800D02*
D03*
X34500Y34400D02*
D03*
X31500Y32194D02*
D03*
X26750Y23150D02*
D03*
X27750D02*
D03*
X28750D02*
D03*
X25750D02*
D03*
X22750D02*
D03*
X23750D02*
D03*
X24750D02*
D03*
X29750D02*
D03*
X34750D02*
D03*
X35750D02*
D03*
X33750D02*
D03*
X30750D02*
D03*
X31750D02*
D03*
X32750D02*
D03*
X36750D02*
D03*
X21750Y18575D02*
D03*
Y21575D02*
D03*
Y20575D02*
D03*
Y19575D02*
D03*
D27*
X2500Y19350D02*
D03*
D28*
X20500Y1300D02*
D03*
Y1800D02*
D03*
D29*
X20850Y4181D02*
D03*
Y3000D02*
D03*
X22700Y4181D02*
D03*
Y3000D02*
D03*
X12632Y6145D02*
D03*
X11451D02*
D03*
X12631Y4150D02*
D03*
X11450D02*
D03*
D30*
X20000Y37800D02*
D03*
X17650Y28994D02*
D03*
X28950Y33194D02*
D03*
X26150Y35600D02*
D03*
X23150Y36850D02*
D03*
X16600Y37300D02*
D03*
X28900Y3144D02*
D03*
X31600D02*
D03*
X43900Y37100D02*
D03*
X40700Y37850D02*
D03*
X37550Y36800D02*
D03*
X34500Y35400D02*
D03*
X31500Y33194D02*
D03*
X21750Y23150D02*
D03*
D31*
X13200Y35683D02*
D03*
X35400Y5217D02*
D03*
D32*
X10867Y32871D02*
D03*
X45616Y13351D02*
D03*
D33*
X42121Y10217D02*
D03*
X39121Y7567D02*
D03*
D34*
X21529Y7667D02*
D03*
D35*
X2450Y14741D02*
D03*
Y15740D02*
D03*
Y13742D02*
D03*
X5457Y9746D02*
D03*
Y10745D02*
D03*
Y11744D02*
D03*
Y12743D02*
D03*
Y13742D02*
D03*
Y14741D02*
D03*
Y15740D02*
D03*
X5453Y16739D02*
D03*
X2450Y9746D02*
D03*
Y10745D02*
D03*
Y11744D02*
D03*
Y12743D02*
D03*
Y5750D02*
D03*
Y6749D02*
D03*
Y7748D02*
D03*
Y8747D02*
D03*
X5457Y4751D02*
D03*
Y3737D02*
D03*
X2461D02*
D03*
X2450Y4751D02*
D03*
X5457Y8747D02*
D03*
Y7748D02*
D03*
Y6749D02*
D03*
Y5750D02*
D03*
D36*
X2461Y16739D02*
D03*
D37*
X8900Y6150D02*
D03*
Y4260D02*
D03*
D38*
X18850Y3900D02*
D03*
D39*
Y4900D02*
D03*
Y5900D02*
D03*
Y6900D02*
D03*
X15850Y3900D02*
D03*
Y4900D02*
D03*
Y5900D02*
D03*
Y6900D02*
D03*
D40*
X10620Y21140D02*
D03*
D41*
X12194Y17071D02*
D03*
D42*
X15434Y13407D02*
D03*
X18267Y10429D02*
D03*
X49583Y33171D02*
D03*
D43*
X24750Y5311D02*
D03*
X46950Y35583D02*
D03*
D44*
X48256Y16521D02*
D03*
D45*
X49720Y20623D02*
D03*
D46*
X57387Y1906D02*
D03*
Y37339D02*
D03*
X2269Y1906D02*
D03*
Y37339D02*
D03*
D47*
X17350Y9700D02*
D03*
X15370D02*
D03*
X17350Y11680D02*
D03*
X54820Y22710D02*
D03*
X38580Y11750D02*
D03*
X37151Y11290D02*
D03*
X35949Y10983D02*
D03*
X23940Y11071D02*
D03*
X850Y10360D02*
D03*
X15434Y10429D02*
D03*
X54200Y29050D02*
D03*
M02*
