G04*
G04 #@! TF.GenerationSoftware,Altium Limited,Altium Designer,21.2.1 (34)*
G04*
G04 Layer_Physical_Order=2*
G04 Layer_Color=16711680*
%FSLAX24Y24*%
%MOIN*%
G70*
G04*
G04 #@! TF.SameCoordinates,E21C5DDE-85CC-462C-932C-37DFDCE46009*
G04*
G04*
G04 #@! TF.FilePolarity,Positive*
G04*
G01*
G75*
%ADD10C,0.0100*%
%ADD17R,0.0394X0.0394*%
%ADD48C,0.0150*%
%ADD49C,0.0250*%
%ADD50R,0.0630X0.0354*%
%ADD51O,0.0630X0.0354*%
%ADD52R,0.0591X0.0591*%
%ADD53C,0.0591*%
%ADD54R,0.0669X0.0669*%
%ADD55C,0.0669*%
%ADD56R,0.0591X0.0591*%
%ADD57O,0.0354X0.0276*%
%ADD58C,0.0630*%
%ADD59R,0.0669X0.0669*%
%ADD60P,0.0947X4X75.0*%
%ADD61P,0.0947X4X95.0*%
%ADD62P,0.0947X4X265.0*%
%ADD63P,0.0947X4X185.0*%
%ADD64C,0.0610*%
%ADD65R,0.0610X0.0610*%
%ADD66C,0.0512*%
%ADD67R,0.0800X0.0500*%
%ADD68O,0.0800X0.0500*%
%ADD69P,0.0947X4X155.0*%
%ADD70P,0.0947X4X160.0*%
%ADD71P,0.0947X4X175.0*%
%ADD72P,0.0947X4X195.0*%
%ADD73P,0.0947X4X290.0*%
%ADD74P,0.0947X4X295.0*%
%ADD75C,0.0600*%
%ADD76C,0.0300*%
%ADD77R,0.1969X0.1969*%
%ADD78R,0.1181X0.1181*%
%ADD79R,0.1378X0.1181*%
G36*
X58694Y39250D02*
X58720Y39247D01*
X58793Y39217D01*
X58855Y39169D01*
X58903Y39106D01*
X58933Y39034D01*
X58943Y38956D01*
X58943Y38956D01*
X58943D01*
X58944Y38955D01*
X58944Y38937D01*
X58942Y38890D01*
X58942Y38890D01*
X58941Y38890D01*
X58942Y38890D01*
X58943Y36114D01*
X58935Y13940D01*
X58885Y13926D01*
X58855Y13979D01*
X58788Y14045D01*
X58707Y14092D01*
X58617Y14116D01*
X58524D01*
X58434Y14092D01*
X58018Y14508D01*
Y18203D01*
X58531D01*
Y19504D01*
X57229D01*
Y18203D01*
X57742D01*
Y14451D01*
X57753Y14398D01*
X57783Y14353D01*
X58239Y13897D01*
X58215Y13807D01*
Y13714D01*
X58239Y13623D01*
X58286Y13542D01*
X58352Y13476D01*
X58433Y13429D01*
X58524Y13405D01*
X58617D01*
X58707Y13429D01*
X58788Y13476D01*
X58855Y13542D01*
X58885Y13595D01*
X58935Y13581D01*
X58932Y4763D01*
X58931Y4763D01*
X58882Y4756D01*
X58813Y4825D01*
X58723Y4877D01*
X58622Y4904D01*
X58620D01*
Y4509D01*
Y4113D01*
X58622D01*
X58723Y4140D01*
X58813Y4192D01*
X58881Y4261D01*
X58931Y4253D01*
X58930Y353D01*
X58929Y352D01*
X58929Y352D01*
X58929Y348D01*
X58920Y277D01*
X58892Y211D01*
X58849Y154D01*
X58792Y110D01*
X58726Y83D01*
X58658Y74D01*
X58658Y74D01*
Y74D01*
X58657Y73D01*
X378Y71D01*
X377Y73D01*
Y73D01*
X377Y73D01*
X311Y81D01*
X243Y109D01*
X185Y154D01*
X141Y212D01*
X112Y280D01*
X108Y312D01*
X104Y360D01*
X104D01*
X102Y409D01*
X102Y38901D01*
X104Y38950D01*
D01*
X106Y38998D01*
X112Y39041D01*
X124Y39069D01*
X147Y39110D01*
X191Y39160D01*
X243Y39200D01*
X303Y39230D01*
X367Y39248D01*
X400Y39250D01*
X400Y39250D01*
X58694Y39250D01*
D02*
G37*
%LPC*%
G36*
X9075Y38428D02*
X5278D01*
X5226Y38417D01*
X5181Y38387D01*
X4975Y38181D01*
X4885Y38205D01*
X4791D01*
X4701Y38181D01*
X4620Y38134D01*
X4554Y38068D01*
X4507Y37987D01*
X4483Y37897D01*
Y37803D01*
X4507Y37713D01*
X4554Y37632D01*
X4620Y37566D01*
X4701Y37519D01*
X4791Y37495D01*
X4885D01*
X4975Y37519D01*
X5056Y37566D01*
X5122Y37632D01*
X5169Y37713D01*
X5193Y37803D01*
Y37897D01*
X5169Y37987D01*
X5335Y38152D01*
X5567D01*
X5588Y38102D01*
X5554Y38068D01*
X5507Y37987D01*
X5483Y37897D01*
Y37803D01*
X5507Y37713D01*
X5554Y37632D01*
X5620Y37566D01*
X5701Y37519D01*
X5791Y37495D01*
X5885D01*
X5975Y37519D01*
X6056Y37566D01*
X6122Y37632D01*
X6169Y37713D01*
X6193Y37803D01*
Y37897D01*
X6169Y37987D01*
X6122Y38068D01*
X6088Y38102D01*
X6109Y38152D01*
X6567D01*
X6588Y38102D01*
X6554Y38068D01*
X6507Y37987D01*
X6483Y37897D01*
Y37803D01*
X6507Y37713D01*
X6554Y37632D01*
X6620Y37566D01*
X6701Y37519D01*
X6791Y37495D01*
X6885D01*
X6975Y37519D01*
X7056Y37566D01*
X7122Y37632D01*
X7169Y37713D01*
X7193Y37803D01*
Y37897D01*
X7169Y37987D01*
X7122Y38068D01*
X7088Y38102D01*
X7109Y38152D01*
X7516D01*
X7535Y38106D01*
X7522Y38093D01*
X7470Y38003D01*
X7443Y37902D01*
Y37900D01*
X7838D01*
X8233D01*
Y37902D01*
X8207Y38003D01*
X8154Y38093D01*
X8141Y38106D01*
X8160Y38152D01*
X8567D01*
X8588Y38102D01*
X8554Y38068D01*
X8507Y37987D01*
X8483Y37897D01*
Y37803D01*
X8507Y37713D01*
X7603Y36809D01*
X7573Y36765D01*
X7562Y36712D01*
Y19651D01*
X7443D01*
Y19488D01*
X2855D01*
Y19682D01*
X3230D01*
X3283Y19693D01*
X3327Y19723D01*
X3457Y19853D01*
X3487Y19897D01*
X3498Y19950D01*
X3498Y19950D01*
Y32490D01*
X3498Y32490D01*
X3487Y32543D01*
X3457Y32587D01*
X3457Y32587D01*
X2831Y33213D01*
X2855Y33303D01*
Y33397D01*
X2831Y33487D01*
X2784Y33568D01*
X2718Y33634D01*
X2637Y33681D01*
X2547Y33705D01*
X2453D01*
X2363Y33681D01*
X2282Y33634D01*
X2216Y33568D01*
X2169Y33487D01*
X2145Y33397D01*
Y33303D01*
X2169Y33213D01*
X2216Y33132D01*
X2282Y33066D01*
X2363Y33019D01*
X2453Y32995D01*
X2547D01*
X2637Y33019D01*
X3222Y32433D01*
Y31888D01*
X3176Y31869D01*
X2831Y32213D01*
X2855Y32303D01*
Y32397D01*
X2831Y32487D01*
X2784Y32568D01*
X2718Y32634D01*
X2637Y32681D01*
X2547Y32705D01*
X2453D01*
X2363Y32681D01*
X2282Y32634D01*
X2216Y32568D01*
X2169Y32487D01*
X2145Y32397D01*
Y32303D01*
X2169Y32213D01*
X2216Y32132D01*
X2282Y32066D01*
X2363Y32019D01*
X2453Y31995D01*
X2547D01*
X2637Y32019D01*
X3003Y31653D01*
Y23332D01*
X2883Y23212D01*
X2838Y23238D01*
X2855Y23303D01*
Y23397D01*
X2831Y23487D01*
X2784Y23568D01*
X2718Y23634D01*
X2637Y23681D01*
X2547Y23705D01*
X2453D01*
X2363Y23681D01*
X2282Y23634D01*
X2216Y23568D01*
X2169Y23487D01*
X2145Y23397D01*
Y23303D01*
X2169Y23213D01*
X2216Y23132D01*
X2250Y23098D01*
X2229Y23048D01*
X2011D01*
X2011Y23048D01*
X1959Y23037D01*
X1914Y23007D01*
X1503Y22596D01*
X1473Y22551D01*
X1462Y22499D01*
Y14592D01*
X1473Y14540D01*
X1503Y14495D01*
X2112Y13886D01*
X2110Y13883D01*
X2085Y13790D01*
Y13694D01*
X2110Y13601D01*
X2158Y13518D01*
X2226Y13450D01*
X2309Y13402D01*
X2402Y13377D01*
X2498D01*
X2591Y13402D01*
X2674Y13450D01*
X2742Y13518D01*
X2790Y13601D01*
X2815Y13694D01*
Y13790D01*
X2790Y13883D01*
X2742Y13966D01*
X2674Y14034D01*
X2591Y14082D01*
X2498Y14107D01*
X2402D01*
X2309Y14082D01*
X2306Y14081D01*
X1738Y14649D01*
Y15322D01*
X1784Y15342D01*
X2041Y15084D01*
X2041Y15084D01*
X2086Y15054D01*
X2139Y15044D01*
X2165D01*
X2186Y14994D01*
X2158Y14965D01*
X2110Y14882D01*
X2085Y14789D01*
Y14693D01*
X2110Y14600D01*
X2158Y14517D01*
X2226Y14449D01*
X2309Y14401D01*
X2402Y14376D01*
X2498D01*
X2591Y14401D01*
X2674Y14449D01*
X2742Y14517D01*
X2790Y14600D01*
X2815Y14693D01*
Y14789D01*
X2811Y14805D01*
X2856Y14831D01*
X2962Y14724D01*
Y13450D01*
X2594Y13082D01*
X2591Y13083D01*
X2498Y13108D01*
X2402D01*
X2309Y13083D01*
X2226Y13035D01*
X2158Y12967D01*
X2110Y12884D01*
X2085Y12791D01*
Y12695D01*
X2110Y12602D01*
X2158Y12519D01*
X2189Y12488D01*
X2169Y12438D01*
X1970D01*
X1917Y12427D01*
X1873Y12397D01*
X534Y11058D01*
X488Y11078D01*
Y22143D01*
X2363Y24019D01*
X2453Y23995D01*
X2547D01*
X2637Y24019D01*
X2718Y24066D01*
X2784Y24132D01*
X2831Y24213D01*
X2855Y24303D01*
Y24397D01*
X2831Y24487D01*
X2784Y24568D01*
X2718Y24634D01*
X2637Y24681D01*
X2547Y24705D01*
X2453D01*
X2363Y24681D01*
X2282Y24634D01*
X2216Y24568D01*
X2169Y24487D01*
X2145Y24397D01*
Y24303D01*
X2169Y24213D01*
X253Y22297D01*
X223Y22253D01*
X212Y22200D01*
Y8849D01*
X223Y8796D01*
X253Y8752D01*
X2112Y6893D01*
X2110Y6890D01*
X2085Y6797D01*
Y6701D01*
X2110Y6608D01*
X2158Y6525D01*
X2226Y6457D01*
X2309Y6409D01*
X2402Y6384D01*
X2498D01*
X2591Y6409D01*
X2674Y6457D01*
X2742Y6525D01*
X2790Y6608D01*
X2815Y6701D01*
Y6797D01*
X2790Y6890D01*
X2742Y6973D01*
X2674Y7041D01*
X2591Y7089D01*
X2498Y7114D01*
X2402D01*
X2309Y7089D01*
X2306Y7087D01*
X488Y8906D01*
Y9862D01*
X534Y9882D01*
X603Y9813D01*
X647Y9783D01*
X700Y9772D01*
X1460D01*
X1513Y9783D01*
X1557Y9813D01*
X1857Y10112D01*
X2182D01*
X2193Y10062D01*
X2126Y9995D01*
X2073Y9902D01*
X2045Y9799D01*
Y9796D01*
X2450D01*
X2855D01*
Y9799D01*
X2827Y9902D01*
X2774Y9995D01*
X2707Y10062D01*
X2718Y10112D01*
X2898D01*
X5119Y7892D01*
X5117Y7889D01*
X5092Y7796D01*
Y7700D01*
X5117Y7607D01*
X5165Y7524D01*
X5233Y7456D01*
X5316Y7408D01*
X5409Y7383D01*
X5505D01*
X5598Y7408D01*
X5681Y7456D01*
X5749Y7524D01*
X5797Y7607D01*
X5822Y7700D01*
Y7796D01*
X5797Y7889D01*
X5749Y7972D01*
X5681Y8040D01*
X5598Y8088D01*
X5505Y8113D01*
X5409D01*
X5316Y8088D01*
X5313Y8087D01*
X3053Y10347D01*
X3008Y10377D01*
X2955Y10388D01*
X2661D01*
X2647Y10438D01*
X2674Y10453D01*
X2742Y10521D01*
X2790Y10604D01*
X2791Y10608D01*
X3402D01*
X5119Y8891D01*
X5117Y8888D01*
X5092Y8795D01*
Y8699D01*
X5117Y8606D01*
X5165Y8523D01*
X5233Y8455D01*
X5316Y8407D01*
X5409Y8382D01*
X5505D01*
X5598Y8407D01*
X5681Y8455D01*
X5749Y8523D01*
X5797Y8606D01*
X5822Y8699D01*
Y8795D01*
X5797Y8888D01*
X5796Y8891D01*
X6467Y9562D01*
X12919D01*
X12941Y9529D01*
X13020Y9477D01*
X13112Y9458D01*
X13388D01*
X13480Y9477D01*
X13559Y9529D01*
X13581Y9562D01*
X17191D01*
X17231Y9522D01*
X17308Y9490D01*
X17392D01*
X17469Y9522D01*
X17528Y9581D01*
X17560Y9658D01*
Y9742D01*
X17528Y9819D01*
X17469Y9878D01*
X17392Y9910D01*
X17308D01*
X17231Y9878D01*
X17191Y9838D01*
X13581D01*
X13559Y9871D01*
X13480Y9923D01*
X13388Y9942D01*
X13112D01*
X13020Y9923D01*
X12941Y9871D01*
X12919Y9838D01*
X6410D01*
X6410Y9838D01*
X6357Y9827D01*
X6313Y9797D01*
X5601Y9086D01*
X5598Y9087D01*
X5505Y9112D01*
X5409D01*
X5316Y9087D01*
X5313Y9086D01*
X4383Y10016D01*
X4402Y10062D01*
X5186D01*
X5207Y10012D01*
X5165Y9970D01*
X5117Y9887D01*
X5092Y9794D01*
Y9698D01*
X5117Y9605D01*
X5165Y9522D01*
X5233Y9454D01*
X5316Y9406D01*
X5409Y9381D01*
X5505D01*
X5598Y9406D01*
X5681Y9454D01*
X5749Y9522D01*
X5797Y9605D01*
X5822Y9698D01*
Y9794D01*
X5797Y9887D01*
X5749Y9970D01*
X5707Y10012D01*
X5728Y10062D01*
X13569D01*
X13591Y10029D01*
X13670Y9977D01*
X13762Y9958D01*
X14038D01*
X14130Y9977D01*
X14209Y10029D01*
X14261Y10107D01*
X14280Y10200D01*
X14261Y10293D01*
X14209Y10371D01*
X14130Y10423D01*
X14038Y10442D01*
X13762D01*
X13670Y10423D01*
X13591Y10371D01*
X13569Y10338D01*
X5661D01*
X5648Y10388D01*
X5706Y10421D01*
X5781Y10497D01*
X5835Y10589D01*
X5862Y10692D01*
Y10695D01*
X5457D01*
X5052D01*
Y10692D01*
X5080Y10589D01*
X5133Y10497D01*
X5209Y10421D01*
X5267Y10388D01*
X5253Y10338D01*
X4367D01*
X3417Y11287D01*
X3373Y11317D01*
X3320Y11328D01*
X1680D01*
X1627Y11317D01*
X1583Y11287D01*
X865Y10570D01*
X808D01*
X748Y10545D01*
X698Y10570D01*
Y10833D01*
X2027Y12162D01*
X3160D01*
X3213Y12173D01*
X3257Y12203D01*
X3407Y12353D01*
X3437Y12397D01*
X3448Y12450D01*
Y16075D01*
X3437Y16128D01*
X3407Y16172D01*
X3252Y16327D01*
X3208Y16357D01*
X3155Y16368D01*
X2873D01*
X2826Y16374D01*
Y16910D01*
X4385Y18469D01*
X7443D01*
Y18349D01*
X7957D01*
Y18668D01*
X8276Y18988D01*
X8322Y18969D01*
Y18252D01*
X8268Y18198D01*
X5200D01*
X5200Y18198D01*
X5147Y18187D01*
X5103Y18157D01*
X5103Y18157D01*
X4913Y17967D01*
X4883Y17923D01*
X4872Y17870D01*
Y14189D01*
X4883Y14137D01*
X4913Y14092D01*
X5119Y13886D01*
X5117Y13883D01*
X5092Y13790D01*
Y13694D01*
X5117Y13601D01*
X5165Y13518D01*
X5233Y13450D01*
X5316Y13402D01*
X5409Y13377D01*
X5505D01*
X5598Y13402D01*
X5681Y13450D01*
X5749Y13518D01*
X5797Y13601D01*
X5822Y13694D01*
Y13790D01*
X5797Y13883D01*
X5749Y13966D01*
X5681Y14034D01*
X5598Y14082D01*
X5505Y14107D01*
X5409D01*
X5316Y14082D01*
X5313Y14081D01*
X5148Y14247D01*
Y14464D01*
X5198Y14485D01*
X5233Y14449D01*
X5316Y14401D01*
X5409Y14376D01*
X5505D01*
X5598Y14401D01*
X5681Y14449D01*
X5749Y14517D01*
X5797Y14600D01*
X5822Y14693D01*
Y14789D01*
X5797Y14882D01*
X5749Y14965D01*
X5681Y15033D01*
X5598Y15081D01*
X5505Y15106D01*
X5409D01*
X5316Y15081D01*
X5233Y15033D01*
X5198Y14998D01*
X5148Y15019D01*
Y15463D01*
X5198Y15484D01*
X5233Y15448D01*
X5316Y15400D01*
X5409Y15375D01*
X5505D01*
X5598Y15400D01*
X5681Y15448D01*
X5749Y15516D01*
X5797Y15599D01*
X5798Y15603D01*
X19860D01*
X19913Y15613D01*
X19958Y15643D01*
X22246Y17931D01*
X22292Y17912D01*
Y16817D01*
X17365Y11890D01*
X17308D01*
X17231Y11858D01*
X17172Y11799D01*
X17140Y11722D01*
Y11638D01*
X17172Y11561D01*
X17231Y11502D01*
X17308Y11470D01*
X17392D01*
X17469Y11502D01*
X17528Y11561D01*
X17560Y11638D01*
Y11695D01*
X22527Y16663D01*
X22557Y16707D01*
X22568Y16760D01*
Y19895D01*
X22557Y19948D01*
X22527Y19993D01*
X22110Y20410D01*
X22118Y20423D01*
X22145Y20523D01*
Y20627D01*
X22118Y20728D01*
X22110Y20741D01*
X22712Y21342D01*
X48546D01*
X48557Y21292D01*
X48487Y21234D01*
X48427Y21149D01*
X48392Y21051D01*
X48382Y20947D01*
X48401Y20845D01*
X48444Y20751D01*
X48511Y20671D01*
X48596Y20612D01*
X48694Y20576D01*
X48798Y20567D01*
X48900Y20585D01*
X48994Y20629D01*
X49074Y20696D01*
X49133Y20781D01*
X49169Y20879D01*
X49178Y20982D01*
X49160Y21084D01*
X49116Y21179D01*
X49049Y21258D01*
X49000Y21292D01*
X49016Y21342D01*
X55203D01*
X55231Y21304D01*
Y20003D01*
X56729D01*
Y21304D01*
X56118D01*
Y21831D01*
X57183Y22897D01*
X57229Y22877D01*
Y21703D01*
X58531D01*
Y23004D01*
X57356D01*
X57337Y23050D01*
X57414Y23127D01*
X58521D01*
Y24234D01*
X58737Y24451D01*
X58737Y24451D01*
X58767Y24495D01*
X58778Y24548D01*
Y27911D01*
X58767Y27964D01*
X58737Y28008D01*
X58737Y28008D01*
X58521Y28225D01*
Y29332D01*
X57219D01*
Y28819D01*
X54321D01*
X54311Y28869D01*
X54319Y28872D01*
X54378Y28931D01*
X54410Y29008D01*
Y29065D01*
X55189Y29844D01*
X55221Y29831D01*
Y29831D01*
X56719D01*
Y31132D01*
X55221D01*
Y30266D01*
X54215Y29260D01*
X54158D01*
X54081Y29228D01*
X54022Y29169D01*
X53990Y29092D01*
Y29025D01*
X53943Y29002D01*
X53345Y29600D01*
Y30195D01*
X52555D01*
Y29405D01*
X53150D01*
X53972Y28584D01*
X53972Y28584D01*
X54016Y28554D01*
X54069Y28543D01*
X54069Y28543D01*
X57219D01*
Y28031D01*
X58326D01*
X58382Y27975D01*
X58363Y27929D01*
X57219D01*
Y26627D01*
X58502D01*
Y25910D01*
X57840D01*
Y25190D01*
X58502D01*
Y24605D01*
X58326Y24429D01*
X57219D01*
Y23322D01*
X55883Y21985D01*
X55883Y21985D01*
X55515Y21618D01*
X22655D01*
X22602Y21607D01*
X22557Y21577D01*
X22557Y21577D01*
X21915Y20935D01*
X21902Y20943D01*
X21802Y20970D01*
X21698D01*
X21598Y20943D01*
X21508Y20891D01*
X21434Y20818D01*
X21382Y20728D01*
X21355Y20627D01*
Y20523D01*
X21382Y20423D01*
X21434Y20333D01*
X21508Y20259D01*
X21598Y20207D01*
X21698Y20181D01*
X21802D01*
X21902Y20207D01*
X21915Y20215D01*
X22292Y19838D01*
Y19293D01*
X22246Y19274D01*
X22110Y19410D01*
X22118Y19423D01*
X22145Y19523D01*
Y19627D01*
X22118Y19728D01*
X22066Y19818D01*
X21992Y19891D01*
X21902Y19943D01*
X21802Y19970D01*
X21698D01*
X21598Y19943D01*
X21508Y19891D01*
X21434Y19818D01*
X21382Y19728D01*
X21355Y19627D01*
Y19523D01*
X21382Y19423D01*
X21434Y19333D01*
X21508Y19259D01*
X21598Y19207D01*
X21698Y19181D01*
X21802D01*
X21902Y19207D01*
X21915Y19215D01*
X22082Y19048D01*
Y18872D01*
X22032Y18851D01*
X21992Y18891D01*
X21902Y18943D01*
X21802Y18970D01*
X21698D01*
X21598Y18943D01*
X21508Y18891D01*
X21434Y18818D01*
X21382Y18728D01*
X21378Y18713D01*
X10946D01*
X10893Y18702D01*
X10848Y18673D01*
X9053Y16877D01*
X5794D01*
X5793Y16880D01*
X5745Y16964D01*
X5677Y17031D01*
X5594Y17080D01*
X5501Y17104D01*
X5405D01*
X5312Y17080D01*
X5229Y17031D01*
X5198Y17000D01*
X5148Y17021D01*
Y17813D01*
X5257Y17922D01*
X8325D01*
X8378Y17933D01*
X8422Y17963D01*
X8557Y18098D01*
X8587Y18142D01*
X8598Y18195D01*
X8598Y18195D01*
Y30518D01*
X8742Y30662D01*
X52578D01*
X52582Y30648D01*
X52634Y30558D01*
X52708Y30484D01*
X52798Y30432D01*
X52898Y30405D01*
X53002D01*
X53102Y30432D01*
X53192Y30484D01*
X53266Y30558D01*
X53318Y30648D01*
X53345Y30748D01*
Y30852D01*
X53318Y30952D01*
X53266Y31042D01*
X53192Y31116D01*
X53102Y31168D01*
X53002Y31195D01*
X52898D01*
X52798Y31168D01*
X52708Y31116D01*
X52634Y31042D01*
X52582Y30952D01*
X52578Y30938D01*
X8685D01*
X8632Y30927D01*
X8588Y30897D01*
X8434Y30744D01*
X8388Y30763D01*
Y36023D01*
X9367Y37003D01*
X9397Y37047D01*
X9408Y37100D01*
X9408Y37100D01*
Y38095D01*
X9408Y38095D01*
X9397Y38148D01*
X9367Y38192D01*
X9367Y38192D01*
X9172Y38387D01*
X9128Y38417D01*
X9075Y38428D01*
D02*
G37*
G36*
X12193Y38205D02*
X11483D01*
Y37495D01*
X12193D01*
Y38205D01*
D02*
G37*
G36*
X10885D02*
X10791D01*
X10701Y38181D01*
X10620Y38134D01*
X10554Y38068D01*
X10507Y37987D01*
X10483Y37897D01*
Y37803D01*
X10507Y37713D01*
X10554Y37632D01*
X10620Y37566D01*
X10701Y37519D01*
X10791Y37495D01*
X10885D01*
X10975Y37519D01*
X11056Y37566D01*
X11122Y37632D01*
X11169Y37713D01*
X11193Y37803D01*
Y37897D01*
X11169Y37987D01*
X11122Y38068D01*
X11056Y38134D01*
X10975Y38181D01*
X10885Y38205D01*
D02*
G37*
G36*
X9885D02*
X9791D01*
X9701Y38181D01*
X9620Y38134D01*
X9554Y38068D01*
X9507Y37987D01*
X9483Y37897D01*
Y37803D01*
X9507Y37713D01*
X9554Y37632D01*
X9620Y37566D01*
X9701Y37519D01*
X9791Y37495D01*
X9885D01*
X9975Y37519D01*
X10056Y37566D01*
X10122Y37632D01*
X10169Y37713D01*
X10193Y37803D01*
Y37897D01*
X10169Y37987D01*
X10122Y38068D01*
X10056Y38134D01*
X9975Y38181D01*
X9885Y38205D01*
D02*
G37*
G36*
X8233Y37800D02*
X7888D01*
Y37455D01*
X7890D01*
X7991Y37482D01*
X8081Y37534D01*
X8154Y37607D01*
X8207Y37697D01*
X8233Y37798D01*
Y37800D01*
D02*
G37*
G36*
X7788D02*
X7443D01*
Y37798D01*
X7470Y37697D01*
X7522Y37607D01*
X7595Y37534D01*
X7686Y37482D01*
X7786Y37455D01*
X7788D01*
Y37800D01*
D02*
G37*
G36*
X57451Y37994D02*
X57322D01*
X57196Y37969D01*
X57076Y37919D01*
X56969Y37848D01*
X56878Y37757D01*
X56806Y37649D01*
X56757Y37530D01*
X56732Y37403D01*
Y37274D01*
X56757Y37148D01*
X56806Y37029D01*
X56878Y36921D01*
X56969Y36830D01*
X57076Y36759D01*
X57196Y36709D01*
X57322Y36684D01*
X57451D01*
X57578Y36709D01*
X57697Y36759D01*
X57804Y36830D01*
X57895Y36921D01*
X57967Y37029D01*
X58016Y37148D01*
X58042Y37274D01*
Y37403D01*
X58016Y37530D01*
X57967Y37649D01*
X57895Y37757D01*
X57804Y37848D01*
X57697Y37919D01*
X57578Y37969D01*
X57451Y37994D01*
D02*
G37*
G36*
X2333D02*
X2204D01*
X2077Y37969D01*
X1958Y37919D01*
X1851Y37848D01*
X1760Y37757D01*
X1688Y37649D01*
X1639Y37530D01*
X1613Y37403D01*
Y37274D01*
X1639Y37148D01*
X1688Y37029D01*
X1760Y36921D01*
X1851Y36830D01*
X1958Y36759D01*
X2077Y36709D01*
X2204Y36684D01*
X2333D01*
X2460Y36709D01*
X2579Y36759D01*
X2686Y36830D01*
X2777Y36921D01*
X2849Y37029D01*
X2898Y37148D01*
X2923Y37274D01*
Y37403D01*
X2898Y37530D01*
X2849Y37649D01*
X2777Y37757D01*
X2686Y37848D01*
X2579Y37919D01*
X2460Y37969D01*
X2333Y37994D01*
D02*
G37*
G36*
X40752Y37245D02*
X40648D01*
X40548Y37218D01*
X40458Y37166D01*
X40384Y37092D01*
X40332Y37002D01*
X40305Y36902D01*
Y36798D01*
X40332Y36698D01*
X40384Y36608D01*
X40458Y36534D01*
X40548Y36482D01*
X40648Y36455D01*
X40752D01*
X40852Y36482D01*
X40942Y36534D01*
X41016Y36608D01*
X41068Y36698D01*
X41095Y36798D01*
Y36902D01*
X41068Y37002D01*
X41016Y37092D01*
X40942Y37166D01*
X40852Y37218D01*
X40752Y37245D01*
D02*
G37*
G36*
X20052Y37195D02*
X19948D01*
X19848Y37168D01*
X19758Y37116D01*
X19684Y37042D01*
X19632Y36952D01*
X19605Y36852D01*
Y36748D01*
X19632Y36648D01*
X19684Y36558D01*
X19758Y36484D01*
X19848Y36432D01*
X19948Y36405D01*
X20052D01*
X20152Y36432D01*
X20242Y36484D01*
X20316Y36558D01*
X20368Y36648D01*
X20395Y36748D01*
Y36852D01*
X20368Y36952D01*
X20316Y37042D01*
X20242Y37116D01*
X20152Y37168D01*
X20052Y37195D01*
D02*
G37*
G36*
X16652Y36695D02*
X16548D01*
X16448Y36668D01*
X16358Y36616D01*
X16284Y36542D01*
X16232Y36452D01*
X16205Y36352D01*
Y36248D01*
X16232Y36148D01*
X16284Y36058D01*
X16358Y35984D01*
X16448Y35932D01*
X16548Y35905D01*
X16652D01*
X16752Y35932D01*
X16842Y35984D01*
X16916Y36058D01*
X16968Y36148D01*
X16995Y36248D01*
Y36352D01*
X16968Y36452D01*
X16916Y36542D01*
X16842Y36616D01*
X16752Y36668D01*
X16652Y36695D01*
D02*
G37*
G36*
X43952Y36495D02*
X43848D01*
X43748Y36468D01*
X43658Y36416D01*
X43584Y36342D01*
X43532Y36252D01*
X43505Y36152D01*
Y36048D01*
X43532Y35948D01*
X43584Y35858D01*
X43658Y35784D01*
X43748Y35732D01*
X43848Y35705D01*
X43952D01*
X44052Y35732D01*
X44142Y35784D01*
X44216Y35858D01*
X44268Y35948D01*
X44295Y36048D01*
Y36152D01*
X44268Y36252D01*
X44216Y36342D01*
X44142Y36416D01*
X44052Y36468D01*
X43952Y36495D01*
D02*
G37*
G36*
X23202Y36245D02*
X23098D01*
X22998Y36218D01*
X22908Y36166D01*
X22834Y36092D01*
X22782Y36002D01*
X22755Y35902D01*
Y35798D01*
X22782Y35698D01*
X22834Y35608D01*
X22908Y35534D01*
X22998Y35482D01*
X23098Y35455D01*
X23202D01*
X23302Y35482D01*
X23392Y35534D01*
X23466Y35608D01*
X23518Y35698D01*
X23545Y35798D01*
Y35902D01*
X23518Y36002D01*
X23466Y36092D01*
X23392Y36166D01*
X23302Y36218D01*
X23202Y36245D01*
D02*
G37*
G36*
X37602Y36195D02*
X37498D01*
X37398Y36168D01*
X37308Y36116D01*
X37234Y36042D01*
X37182Y35952D01*
X37155Y35852D01*
Y35748D01*
X37182Y35648D01*
X37234Y35558D01*
X37308Y35484D01*
X37398Y35432D01*
X37498Y35405D01*
X37602D01*
X37702Y35432D01*
X37792Y35484D01*
X37866Y35558D01*
X37918Y35648D01*
X37945Y35748D01*
Y35852D01*
X37918Y35952D01*
X37866Y36042D01*
X37792Y36116D01*
X37702Y36168D01*
X37602Y36195D01*
D02*
G37*
G36*
X13752Y35212D02*
X13648D01*
X13548Y35185D01*
X13458Y35133D01*
X13384Y35059D01*
X13332Y34969D01*
X13305Y34869D01*
Y34765D01*
X13332Y34665D01*
X13384Y34575D01*
X13458Y34501D01*
X13548Y34449D01*
X13648Y34422D01*
X13752D01*
X13852Y34449D01*
X13942Y34501D01*
X14016Y34575D01*
X14068Y34665D01*
X14095Y34765D01*
Y34869D01*
X14068Y34969D01*
X14016Y35059D01*
X13942Y35133D01*
X13852Y35185D01*
X13752Y35212D01*
D02*
G37*
G36*
X2552Y34745D02*
X2550D01*
Y34400D01*
X2895D01*
Y34402D01*
X2868Y34503D01*
X2816Y34593D01*
X2743Y34666D01*
X2653Y34718D01*
X2552Y34745D01*
D02*
G37*
G36*
X2450D02*
X2448D01*
X2347Y34718D01*
X2257Y34666D01*
X2184Y34593D01*
X2132Y34503D01*
X2105Y34402D01*
Y34400D01*
X2450D01*
Y34745D01*
D02*
G37*
G36*
X46502Y35112D02*
X46398D01*
X46298Y35085D01*
X46208Y35033D01*
X46134Y34959D01*
X46082Y34869D01*
X46055Y34769D01*
Y34665D01*
X46082Y34565D01*
X46134Y34475D01*
X46208Y34401D01*
X46298Y34349D01*
X46398Y34322D01*
X46502D01*
X46602Y34349D01*
X46692Y34401D01*
X46766Y34475D01*
X46818Y34565D01*
X46845Y34665D01*
Y34769D01*
X46818Y34869D01*
X46766Y34959D01*
X46692Y35033D01*
X46602Y35085D01*
X46502Y35112D01*
D02*
G37*
G36*
X26202Y34995D02*
X26098D01*
X25998Y34968D01*
X25908Y34916D01*
X25834Y34842D01*
X25782Y34752D01*
X25755Y34652D01*
Y34548D01*
X25782Y34448D01*
X25834Y34358D01*
X25908Y34284D01*
X25998Y34232D01*
X26098Y34205D01*
X26202D01*
X26302Y34232D01*
X26392Y34284D01*
X26466Y34358D01*
X26518Y34448D01*
X26545Y34548D01*
Y34652D01*
X26518Y34752D01*
X26466Y34842D01*
X26392Y34916D01*
X26302Y34968D01*
X26202Y34995D01*
D02*
G37*
G36*
X34552Y34795D02*
X34448D01*
X34348Y34768D01*
X34258Y34716D01*
X34184Y34642D01*
X34132Y34552D01*
X34105Y34452D01*
Y34348D01*
X34132Y34248D01*
X34184Y34158D01*
X34258Y34084D01*
X34348Y34032D01*
X34448Y34005D01*
X34552D01*
X34652Y34032D01*
X34742Y34084D01*
X34816Y34158D01*
X34868Y34248D01*
X34895Y34348D01*
Y34452D01*
X34868Y34552D01*
X34816Y34642D01*
X34742Y34716D01*
X34652Y34768D01*
X34552Y34795D01*
D02*
G37*
G36*
X2895Y34300D02*
X2550D01*
Y33955D01*
X2552D01*
X2653Y33982D01*
X2743Y34034D01*
X2816Y34107D01*
X2868Y34197D01*
X2895Y34298D01*
Y34300D01*
D02*
G37*
G36*
X2450D02*
X2105D01*
Y34298D01*
X2132Y34197D01*
X2184Y34107D01*
X2257Y34034D01*
X2347Y33982D01*
X2448Y33955D01*
X2450D01*
Y34300D01*
D02*
G37*
G36*
X41095Y38245D02*
X40305D01*
Y38039D01*
X38600D01*
X38528Y38024D01*
X38467Y37983D01*
X37678Y37195D01*
X37155D01*
Y36989D01*
X35900D01*
X35828Y36974D01*
X35767Y36933D01*
X34628Y35795D01*
X34105D01*
Y35589D01*
X33706D01*
X33634Y35574D01*
X33573Y35533D01*
X31628Y33588D01*
X31105D01*
Y33382D01*
X29345D01*
Y33588D01*
X28822D01*
X26677Y35733D01*
X26616Y35774D01*
X26545Y35788D01*
Y35995D01*
X26022D01*
X25033Y36983D01*
X24972Y37024D01*
X24900Y37039D01*
X23545D01*
Y37245D01*
X22755D01*
Y37039D01*
X21028D01*
X20395Y37672D01*
Y38195D01*
X19605D01*
Y37989D01*
X17100D01*
X17028Y37974D01*
X16967Y37933D01*
X16728Y37695D01*
X16205D01*
Y37489D01*
X14817D01*
X14745Y37474D01*
X14684Y37433D01*
X13420Y36170D01*
X13371Y36177D01*
X13344Y36222D01*
X12661Y35827D01*
X13056Y35144D01*
X13739Y35539D01*
X13587Y35803D01*
X14895Y37111D01*
X16205D01*
Y36905D01*
X16995D01*
Y37428D01*
X17178Y37611D01*
X19605D01*
Y37405D01*
X20128D01*
X20817Y36717D01*
X20878Y36676D01*
X20950Y36661D01*
X22755D01*
Y36455D01*
X23545D01*
Y36661D01*
X24822D01*
X25755Y35728D01*
Y35205D01*
X26545D01*
Y35267D01*
X26591Y35286D01*
X28555Y33322D01*
Y32799D01*
X29345D01*
Y33005D01*
X31105D01*
Y32799D01*
X31895D01*
Y33322D01*
X33784Y35211D01*
X34105D01*
Y35005D01*
X34895D01*
Y35528D01*
X35978Y36611D01*
X37155D01*
Y36405D01*
X37945D01*
Y36928D01*
X38678Y37661D01*
X40305D01*
Y37455D01*
X40828D01*
X41317Y36967D01*
X41378Y36926D01*
X41450Y36911D01*
X43505D01*
Y36705D01*
X44295D01*
Y36911D01*
X45355D01*
X46563Y35703D01*
X46411Y35439D01*
X47094Y35044D01*
X47489Y35727D01*
X46806Y36122D01*
X46779Y36077D01*
X46730Y36070D01*
X45566Y37233D01*
X45505Y37274D01*
X45433Y37289D01*
X44295D01*
Y37495D01*
X43505D01*
Y37289D01*
X41528D01*
X41095Y37722D01*
Y38245D01*
D02*
G37*
G36*
X49632Y33727D02*
X49027Y33220D01*
X49534Y32615D01*
X50139Y33123D01*
X49632Y33727D01*
D02*
G37*
G36*
X10818Y33427D02*
X10311Y32823D01*
X10916Y32315D01*
X11423Y32920D01*
X10818Y33427D01*
D02*
G37*
G36*
X48800Y32926D02*
X48697Y32908D01*
X48603Y32864D01*
X48524Y32798D01*
X48464Y32712D01*
X48428Y32615D01*
X48419Y32511D01*
X48437Y32409D01*
X48481Y32315D01*
X48548Y32235D01*
X48633Y32176D01*
X48731Y32140D01*
X48834Y32131D01*
X48937Y32149D01*
X49031Y32193D01*
X49110Y32260D01*
X49170Y32345D01*
X49206Y32442D01*
X49215Y32546D01*
X49197Y32648D01*
X49153Y32742D01*
X49086Y32822D01*
X49001Y32882D01*
X48903Y32917D01*
X48800Y32926D01*
D02*
G37*
G36*
X53007Y32235D02*
X53000D01*
Y31850D01*
X53385D01*
Y31857D01*
X53355Y31968D01*
X53298Y32067D01*
X53217Y32148D01*
X53118Y32205D01*
X53007Y32235D01*
D02*
G37*
G36*
X52900D02*
X52893D01*
X52782Y32205D01*
X52683Y32148D01*
X52602Y32067D01*
X52545Y31968D01*
X52515Y31857D01*
Y31850D01*
X52900D01*
Y32235D01*
D02*
G37*
G36*
X11650Y32626D02*
X11547Y32617D01*
X11449Y32582D01*
X11364Y32522D01*
X11297Y32442D01*
X11253Y32348D01*
X11235Y32246D01*
X11244Y32142D01*
X11280Y32045D01*
X11340Y31960D01*
X11419Y31893D01*
X11513Y31849D01*
X11616Y31831D01*
X11719Y31840D01*
X11817Y31876D01*
X11902Y31935D01*
X11969Y32015D01*
X12013Y32109D01*
X12031Y32211D01*
X12022Y32315D01*
X11986Y32412D01*
X11926Y32498D01*
X11847Y32564D01*
X11753Y32608D01*
X11650Y32626D01*
D02*
G37*
G36*
X31552Y32588D02*
X31448D01*
X31348Y32561D01*
X31258Y32509D01*
X31184Y32436D01*
X31132Y32346D01*
X31105Y32246D01*
Y32142D01*
X31132Y32041D01*
X31184Y31951D01*
X31258Y31878D01*
X31348Y31826D01*
X31448Y31799D01*
X31552D01*
X31652Y31826D01*
X31742Y31878D01*
X31816Y31951D01*
X31868Y32041D01*
X31895Y32142D01*
Y32246D01*
X31868Y32346D01*
X31816Y32436D01*
X31742Y32509D01*
X31652Y32561D01*
X31552Y32588D01*
D02*
G37*
G36*
X29002D02*
X28898D01*
X28798Y32561D01*
X28708Y32509D01*
X28634Y32436D01*
X28582Y32346D01*
X28555Y32246D01*
Y32142D01*
X28582Y32041D01*
X28634Y31951D01*
X28708Y31878D01*
X28798Y31826D01*
X28898Y31799D01*
X29002D01*
X29102Y31826D01*
X29192Y31878D01*
X29266Y31951D01*
X29318Y32041D01*
X29345Y32142D01*
Y32246D01*
X29318Y32346D01*
X29266Y32436D01*
X29192Y32509D01*
X29102Y32561D01*
X29002Y32588D01*
D02*
G37*
G36*
X58521Y32832D02*
X57219D01*
Y31531D01*
X58521D01*
Y32832D01*
D02*
G37*
G36*
X53385Y31750D02*
X53000D01*
Y31365D01*
X53007D01*
X53118Y31395D01*
X53217Y31452D01*
X53298Y31533D01*
X53355Y31632D01*
X53385Y31743D01*
Y31750D01*
D02*
G37*
G36*
X52900D02*
X52515D01*
Y31743D01*
X52545Y31632D01*
X52602Y31533D01*
X52683Y31452D01*
X52782Y31395D01*
X52893Y31365D01*
X52900D01*
Y31750D01*
D02*
G37*
G36*
X2547Y31705D02*
X2453D01*
X2363Y31681D01*
X2282Y31634D01*
X2216Y31568D01*
X2169Y31487D01*
X2145Y31397D01*
Y31303D01*
X2169Y31213D01*
X2216Y31132D01*
X2282Y31066D01*
X2363Y31019D01*
X2453Y30995D01*
X2547D01*
X2637Y31019D01*
X2718Y31066D01*
X2784Y31132D01*
X2831Y31213D01*
X2855Y31303D01*
Y31397D01*
X2831Y31487D01*
X2784Y31568D01*
X2718Y31634D01*
X2637Y31681D01*
X2547Y31705D01*
D02*
G37*
G36*
X58180Y30791D02*
X57460D01*
Y30071D01*
X58180D01*
Y30791D01*
D02*
G37*
G36*
X2547Y30705D02*
X2453D01*
X2363Y30681D01*
X2282Y30634D01*
X2216Y30568D01*
X2169Y30487D01*
X2145Y30397D01*
Y30303D01*
X2169Y30213D01*
X2216Y30132D01*
X2282Y30066D01*
X2363Y30019D01*
X2453Y29995D01*
X2547D01*
X2637Y30019D01*
X2718Y30066D01*
X2784Y30132D01*
X2831Y30213D01*
X2855Y30303D01*
Y30397D01*
X2831Y30487D01*
X2784Y30568D01*
X2718Y30634D01*
X2637Y30681D01*
X2547Y30705D01*
D02*
G37*
G36*
Y29705D02*
X2453D01*
X2363Y29681D01*
X2282Y29634D01*
X2216Y29568D01*
X2169Y29487D01*
X2145Y29397D01*
Y29303D01*
X2169Y29213D01*
X2216Y29132D01*
X2282Y29066D01*
X2363Y29019D01*
X2453Y28995D01*
X2547D01*
X2637Y29019D01*
X2718Y29066D01*
X2784Y29132D01*
X2831Y29213D01*
X2855Y29303D01*
Y29397D01*
X2831Y29487D01*
X2784Y29568D01*
X2718Y29634D01*
X2637Y29681D01*
X2547Y29705D01*
D02*
G37*
G36*
X10702Y29288D02*
X10598D01*
X10498Y29261D01*
X10408Y29209D01*
X10334Y29136D01*
X10282Y29046D01*
X10255Y28946D01*
Y28842D01*
X10282Y28741D01*
X10334Y28651D01*
X10408Y28578D01*
X10498Y28526D01*
X10598Y28499D01*
X10702D01*
X10802Y28526D01*
X10892Y28578D01*
X10966Y28651D01*
X11018Y28741D01*
X11045Y28842D01*
Y28946D01*
X11018Y29046D01*
X10966Y29136D01*
X10892Y29209D01*
X10802Y29261D01*
X10702Y29288D01*
D02*
G37*
G36*
X10045D02*
X9255D01*
Y28499D01*
X10045D01*
Y29288D01*
D02*
G37*
G36*
X51145Y29188D02*
X50355D01*
Y28399D01*
X51145D01*
Y29188D01*
D02*
G37*
G36*
X49802D02*
X49698D01*
X49598Y29161D01*
X49508Y29109D01*
X49434Y29036D01*
X49382Y28946D01*
X49355Y28846D01*
Y28742D01*
X49382Y28641D01*
X49434Y28551D01*
X49508Y28478D01*
X49598Y28426D01*
X49698Y28399D01*
X49802D01*
X49902Y28426D01*
X49992Y28478D01*
X50066Y28551D01*
X50118Y28641D01*
X50145Y28742D01*
Y28846D01*
X50118Y28946D01*
X50066Y29036D01*
X49992Y29109D01*
X49902Y29161D01*
X49802Y29188D01*
D02*
G37*
G36*
X2547Y28705D02*
X2453D01*
X2363Y28681D01*
X2282Y28634D01*
X2216Y28568D01*
X2169Y28487D01*
X2145Y28397D01*
Y28303D01*
X2169Y28213D01*
X2216Y28132D01*
X2282Y28066D01*
X2363Y28019D01*
X2453Y27995D01*
X2547D01*
X2637Y28019D01*
X2718Y28066D01*
X2784Y28132D01*
X2831Y28213D01*
X2855Y28303D01*
Y28397D01*
X2831Y28487D01*
X2784Y28568D01*
X2718Y28634D01*
X2637Y28681D01*
X2547Y28705D01*
D02*
G37*
G36*
Y27705D02*
X2453D01*
X2363Y27681D01*
X2282Y27634D01*
X2216Y27568D01*
X2169Y27487D01*
X2145Y27397D01*
Y27303D01*
X2169Y27213D01*
X2216Y27132D01*
X2282Y27066D01*
X2363Y27019D01*
X2453Y26995D01*
X2547D01*
X2637Y27019D01*
X2718Y27066D01*
X2784Y27132D01*
X2831Y27213D01*
X2855Y27303D01*
Y27397D01*
X2831Y27487D01*
X2784Y27568D01*
X2718Y27634D01*
X2637Y27681D01*
X2547Y27705D01*
D02*
G37*
G36*
Y26705D02*
X2453D01*
X2363Y26681D01*
X2282Y26634D01*
X2216Y26568D01*
X2169Y26487D01*
X2145Y26397D01*
Y26303D01*
X2169Y26213D01*
X2216Y26132D01*
X2282Y26066D01*
X2363Y26019D01*
X2453Y25995D01*
X2547D01*
X2637Y26019D01*
X2718Y26066D01*
X2784Y26132D01*
X2831Y26213D01*
X2855Y26303D01*
Y26397D01*
X2831Y26487D01*
X2784Y26568D01*
X2718Y26634D01*
X2637Y26681D01*
X2547Y26705D01*
D02*
G37*
G36*
Y25705D02*
X2453D01*
X2363Y25681D01*
X2282Y25634D01*
X2216Y25568D01*
X2169Y25487D01*
X2145Y25397D01*
Y25303D01*
X2169Y25213D01*
X2216Y25132D01*
X2282Y25066D01*
X2363Y25019D01*
X2453Y24995D01*
X2547D01*
X2637Y25019D01*
X2718Y25066D01*
X2784Y25132D01*
X2831Y25213D01*
X2855Y25303D01*
Y25397D01*
X2831Y25487D01*
X2784Y25568D01*
X2718Y25634D01*
X2637Y25681D01*
X2547Y25705D01*
D02*
G37*
G36*
X10802Y25488D02*
X10698D01*
X10598Y25461D01*
X10508Y25409D01*
X10434Y25336D01*
X10382Y25246D01*
X10355Y25146D01*
Y25042D01*
X10382Y24941D01*
X10434Y24851D01*
X10508Y24778D01*
X10598Y24726D01*
X10698Y24699D01*
X10802D01*
X10902Y24726D01*
X10992Y24778D01*
X11066Y24851D01*
X11118Y24941D01*
X11145Y25042D01*
Y25146D01*
X11118Y25246D01*
X11066Y25336D01*
X10992Y25409D01*
X10902Y25461D01*
X10802Y25488D01*
D02*
G37*
G36*
X10145D02*
X9355D01*
Y24699D01*
X10145D01*
Y25488D01*
D02*
G37*
G36*
X51095Y25288D02*
X50305D01*
Y24499D01*
X51095D01*
Y25288D01*
D02*
G37*
G36*
X49752D02*
X49648D01*
X49548Y25261D01*
X49458Y25209D01*
X49384Y25136D01*
X49332Y25046D01*
X49305Y24946D01*
Y24842D01*
X49332Y24741D01*
X49384Y24651D01*
X49458Y24578D01*
X49548Y24526D01*
X49648Y24499D01*
X49752D01*
X49852Y24526D01*
X49942Y24578D01*
X50016Y24651D01*
X50068Y24741D01*
X50095Y24842D01*
Y24946D01*
X50068Y25046D01*
X50016Y25136D01*
X49942Y25209D01*
X49852Y25261D01*
X49752Y25288D01*
D02*
G37*
G36*
X32702Y29388D02*
X32598D01*
X32498Y29361D01*
X32408Y29309D01*
X32334Y29236D01*
X32282Y29146D01*
X32255Y29046D01*
Y28942D01*
X32282Y28841D01*
X32334Y28751D01*
X32408Y28678D01*
X32498Y28626D01*
X32598Y28599D01*
X32702D01*
X32802Y28626D01*
X32815Y28634D01*
X36612Y24837D01*
Y23522D01*
X36598Y23518D01*
X36508Y23466D01*
X36434Y23392D01*
X36382Y23302D01*
X36355Y23202D01*
Y23098D01*
X36382Y22998D01*
X36434Y22908D01*
X36508Y22834D01*
X36598Y22782D01*
X36698Y22755D01*
X36802D01*
X36902Y22782D01*
X36992Y22834D01*
X37066Y22908D01*
X37118Y22998D01*
X37145Y23098D01*
Y23202D01*
X37118Y23302D01*
X37066Y23392D01*
X36992Y23466D01*
X36902Y23518D01*
X36888Y23522D01*
Y24894D01*
X36888Y24894D01*
X36877Y24946D01*
X36847Y24991D01*
X36847Y24991D01*
X33010Y28828D01*
X33018Y28841D01*
X33045Y28942D01*
Y29046D01*
X33018Y29146D01*
X32966Y29236D01*
X32892Y29309D01*
X32802Y29361D01*
X32702Y29388D01*
D02*
G37*
G36*
X31702D02*
X31598D01*
X31498Y29361D01*
X31408Y29309D01*
X31334Y29236D01*
X31282Y29146D01*
X31255Y29046D01*
Y28942D01*
X31282Y28841D01*
X31334Y28751D01*
X31408Y28678D01*
X31498Y28626D01*
X31598Y28599D01*
X31702D01*
X31802Y28626D01*
X31815Y28634D01*
X35612Y24837D01*
Y23522D01*
X35598Y23518D01*
X35508Y23466D01*
X35434Y23392D01*
X35382Y23302D01*
X35355Y23202D01*
Y23098D01*
X35382Y22998D01*
X35434Y22908D01*
X35508Y22834D01*
X35598Y22782D01*
X35698Y22755D01*
X35802D01*
X35902Y22782D01*
X35992Y22834D01*
X36066Y22908D01*
X36118Y22998D01*
X36145Y23098D01*
Y23202D01*
X36118Y23302D01*
X36066Y23392D01*
X35992Y23466D01*
X35902Y23518D01*
X35888Y23522D01*
Y24894D01*
X35888Y24894D01*
X35877Y24946D01*
X35847Y24991D01*
X35847Y24991D01*
X32010Y28828D01*
X32018Y28841D01*
X32045Y28942D01*
Y29046D01*
X32018Y29146D01*
X31966Y29236D01*
X31892Y29309D01*
X31802Y29361D01*
X31702Y29388D01*
D02*
G37*
G36*
X30702D02*
X30598D01*
X30498Y29361D01*
X30408Y29309D01*
X30334Y29236D01*
X30282Y29146D01*
X30255Y29046D01*
Y28942D01*
X30282Y28841D01*
X30334Y28751D01*
X30408Y28678D01*
X30498Y28626D01*
X30598Y28599D01*
X30702D01*
X30802Y28626D01*
X30815Y28634D01*
X34612Y24837D01*
Y23522D01*
X34598Y23518D01*
X34508Y23466D01*
X34434Y23392D01*
X34382Y23302D01*
X34355Y23202D01*
Y23098D01*
X34382Y22998D01*
X34434Y22908D01*
X34508Y22834D01*
X34598Y22782D01*
X34698Y22755D01*
X34802D01*
X34902Y22782D01*
X34992Y22834D01*
X35066Y22908D01*
X35118Y22998D01*
X35145Y23098D01*
Y23202D01*
X35118Y23302D01*
X35066Y23392D01*
X34992Y23466D01*
X34902Y23518D01*
X34888Y23522D01*
Y24894D01*
X34888Y24894D01*
X34877Y24946D01*
X34847Y24991D01*
X34847Y24991D01*
X31010Y28828D01*
X31018Y28841D01*
X31045Y28942D01*
Y29046D01*
X31018Y29146D01*
X30966Y29236D01*
X30892Y29309D01*
X30802Y29361D01*
X30702Y29388D01*
D02*
G37*
G36*
X29702D02*
X29598D01*
X29498Y29361D01*
X29408Y29309D01*
X29334Y29236D01*
X29282Y29146D01*
X29255Y29046D01*
Y28942D01*
X29282Y28841D01*
X29334Y28751D01*
X29408Y28678D01*
X29498Y28626D01*
X29598Y28599D01*
X29702D01*
X29802Y28626D01*
X29815Y28634D01*
X33612Y24837D01*
Y23522D01*
X33598Y23518D01*
X33508Y23466D01*
X33434Y23392D01*
X33382Y23302D01*
X33355Y23202D01*
Y23098D01*
X33382Y22998D01*
X33434Y22908D01*
X33508Y22834D01*
X33598Y22782D01*
X33698Y22755D01*
X33802D01*
X33902Y22782D01*
X33992Y22834D01*
X34066Y22908D01*
X34118Y22998D01*
X34145Y23098D01*
Y23202D01*
X34118Y23302D01*
X34066Y23392D01*
X33992Y23466D01*
X33902Y23518D01*
X33888Y23522D01*
Y24894D01*
X33888Y24894D01*
X33877Y24946D01*
X33847Y24991D01*
X33847Y24991D01*
X30010Y28828D01*
X30018Y28841D01*
X30045Y28942D01*
Y29046D01*
X30018Y29146D01*
X29966Y29236D01*
X29892Y29309D01*
X29802Y29361D01*
X29702Y29388D01*
D02*
G37*
G36*
X28702D02*
X28598D01*
X28498Y29361D01*
X28408Y29309D01*
X28334Y29236D01*
X28282Y29146D01*
X28255Y29046D01*
Y28942D01*
X28282Y28841D01*
X28334Y28751D01*
X28408Y28678D01*
X28498Y28626D01*
X28598Y28599D01*
X28702D01*
X28802Y28626D01*
X28815Y28634D01*
X32612Y24837D01*
Y23522D01*
X32598Y23518D01*
X32508Y23466D01*
X32434Y23392D01*
X32382Y23302D01*
X32355Y23202D01*
Y23098D01*
X32382Y22998D01*
X32434Y22908D01*
X32508Y22834D01*
X32598Y22782D01*
X32698Y22755D01*
X32802D01*
X32902Y22782D01*
X32992Y22834D01*
X33066Y22908D01*
X33118Y22998D01*
X33145Y23098D01*
Y23202D01*
X33118Y23302D01*
X33066Y23392D01*
X32992Y23466D01*
X32902Y23518D01*
X32888Y23522D01*
Y24894D01*
X32888Y24894D01*
X32877Y24946D01*
X32847Y24991D01*
X32847Y24991D01*
X29010Y28828D01*
X29018Y28841D01*
X29045Y28942D01*
Y29046D01*
X29018Y29146D01*
X28966Y29236D01*
X28892Y29309D01*
X28802Y29361D01*
X28702Y29388D01*
D02*
G37*
G36*
X27702D02*
X27598D01*
X27498Y29361D01*
X27408Y29309D01*
X27334Y29236D01*
X27282Y29146D01*
X27255Y29046D01*
Y28942D01*
X27282Y28841D01*
X27334Y28751D01*
X27408Y28678D01*
X27498Y28626D01*
X27598Y28599D01*
X27702D01*
X27802Y28626D01*
X27815Y28634D01*
X31612Y24837D01*
Y23522D01*
X31598Y23518D01*
X31508Y23466D01*
X31434Y23392D01*
X31382Y23302D01*
X31355Y23202D01*
Y23098D01*
X31382Y22998D01*
X31434Y22908D01*
X31508Y22834D01*
X31598Y22782D01*
X31698Y22755D01*
X31802D01*
X31902Y22782D01*
X31992Y22834D01*
X32066Y22908D01*
X32118Y22998D01*
X32145Y23098D01*
Y23202D01*
X32118Y23302D01*
X32066Y23392D01*
X31992Y23466D01*
X31902Y23518D01*
X31888Y23522D01*
Y24894D01*
X31888Y24894D01*
X31877Y24946D01*
X31847Y24991D01*
X31847Y24991D01*
X28010Y28828D01*
X28018Y28841D01*
X28045Y28942D01*
Y29046D01*
X28018Y29146D01*
X27966Y29236D01*
X27892Y29309D01*
X27802Y29361D01*
X27702Y29388D01*
D02*
G37*
G36*
X26702D02*
X26598D01*
X26498Y29361D01*
X26408Y29309D01*
X26334Y29236D01*
X26282Y29146D01*
X26255Y29046D01*
Y28942D01*
X26282Y28841D01*
X26334Y28751D01*
X26408Y28678D01*
X26498Y28626D01*
X26598Y28599D01*
X26702D01*
X26802Y28626D01*
X26815Y28634D01*
X30612Y24837D01*
Y23522D01*
X30598Y23518D01*
X30508Y23466D01*
X30434Y23392D01*
X30382Y23302D01*
X30355Y23202D01*
Y23098D01*
X30382Y22998D01*
X30434Y22908D01*
X30508Y22834D01*
X30598Y22782D01*
X30698Y22755D01*
X30802D01*
X30902Y22782D01*
X30992Y22834D01*
X31066Y22908D01*
X31118Y22998D01*
X31145Y23098D01*
Y23202D01*
X31118Y23302D01*
X31066Y23392D01*
X30992Y23466D01*
X30902Y23518D01*
X30888Y23522D01*
Y24894D01*
X30888Y24894D01*
X30877Y24946D01*
X30847Y24991D01*
X30847Y24991D01*
X27010Y28828D01*
X27018Y28841D01*
X27045Y28942D01*
Y29046D01*
X27018Y29146D01*
X26966Y29236D01*
X26892Y29309D01*
X26802Y29361D01*
X26702Y29388D01*
D02*
G37*
G36*
X25702D02*
X25598D01*
X25498Y29361D01*
X25408Y29309D01*
X25334Y29236D01*
X25282Y29146D01*
X25255Y29046D01*
Y28942D01*
X25282Y28841D01*
X25334Y28751D01*
X25408Y28678D01*
X25498Y28626D01*
X25598Y28599D01*
X25702D01*
X25802Y28626D01*
X25815Y28634D01*
X29612Y24837D01*
Y23522D01*
X29598Y23518D01*
X29508Y23466D01*
X29434Y23392D01*
X29382Y23302D01*
X29355Y23202D01*
Y23098D01*
X29382Y22998D01*
X29434Y22908D01*
X29508Y22834D01*
X29598Y22782D01*
X29698Y22755D01*
X29802D01*
X29902Y22782D01*
X29992Y22834D01*
X30066Y22908D01*
X30118Y22998D01*
X30145Y23098D01*
Y23202D01*
X30118Y23302D01*
X30066Y23392D01*
X29992Y23466D01*
X29902Y23518D01*
X29888Y23522D01*
Y24894D01*
X29888Y24894D01*
X29877Y24946D01*
X29847Y24991D01*
X29847Y24991D01*
X26010Y28828D01*
X26018Y28841D01*
X26045Y28942D01*
Y29046D01*
X26018Y29146D01*
X25966Y29236D01*
X25892Y29309D01*
X25802Y29361D01*
X25702Y29388D01*
D02*
G37*
G36*
X24702D02*
X24598D01*
X24498Y29361D01*
X24408Y29309D01*
X24334Y29236D01*
X24282Y29146D01*
X24255Y29046D01*
Y28942D01*
X24282Y28841D01*
X24334Y28751D01*
X24408Y28678D01*
X24498Y28626D01*
X24598Y28599D01*
X24702D01*
X24802Y28626D01*
X24815Y28634D01*
X28612Y24837D01*
Y23522D01*
X28598Y23518D01*
X28508Y23466D01*
X28434Y23392D01*
X28382Y23302D01*
X28355Y23202D01*
Y23098D01*
X28382Y22998D01*
X28434Y22908D01*
X28508Y22834D01*
X28598Y22782D01*
X28698Y22755D01*
X28802D01*
X28902Y22782D01*
X28992Y22834D01*
X29066Y22908D01*
X29118Y22998D01*
X29145Y23098D01*
Y23202D01*
X29118Y23302D01*
X29066Y23392D01*
X28992Y23466D01*
X28902Y23518D01*
X28888Y23522D01*
Y24894D01*
X28888Y24894D01*
X28877Y24946D01*
X28847Y24991D01*
X28847Y24991D01*
X25010Y28828D01*
X25018Y28841D01*
X25045Y28942D01*
Y29046D01*
X25018Y29146D01*
X24966Y29236D01*
X24892Y29309D01*
X24802Y29361D01*
X24702Y29388D01*
D02*
G37*
G36*
X23702D02*
X23598D01*
X23498Y29361D01*
X23408Y29309D01*
X23334Y29236D01*
X23282Y29146D01*
X23255Y29046D01*
Y28942D01*
X23282Y28841D01*
X23334Y28751D01*
X23408Y28678D01*
X23498Y28626D01*
X23598Y28599D01*
X23702D01*
X23802Y28626D01*
X23815Y28634D01*
X27612Y24837D01*
Y23522D01*
X27598Y23518D01*
X27508Y23466D01*
X27434Y23392D01*
X27382Y23302D01*
X27355Y23202D01*
Y23098D01*
X27382Y22998D01*
X27434Y22908D01*
X27508Y22834D01*
X27598Y22782D01*
X27698Y22755D01*
X27802D01*
X27902Y22782D01*
X27992Y22834D01*
X28066Y22908D01*
X28118Y22998D01*
X28145Y23098D01*
Y23202D01*
X28118Y23302D01*
X28066Y23392D01*
X27992Y23466D01*
X27902Y23518D01*
X27888Y23522D01*
Y24894D01*
X27888Y24894D01*
X27877Y24946D01*
X27847Y24991D01*
X27847Y24991D01*
X24010Y28828D01*
X24018Y28841D01*
X24045Y28942D01*
Y29046D01*
X24018Y29146D01*
X23966Y29236D01*
X23892Y29309D01*
X23802Y29361D01*
X23702Y29388D01*
D02*
G37*
G36*
X22702D02*
X22598D01*
X22498Y29361D01*
X22408Y29309D01*
X22334Y29236D01*
X22282Y29146D01*
X22255Y29046D01*
Y28942D01*
X22282Y28841D01*
X22334Y28751D01*
X22408Y28678D01*
X22498Y28626D01*
X22598Y28599D01*
X22702D01*
X22802Y28626D01*
X22815Y28634D01*
X26612Y24837D01*
Y23522D01*
X26598Y23518D01*
X26508Y23466D01*
X26434Y23392D01*
X26382Y23302D01*
X26355Y23202D01*
Y23098D01*
X26382Y22998D01*
X26434Y22908D01*
X26508Y22834D01*
X26598Y22782D01*
X26698Y22755D01*
X26802D01*
X26902Y22782D01*
X26992Y22834D01*
X27066Y22908D01*
X27118Y22998D01*
X27145Y23098D01*
Y23202D01*
X27118Y23302D01*
X27066Y23392D01*
X26992Y23466D01*
X26902Y23518D01*
X26888Y23522D01*
Y24894D01*
X26888Y24894D01*
X26877Y24946D01*
X26847Y24991D01*
X26847Y24991D01*
X23010Y28828D01*
X23018Y28841D01*
X23045Y28942D01*
Y29046D01*
X23018Y29146D01*
X22966Y29236D01*
X22892Y29309D01*
X22802Y29361D01*
X22702Y29388D01*
D02*
G37*
G36*
X21702D02*
X21598D01*
X21498Y29361D01*
X21408Y29309D01*
X21334Y29236D01*
X21282Y29146D01*
X21255Y29046D01*
Y28942D01*
X21282Y28841D01*
X21334Y28751D01*
X21408Y28678D01*
X21498Y28626D01*
X21598Y28599D01*
X21702D01*
X21802Y28626D01*
X21815Y28634D01*
X25612Y24837D01*
Y23522D01*
X25598Y23518D01*
X25508Y23466D01*
X25434Y23392D01*
X25382Y23302D01*
X25355Y23202D01*
Y23098D01*
X25382Y22998D01*
X25434Y22908D01*
X25508Y22834D01*
X25598Y22782D01*
X25698Y22755D01*
X25802D01*
X25902Y22782D01*
X25992Y22834D01*
X26066Y22908D01*
X26118Y22998D01*
X26145Y23098D01*
Y23202D01*
X26118Y23302D01*
X26066Y23392D01*
X25992Y23466D01*
X25902Y23518D01*
X25888Y23522D01*
Y24894D01*
X25888Y24894D01*
X25877Y24946D01*
X25847Y24991D01*
X25847Y24991D01*
X22010Y28828D01*
X22018Y28841D01*
X22045Y28942D01*
Y29046D01*
X22018Y29146D01*
X21966Y29236D01*
X21892Y29309D01*
X21802Y29361D01*
X21702Y29388D01*
D02*
G37*
G36*
X20702D02*
X20598D01*
X20498Y29361D01*
X20408Y29309D01*
X20334Y29236D01*
X20282Y29146D01*
X20255Y29046D01*
Y28942D01*
X20282Y28841D01*
X20334Y28751D01*
X20408Y28678D01*
X20498Y28626D01*
X20598Y28599D01*
X20702D01*
X20802Y28626D01*
X20815Y28634D01*
X24612Y24837D01*
Y23522D01*
X24598Y23518D01*
X24508Y23466D01*
X24434Y23392D01*
X24382Y23302D01*
X24355Y23202D01*
Y23098D01*
X24382Y22998D01*
X24434Y22908D01*
X24508Y22834D01*
X24598Y22782D01*
X24698Y22755D01*
X24802D01*
X24902Y22782D01*
X24992Y22834D01*
X25066Y22908D01*
X25118Y22998D01*
X25145Y23098D01*
Y23202D01*
X25118Y23302D01*
X25066Y23392D01*
X24992Y23466D01*
X24902Y23518D01*
X24888Y23522D01*
Y24894D01*
X24888Y24894D01*
X24877Y24946D01*
X24847Y24991D01*
X24847Y24991D01*
X21010Y28828D01*
X21018Y28841D01*
X21045Y28942D01*
Y29046D01*
X21018Y29146D01*
X20966Y29236D01*
X20892Y29309D01*
X20802Y29361D01*
X20702Y29388D01*
D02*
G37*
G36*
X19702D02*
X19598D01*
X19498Y29361D01*
X19408Y29309D01*
X19334Y29236D01*
X19282Y29146D01*
X19255Y29046D01*
Y28942D01*
X19282Y28841D01*
X19334Y28751D01*
X19408Y28678D01*
X19498Y28626D01*
X19598Y28599D01*
X19702D01*
X19802Y28626D01*
X19815Y28634D01*
X23612Y24837D01*
Y23522D01*
X23598Y23518D01*
X23508Y23466D01*
X23434Y23392D01*
X23382Y23302D01*
X23355Y23202D01*
Y23098D01*
X23382Y22998D01*
X23434Y22908D01*
X23508Y22834D01*
X23598Y22782D01*
X23698Y22755D01*
X23802D01*
X23902Y22782D01*
X23992Y22834D01*
X24066Y22908D01*
X24118Y22998D01*
X24145Y23098D01*
Y23202D01*
X24118Y23302D01*
X24066Y23392D01*
X23992Y23466D01*
X23902Y23518D01*
X23888Y23522D01*
Y24894D01*
X23888Y24894D01*
X23877Y24946D01*
X23847Y24991D01*
X23847Y24991D01*
X20010Y28828D01*
X20018Y28841D01*
X20045Y28942D01*
Y29046D01*
X20018Y29146D01*
X19966Y29236D01*
X19892Y29309D01*
X19802Y29361D01*
X19702Y29388D01*
D02*
G37*
G36*
X18702D02*
X18598D01*
X18498Y29361D01*
X18408Y29309D01*
X18334Y29236D01*
X18282Y29146D01*
X18255Y29046D01*
Y28942D01*
X18282Y28841D01*
X18334Y28751D01*
X18408Y28678D01*
X18498Y28626D01*
X18598Y28599D01*
X18702D01*
X18802Y28626D01*
X18815Y28634D01*
X22612Y24837D01*
Y23522D01*
X22598Y23518D01*
X22508Y23466D01*
X22434Y23392D01*
X22382Y23302D01*
X22355Y23202D01*
Y23098D01*
X22382Y22998D01*
X22434Y22908D01*
X22508Y22834D01*
X22598Y22782D01*
X22698Y22755D01*
X22802D01*
X22902Y22782D01*
X22992Y22834D01*
X23066Y22908D01*
X23118Y22998D01*
X23145Y23098D01*
Y23202D01*
X23118Y23302D01*
X23066Y23392D01*
X22992Y23466D01*
X22902Y23518D01*
X22888Y23522D01*
Y24894D01*
X22888Y24894D01*
X22877Y24946D01*
X22847Y24991D01*
X22847Y24991D01*
X19010Y28828D01*
X19018Y28841D01*
X19045Y28942D01*
Y29046D01*
X19018Y29146D01*
X18966Y29236D01*
X18892Y29309D01*
X18802Y29361D01*
X18702Y29388D01*
D02*
G37*
G36*
X18045D02*
X17255D01*
Y28599D01*
X17850D01*
X21612Y24837D01*
Y23545D01*
X21355D01*
Y22755D01*
X22145D01*
Y23545D01*
X21888D01*
Y24894D01*
X21888Y24894D01*
X21877Y24946D01*
X21847Y24991D01*
X21847Y24991D01*
X18045Y28794D01*
Y29388D01*
D02*
G37*
G36*
X56719Y26229D02*
X55221D01*
Y24927D01*
X55832D01*
Y23917D01*
X54835Y22920D01*
X54778D01*
X54701Y22888D01*
X54642Y22829D01*
X54610Y22752D01*
Y22668D01*
X54642Y22591D01*
X54701Y22532D01*
X54778Y22500D01*
X54862D01*
X54939Y22532D01*
X54998Y22591D01*
X55030Y22668D01*
Y22725D01*
X56067Y23763D01*
X56067Y23763D01*
X56097Y23807D01*
X56108Y23860D01*
X56108Y23860D01*
Y24927D01*
X56719D01*
Y26229D01*
D02*
G37*
G36*
X21807Y22010D02*
X21800D01*
Y21625D01*
X22185D01*
Y21632D01*
X22155Y21743D01*
X22098Y21842D01*
X22017Y21923D01*
X21918Y21980D01*
X21807Y22010D01*
D02*
G37*
G36*
X21700D02*
X21693D01*
X21582Y21980D01*
X21483Y21923D01*
X21402Y21842D01*
X21345Y21743D01*
X21315Y21632D01*
Y21625D01*
X21700D01*
Y22010D01*
D02*
G37*
G36*
X22185Y21525D02*
X21800D01*
Y21141D01*
X21807D01*
X21918Y21170D01*
X22017Y21227D01*
X22098Y21308D01*
X22155Y21407D01*
X22185Y21518D01*
Y21525D01*
D02*
G37*
G36*
X21700D02*
X21315D01*
Y21518D01*
X21345Y21407D01*
X21402Y21308D01*
X21483Y21227D01*
X21582Y21170D01*
X21693Y21141D01*
X21700D01*
Y21525D01*
D02*
G37*
G36*
X11577Y21879D02*
X11473Y21870D01*
X11376Y21835D01*
X11291Y21775D01*
X11224Y21696D01*
X11180Y21601D01*
X11162Y21499D01*
X11171Y21396D01*
X11207Y21298D01*
X11266Y21213D01*
X11346Y21146D01*
X11440Y21102D01*
X11542Y21084D01*
X11646Y21093D01*
X11743Y21129D01*
X11829Y21188D01*
X11895Y21268D01*
X11939Y21362D01*
X11957Y21464D01*
X11948Y21568D01*
X11913Y21666D01*
X11853Y21751D01*
X11773Y21817D01*
X11679Y21861D01*
X11577Y21879D01*
D02*
G37*
G36*
X10856Y21646D02*
X10114Y21376D01*
X10384Y20634D01*
X11126Y20904D01*
X10856Y21646D01*
D02*
G37*
G36*
X58190Y20963D02*
X57470D01*
Y20244D01*
X58190D01*
Y20963D01*
D02*
G37*
G36*
X49484Y21129D02*
X49214Y20387D01*
X49956Y20117D01*
X50226Y20859D01*
X49484Y21129D01*
D02*
G37*
G36*
X47367Y17341D02*
X47264Y17332D01*
X47166Y17297D01*
X47081Y17237D01*
X47014Y17158D01*
X46979Y17081D01*
X43774D01*
X43721Y17071D01*
X43676Y17041D01*
X38595Y11960D01*
X38538D01*
X38461Y11928D01*
X38402Y11869D01*
X38370Y11792D01*
Y11708D01*
X38402Y11631D01*
X38461Y11572D01*
X38538Y11540D01*
X38622D01*
X38699Y11572D01*
X38758Y11631D01*
X38790Y11708D01*
Y11765D01*
X43831Y16806D01*
X46980D01*
X46997Y16760D01*
X47057Y16675D01*
X47136Y16608D01*
X47230Y16564D01*
X47333Y16546D01*
X47436Y16555D01*
X47534Y16591D01*
X47619Y16650D01*
X47686Y16730D01*
X47730Y16824D01*
X47748Y16926D01*
X47739Y17030D01*
X47703Y17127D01*
X47643Y17213D01*
X47564Y17279D01*
X47470Y17323D01*
X47367Y17341D01*
D02*
G37*
G36*
X48065Y17046D02*
X47732Y16330D01*
X48447Y15997D01*
X48781Y16712D01*
X48065Y17046D01*
D02*
G37*
G36*
X16183Y14448D02*
X16080Y14430D01*
X15986Y14386D01*
X15907Y14319D01*
X15847Y14234D01*
X15811Y14136D01*
X15802Y14033D01*
X15820Y13930D01*
X15864Y13836D01*
X15931Y13757D01*
X16016Y13697D01*
X16114Y13661D01*
X16217Y13652D01*
X16320Y13670D01*
X16414Y13714D01*
X16493Y13781D01*
X16553Y13866D01*
X16589Y13964D01*
X16598Y14067D01*
X16580Y14170D01*
X16536Y14264D01*
X16469Y14343D01*
X16384Y14403D01*
X16286Y14439D01*
X16183Y14448D01*
D02*
G37*
G36*
X44867Y14391D02*
X44764Y14382D01*
X44666Y14347D01*
X44581Y14287D01*
X44514Y14208D01*
X44479Y14131D01*
X43502D01*
X43449Y14121D01*
X43405Y14091D01*
X40741Y11428D01*
X37310D01*
X37270Y11468D01*
X37193Y11500D01*
X37109D01*
X37032Y11468D01*
X36973Y11409D01*
X36941Y11332D01*
Y11248D01*
X36973Y11171D01*
X36977Y11167D01*
X36958Y11121D01*
X36108D01*
X36068Y11161D01*
X35991Y11193D01*
X35907D01*
X35830Y11161D01*
X35771Y11102D01*
X35739Y11025D01*
Y10941D01*
X35771Y10864D01*
X35830Y10805D01*
X35907Y10773D01*
X35991D01*
X36068Y10805D01*
X36108Y10845D01*
X41107D01*
X41143Y10769D01*
X41210Y10690D01*
X41295Y10630D01*
X41392Y10594D01*
X41496Y10585D01*
X41598Y10603D01*
X41692Y10647D01*
X41772Y10714D01*
X41832Y10799D01*
X41867Y10897D01*
X41876Y11000D01*
X41858Y11103D01*
X41814Y11197D01*
X41748Y11276D01*
X41662Y11336D01*
X41565Y11372D01*
X41461Y11381D01*
X41359Y11363D01*
X41265Y11319D01*
X41185Y11252D01*
X41126Y11167D01*
X41109Y11121D01*
X40876D01*
X40863Y11171D01*
X40896Y11193D01*
X43559Y13856D01*
X44480D01*
X44497Y13810D01*
X44557Y13725D01*
X44636Y13658D01*
X44730Y13614D01*
X44833Y13596D01*
X44936Y13605D01*
X45034Y13641D01*
X45119Y13700D01*
X45186Y13780D01*
X45230Y13874D01*
X45248Y13976D01*
X45239Y14080D01*
X45203Y14178D01*
X45143Y14263D01*
X45064Y14329D01*
X44970Y14373D01*
X44867Y14391D01*
D02*
G37*
G36*
X15483Y13963D02*
X14878Y13456D01*
X15385Y12851D01*
X15990Y13359D01*
X15483Y13963D01*
D02*
G37*
G36*
X5505Y13108D02*
X5409D01*
X5316Y13083D01*
X5233Y13035D01*
X5165Y12967D01*
X5117Y12884D01*
X5092Y12791D01*
Y12695D01*
X5117Y12602D01*
X5165Y12519D01*
X5233Y12451D01*
X5316Y12403D01*
X5409Y12378D01*
X5505D01*
X5598Y12403D01*
X5681Y12451D01*
X5749Y12519D01*
X5797Y12602D01*
X5822Y12695D01*
Y12791D01*
X5797Y12884D01*
X5749Y12967D01*
X5681Y13035D01*
X5598Y13083D01*
X5505Y13108D01*
D02*
G37*
G36*
X52121Y12344D02*
X52027D01*
X51937Y12320D01*
X51856Y12273D01*
X51790Y12207D01*
X51743Y12126D01*
X51719Y12036D01*
Y11942D01*
X51743Y11852D01*
X51790Y11771D01*
X51856Y11705D01*
X51937Y11658D01*
X52027Y11634D01*
X52121D01*
X52211Y11658D01*
X52292Y11705D01*
X52359Y11771D01*
X52405Y11852D01*
X52429Y11942D01*
Y12036D01*
X52405Y12126D01*
X52359Y12207D01*
X52292Y12273D01*
X52211Y12320D01*
X52121Y12344D01*
D02*
G37*
G36*
X5505Y12109D02*
X5409D01*
X5316Y12084D01*
X5233Y12036D01*
X5165Y11968D01*
X5117Y11885D01*
X5092Y11792D01*
Y11696D01*
X5117Y11603D01*
X5165Y11520D01*
X5233Y11452D01*
X5316Y11404D01*
X5409Y11379D01*
X5505D01*
X5598Y11404D01*
X5681Y11452D01*
X5749Y11520D01*
X5797Y11603D01*
X5822Y11696D01*
Y11792D01*
X5797Y11885D01*
X5749Y11968D01*
X5681Y12036D01*
X5598Y12084D01*
X5505Y12109D01*
D02*
G37*
G36*
X2498D02*
X2402D01*
X2309Y12084D01*
X2226Y12036D01*
X2158Y11968D01*
X2110Y11885D01*
X2085Y11792D01*
Y11696D01*
X2110Y11603D01*
X2158Y11520D01*
X2226Y11452D01*
X2309Y11404D01*
X2402Y11379D01*
X2498D01*
X2591Y11404D01*
X2674Y11452D01*
X2742Y11520D01*
X2790Y11603D01*
X2815Y11696D01*
Y11792D01*
X2790Y11885D01*
X2742Y11968D01*
X2674Y12036D01*
X2591Y12084D01*
X2498Y12109D01*
D02*
G37*
G36*
X19016Y11469D02*
X18913Y11451D01*
X18819Y11407D01*
X18740Y11340D01*
X18680Y11255D01*
X18644Y11158D01*
X18635Y11054D01*
X18653Y10952D01*
X18697Y10858D01*
X18764Y10778D01*
X18849Y10718D01*
X18947Y10683D01*
X19050Y10674D01*
X19153Y10692D01*
X19247Y10736D01*
X19326Y10802D01*
X19386Y10888D01*
X19403Y10934D01*
X23780D01*
X23821Y10893D01*
X23898Y10861D01*
X23981D01*
X24059Y10893D01*
X24118Y10952D01*
X24150Y11030D01*
Y11113D01*
X24118Y11190D01*
X24059Y11249D01*
X23981Y11281D01*
X23898D01*
X23821Y11249D01*
X23780Y11209D01*
X19404D01*
X19369Y11285D01*
X19302Y11365D01*
X19217Y11424D01*
X19119Y11460D01*
X19016Y11469D01*
D02*
G37*
G36*
X5511Y11150D02*
X5507D01*
Y10795D01*
X5862D01*
Y10799D01*
X5835Y10902D01*
X5781Y10994D01*
X5706Y11069D01*
X5614Y11123D01*
X5511Y11150D01*
D02*
G37*
G36*
X5407D02*
X5404D01*
X5301Y11123D01*
X5209Y11069D01*
X5133Y10994D01*
X5080Y10902D01*
X5052Y10799D01*
Y10795D01*
X5407D01*
Y11150D01*
D02*
G37*
G36*
X45567Y13907D02*
X45060Y13302D01*
X45427Y12994D01*
Y10461D01*
X45372Y10406D01*
X42478D01*
X42170Y10773D01*
X41720Y10395D01*
X41699Y10391D01*
X41638Y10350D01*
X39306Y8018D01*
X39256Y8020D01*
X39170Y8123D01*
X38565Y7616D01*
X38720Y7432D01*
X36693Y5406D01*
X35747D01*
X35544Y5756D01*
X34861Y5361D01*
X35040Y5051D01*
X33270Y3281D01*
X31995D01*
Y3538D01*
X31205D01*
Y3332D01*
X29295D01*
Y3538D01*
X28505D01*
Y3281D01*
X26974D01*
X25110Y5145D01*
X25289Y5455D01*
X24606Y5850D01*
X24579Y5804D01*
X24530Y5798D01*
X22527Y7800D01*
X22466Y7841D01*
X22394Y7856D01*
X21918D01*
X21480Y8223D01*
X21361Y8081D01*
X21311Y8079D01*
X18864Y10526D01*
X18820Y10556D01*
X18767Y10566D01*
X18667D01*
X18316Y10985D01*
X18093Y10797D01*
X18048Y10827D01*
X17996Y10838D01*
X13625D01*
Y10937D01*
X12875D01*
Y10463D01*
X13625D01*
Y10562D01*
X15208D01*
X15241Y10512D01*
X15224Y10470D01*
Y10387D01*
X15256Y10310D01*
X15315Y10251D01*
X15392Y10219D01*
X15476D01*
X15553Y10251D01*
X15593Y10291D01*
X17867D01*
X18218Y9873D01*
X18713Y10288D01*
X21160Y7841D01*
X20973Y7618D01*
X21577Y7111D01*
X21886Y7478D01*
X22316D01*
X24363Y5430D01*
X24211Y5166D01*
X24894Y4772D01*
X24947Y4863D01*
X24997Y4869D01*
X26820Y3046D01*
X26820Y3046D01*
X26864Y3017D01*
X26917Y3006D01*
X26917Y3006D01*
X28505D01*
Y2749D01*
X29295D01*
Y2955D01*
X31205D01*
Y2749D01*
X31995D01*
Y3006D01*
X33327D01*
X33379Y3017D01*
X33424Y3046D01*
X35153Y4776D01*
X35203Y4769D01*
X35256Y4678D01*
X35863Y5028D01*
X36771D01*
X36844Y5043D01*
X36905Y5084D01*
X38937Y7116D01*
X38987Y7113D01*
X39073Y7011D01*
X39677Y7518D01*
X39523Y7702D01*
X41777Y9956D01*
X41827Y9954D01*
X42073Y9661D01*
X42511Y10028D01*
X45450D01*
X45522Y10043D01*
X45583Y10084D01*
X45749Y10250D01*
X45790Y10311D01*
X45805Y10383D01*
Y12962D01*
X46172Y13400D01*
X45567Y13907D01*
D02*
G37*
G36*
X2855Y9696D02*
X2500D01*
Y9341D01*
X2503D01*
X2606Y9369D01*
X2699Y9422D01*
X2774Y9497D01*
X2827Y9590D01*
X2855Y9693D01*
Y9696D01*
D02*
G37*
G36*
X2400D02*
X2045D01*
Y9693D01*
X2073Y9590D01*
X2126Y9497D01*
X2201Y9422D01*
X2294Y9369D01*
X2397Y9341D01*
X2400D01*
Y9696D01*
D02*
G37*
G36*
X22189Y8831D02*
X22085Y8822D01*
X21988Y8786D01*
X21902Y8726D01*
X21836Y8647D01*
X21792Y8553D01*
X21774Y8450D01*
X21783Y8347D01*
X21818Y8249D01*
X21878Y8164D01*
X21958Y8097D01*
X22052Y8053D01*
X22154Y8035D01*
X22258Y8044D01*
X22355Y8080D01*
X22440Y8140D01*
X22507Y8219D01*
X22551Y8313D01*
X22569Y8416D01*
X22560Y8519D01*
X22524Y8617D01*
X22465Y8702D01*
X22385Y8769D01*
X22291Y8813D01*
X22189Y8831D01*
D02*
G37*
G36*
X38461Y8731D02*
X38359Y8713D01*
X38265Y8669D01*
X38185Y8602D01*
X38126Y8517D01*
X38090Y8419D01*
X38081Y8316D01*
X38099Y8213D01*
X38143Y8119D01*
X38210Y8040D01*
X38295Y7980D01*
X38392Y7944D01*
X38496Y7935D01*
X38598Y7953D01*
X38692Y7997D01*
X38772Y8064D01*
X38832Y8149D01*
X38867Y8247D01*
X38876Y8350D01*
X38858Y8453D01*
X38814Y8547D01*
X38748Y8626D01*
X38662Y8686D01*
X38565Y8722D01*
X38461Y8731D01*
D02*
G37*
G36*
X19000Y7253D02*
X18900D01*
Y6950D01*
X19346D01*
X19341Y6991D01*
X19306Y7077D01*
X19250Y7150D01*
X19177Y7206D01*
X19091Y7241D01*
X19000Y7253D01*
D02*
G37*
G36*
X18800D02*
X18700D01*
X18609Y7241D01*
X18523Y7206D01*
X18450Y7150D01*
X18394Y7077D01*
X18359Y6991D01*
X18354Y6950D01*
X18800D01*
Y7253D01*
D02*
G37*
G36*
X2498Y9112D02*
X2402D01*
X2309Y9087D01*
X2226Y9039D01*
X2158Y8971D01*
X2110Y8888D01*
X2085Y8795D01*
Y8699D01*
X2110Y8606D01*
X2158Y8523D01*
X2226Y8455D01*
X2309Y8407D01*
X2402Y8382D01*
X2498D01*
X2591Y8407D01*
X2594Y8409D01*
X4791Y6212D01*
X4835Y6182D01*
X4888Y6171D01*
X4888Y6171D01*
X8584D01*
Y6108D01*
X8606Y6028D01*
X8647Y5956D01*
X8706Y5897D01*
X8778Y5856D01*
X8858Y5834D01*
X8942D01*
X9022Y5856D01*
X9094Y5897D01*
X9153Y5956D01*
X9185Y6012D01*
X10871D01*
X10895Y6008D01*
X11100D01*
X11102Y6000D01*
X11151Y5915D01*
X11221Y5845D01*
X11306Y5796D01*
X11402Y5770D01*
X11500D01*
X11596Y5796D01*
X11681Y5845D01*
X11751Y5915D01*
X11800Y6000D01*
X11826Y6096D01*
Y6195D01*
X11800Y6290D01*
X11751Y6375D01*
X11681Y6445D01*
X11596Y6495D01*
X11500Y6520D01*
X11402D01*
X11306Y6495D01*
X11221Y6445D01*
X11151Y6375D01*
X11102Y6290D01*
X11100Y6283D01*
X10914D01*
X10890Y6288D01*
X9185D01*
X9153Y6344D01*
X9094Y6403D01*
X9022Y6444D01*
X8942Y6466D01*
X8858D01*
X8778Y6444D01*
X8727Y6415D01*
X8696Y6436D01*
X8643Y6447D01*
X5742D01*
X5721Y6497D01*
X5749Y6525D01*
X5797Y6608D01*
X5798Y6611D01*
X10509D01*
X10562Y6622D01*
X10606Y6652D01*
X10717Y6762D01*
X15421D01*
X15429Y6744D01*
X15479Y6679D01*
X15544Y6629D01*
X15619Y6598D01*
X15700Y6587D01*
X16000D01*
X16081Y6598D01*
X16156Y6629D01*
X16221Y6679D01*
X16271Y6744D01*
X16302Y6819D01*
X16313Y6900D01*
X16302Y6981D01*
X16271Y7056D01*
X16221Y7121D01*
X16156Y7171D01*
X16081Y7202D01*
X16000Y7213D01*
X15700D01*
X15619Y7202D01*
X15544Y7171D01*
X15479Y7121D01*
X15429Y7056D01*
X15421Y7038D01*
X10660D01*
X10660Y7038D01*
X10607Y7027D01*
X10563Y6997D01*
X10563Y6997D01*
X10452Y6887D01*
X5798D01*
X5797Y6890D01*
X5749Y6973D01*
X5681Y7041D01*
X5598Y7089D01*
X5505Y7114D01*
X5409D01*
X5316Y7089D01*
X5233Y7041D01*
X5165Y6973D01*
X5117Y6890D01*
X5092Y6797D01*
Y6701D01*
X5117Y6608D01*
X5165Y6525D01*
X5193Y6497D01*
X5173Y6447D01*
X4945D01*
X2788Y8603D01*
X2790Y8606D01*
X2815Y8699D01*
Y8795D01*
X2790Y8888D01*
X2742Y8971D01*
X2674Y9039D01*
X2591Y9087D01*
X2498Y9112D01*
D02*
G37*
G36*
X19346Y6850D02*
X18900D01*
Y6547D01*
X19000D01*
X19091Y6559D01*
X19177Y6594D01*
X19250Y6650D01*
X19306Y6723D01*
X19341Y6809D01*
X19346Y6850D01*
D02*
G37*
G36*
X18800D02*
X18354D01*
X18359Y6809D01*
X18394Y6723D01*
X18450Y6650D01*
X18523Y6594D01*
X18609Y6559D01*
X18700Y6547D01*
X18800D01*
Y6850D01*
D02*
G37*
G36*
X12687Y6560D02*
X12682D01*
Y6195D01*
X13047D01*
Y6200D01*
X13019Y6305D01*
X12964Y6400D01*
X12887Y6477D01*
X12792Y6532D01*
X12687Y6560D01*
D02*
G37*
G36*
X12582D02*
X12577D01*
X12472Y6532D01*
X12377Y6477D01*
X12300Y6400D01*
X12245Y6305D01*
X12217Y6200D01*
Y6195D01*
X12582D01*
Y6560D01*
D02*
G37*
G36*
X25302Y6571D02*
X25198D01*
X25098Y6544D01*
X25008Y6493D01*
X24934Y6419D01*
X24882Y6329D01*
X24855Y6229D01*
Y6125D01*
X24882Y6024D01*
X24934Y5934D01*
X25008Y5861D01*
X25098Y5809D01*
X25198Y5782D01*
X25302D01*
X25402Y5809D01*
X25492Y5861D01*
X25566Y5934D01*
X25618Y6024D01*
X25645Y6125D01*
Y6229D01*
X25618Y6329D01*
X25566Y6419D01*
X25492Y6493D01*
X25402Y6544D01*
X25302Y6571D01*
D02*
G37*
G36*
X13047Y6095D02*
X12682D01*
Y5730D01*
X12687D01*
X12792Y5759D01*
X12887Y5813D01*
X12964Y5890D01*
X13019Y5985D01*
X13047Y6091D01*
Y6095D01*
D02*
G37*
G36*
X12582D02*
X12217D01*
Y6091D01*
X12245Y5985D01*
X12300Y5890D01*
X12377Y5813D01*
X12472Y5759D01*
X12577Y5730D01*
X12582D01*
Y6095D01*
D02*
G37*
G36*
X34952Y6478D02*
X34848D01*
X34748Y6451D01*
X34658Y6399D01*
X34584Y6325D01*
X34532Y6235D01*
X34505Y6135D01*
Y6031D01*
X34532Y5931D01*
X34584Y5841D01*
X34658Y5767D01*
X34748Y5715D01*
X34848Y5688D01*
X34952D01*
X35052Y5715D01*
X35142Y5767D01*
X35216Y5841D01*
X35268Y5931D01*
X35295Y6031D01*
Y6135D01*
X35268Y6235D01*
X35216Y6325D01*
X35142Y6399D01*
X35052Y6451D01*
X34952Y6478D01*
D02*
G37*
G36*
X19000Y6213D02*
X18700D01*
X18619Y6202D01*
X18544Y6171D01*
X18479Y6121D01*
X18429Y6056D01*
X18398Y5981D01*
X18387Y5900D01*
X18398Y5819D01*
X18429Y5744D01*
X18479Y5679D01*
X18544Y5629D01*
X18619Y5598D01*
X18700Y5587D01*
X19000D01*
X19081Y5598D01*
X19156Y5629D01*
X19221Y5679D01*
X19271Y5744D01*
X19302Y5819D01*
X19313Y5900D01*
X19302Y5981D01*
X19271Y6056D01*
X19221Y6121D01*
X19156Y6171D01*
X19081Y6202D01*
X19000Y6213D01*
D02*
G37*
G36*
X2498Y8113D02*
X2402D01*
X2309Y8088D01*
X2226Y8040D01*
X2158Y7972D01*
X2110Y7889D01*
X2085Y7796D01*
Y7700D01*
X2110Y7607D01*
X2158Y7524D01*
X2226Y7456D01*
X2309Y7408D01*
X2402Y7383D01*
X2498D01*
X2591Y7408D01*
X2594Y7410D01*
X4791Y5213D01*
X4835Y5183D01*
X4888Y5172D01*
X4888Y5172D01*
X7793D01*
X8601Y4365D01*
X8584Y4302D01*
Y4219D01*
X8606Y4138D01*
X8647Y4066D01*
X8706Y4007D01*
X8778Y3966D01*
X8858Y3944D01*
X8942D01*
X9022Y3966D01*
X9094Y4007D01*
X9153Y4066D01*
X9185Y4123D01*
X10773D01*
X10843Y4053D01*
X10887Y4023D01*
X10940Y4012D01*
X11099D01*
X11101Y4005D01*
X11150Y3920D01*
X11220Y3850D01*
X11305Y3801D01*
X11401Y3775D01*
X11499D01*
X11595Y3801D01*
X11680Y3850D01*
X11750Y3920D01*
X11799Y4005D01*
X11825Y4101D01*
Y4199D01*
X11799Y4295D01*
X11750Y4380D01*
X11680Y4450D01*
X11595Y4499D01*
X11499Y4525D01*
X11401D01*
X11305Y4499D01*
X11220Y4450D01*
X11150Y4380D01*
X11101Y4295D01*
X11099Y4288D01*
X10997D01*
X10927Y4358D01*
X10882Y4387D01*
X10830Y4398D01*
X9185D01*
X9153Y4454D01*
X9094Y4513D01*
X9022Y4555D01*
X8942Y4576D01*
X8858D01*
X8796Y4559D01*
X7948Y5407D01*
X7903Y5437D01*
X7850Y5448D01*
X5742D01*
X5721Y5498D01*
X5749Y5526D01*
X5797Y5609D01*
X5798Y5612D01*
X8273D01*
X8523Y5363D01*
X8567Y5333D01*
X8620Y5322D01*
X13640D01*
X13693Y5333D01*
X13737Y5363D01*
X14137Y5762D01*
X15421D01*
X15429Y5744D01*
X15479Y5679D01*
X15544Y5629D01*
X15619Y5598D01*
X15700Y5587D01*
X16000D01*
X16081Y5598D01*
X16156Y5629D01*
X16221Y5679D01*
X16271Y5744D01*
X16302Y5819D01*
X16313Y5900D01*
X16302Y5981D01*
X16271Y6056D01*
X16221Y6121D01*
X16156Y6171D01*
X16081Y6202D01*
X16000Y6213D01*
X15700D01*
X15619Y6202D01*
X15544Y6171D01*
X15479Y6121D01*
X15429Y6056D01*
X15421Y6038D01*
X14080D01*
X14027Y6027D01*
X13983Y5997D01*
X13583Y5598D01*
X8677D01*
X8427Y5847D01*
X8383Y5877D01*
X8330Y5888D01*
X5798D01*
X5797Y5891D01*
X5749Y5974D01*
X5681Y6042D01*
X5598Y6090D01*
X5505Y6115D01*
X5409D01*
X5316Y6090D01*
X5233Y6042D01*
X5165Y5974D01*
X5117Y5891D01*
X5092Y5798D01*
Y5702D01*
X5117Y5609D01*
X5165Y5526D01*
X5193Y5498D01*
X5173Y5448D01*
X4945D01*
X2788Y7604D01*
X2790Y7607D01*
X2815Y7700D01*
Y7796D01*
X2790Y7889D01*
X2742Y7972D01*
X2674Y8040D01*
X2591Y8088D01*
X2498Y8113D01*
D02*
G37*
G36*
Y6115D02*
X2402D01*
X2309Y6090D01*
X2226Y6042D01*
X2158Y5974D01*
X2110Y5891D01*
X2085Y5798D01*
Y5702D01*
X2110Y5609D01*
X2158Y5526D01*
X2226Y5458D01*
X2309Y5410D01*
X2402Y5385D01*
X2498D01*
X2591Y5410D01*
X2674Y5458D01*
X2742Y5526D01*
X2790Y5609D01*
X2815Y5702D01*
Y5798D01*
X2790Y5891D01*
X2742Y5974D01*
X2674Y6042D01*
X2591Y6090D01*
X2498Y6115D01*
D02*
G37*
G36*
X52121Y5651D02*
X52027D01*
X51937Y5627D01*
X51856Y5580D01*
X51790Y5514D01*
X51743Y5433D01*
X51719Y5343D01*
Y5249D01*
X51743Y5159D01*
X51790Y5078D01*
X51856Y5012D01*
X51937Y4965D01*
X52027Y4941D01*
X52121D01*
X52211Y4965D01*
X52292Y5012D01*
X52359Y5078D01*
X52405Y5159D01*
X52429Y5249D01*
Y5343D01*
X52405Y5433D01*
X52359Y5514D01*
X52292Y5580D01*
X52211Y5627D01*
X52121Y5651D01*
D02*
G37*
G36*
X19000Y5213D02*
X18700D01*
X18619Y5202D01*
X18544Y5171D01*
X18479Y5121D01*
X18429Y5056D01*
X18398Y4981D01*
X18387Y4900D01*
X18398Y4819D01*
X18429Y4744D01*
X18479Y4679D01*
X18544Y4629D01*
X18619Y4598D01*
X18700Y4587D01*
X19000D01*
X19081Y4598D01*
X19156Y4629D01*
X19221Y4679D01*
X19271Y4744D01*
X19302Y4819D01*
X19313Y4900D01*
X19302Y4981D01*
X19271Y5056D01*
X19221Y5121D01*
X19156Y5171D01*
X19081Y5202D01*
X19000Y5213D01*
D02*
G37*
G36*
X16000D02*
X15700D01*
X15619Y5202D01*
X15544Y5171D01*
X15479Y5121D01*
X15429Y5056D01*
X15398Y4981D01*
X15387Y4900D01*
X15398Y4819D01*
X15429Y4744D01*
X15479Y4679D01*
X15544Y4629D01*
X15619Y4598D01*
X15700Y4587D01*
X16000D01*
X16081Y4598D01*
X16156Y4629D01*
X16221Y4679D01*
X16271Y4744D01*
X16302Y4819D01*
X16313Y4900D01*
X16302Y4981D01*
X16271Y5056D01*
X16221Y5121D01*
X16156Y5171D01*
X16081Y5202D01*
X16000Y5213D01*
D02*
G37*
G36*
X58520Y4904D02*
X58518D01*
X58418Y4877D01*
X58328Y4825D01*
X58254Y4751D01*
X58202Y4661D01*
X58175Y4561D01*
Y4559D01*
X58520D01*
Y4904D01*
D02*
G37*
G36*
X5505Y5116D02*
X5409D01*
X5316Y5091D01*
X5233Y5043D01*
X5165Y4975D01*
X5117Y4892D01*
X5092Y4799D01*
Y4703D01*
X5117Y4610D01*
X5165Y4527D01*
X5233Y4459D01*
X5316Y4411D01*
X5409Y4386D01*
X5505D01*
X5598Y4411D01*
X5681Y4459D01*
X5749Y4527D01*
X5797Y4610D01*
X5822Y4703D01*
Y4799D01*
X5797Y4892D01*
X5749Y4975D01*
X5681Y5043D01*
X5598Y5091D01*
X5505Y5116D01*
D02*
G37*
G36*
X2498D02*
X2402D01*
X2309Y5091D01*
X2226Y5043D01*
X2158Y4975D01*
X2110Y4892D01*
X2085Y4799D01*
Y4703D01*
X2110Y4610D01*
X2158Y4527D01*
X2226Y4459D01*
X2309Y4411D01*
X2402Y4386D01*
X2498D01*
X2591Y4411D01*
X2674Y4459D01*
X2742Y4527D01*
X2790Y4610D01*
X2815Y4703D01*
Y4799D01*
X2790Y4892D01*
X2742Y4975D01*
X2674Y5043D01*
X2591Y5091D01*
X2498Y5116D01*
D02*
G37*
G36*
X22755Y4596D02*
X22750D01*
Y4231D01*
X23115D01*
Y4236D01*
X23087Y4341D01*
X23032Y4436D01*
X22955Y4513D01*
X22860Y4568D01*
X22755Y4596D01*
D02*
G37*
G36*
X20905D02*
X20900D01*
Y4231D01*
X21265D01*
Y4236D01*
X21237Y4341D01*
X21182Y4436D01*
X21105Y4513D01*
X21010Y4568D01*
X20905Y4596D01*
D02*
G37*
G36*
X22650D02*
X22645D01*
X22540Y4568D01*
X22445Y4513D01*
X22368Y4436D01*
X22313Y4341D01*
X22285Y4236D01*
Y4231D01*
X22650D01*
Y4596D01*
D02*
G37*
G36*
X20800D02*
X20795D01*
X20690Y4568D01*
X20595Y4513D01*
X20518Y4436D01*
X20463Y4341D01*
X20435Y4236D01*
Y4231D01*
X20800D01*
Y4596D01*
D02*
G37*
G36*
X12686Y4565D02*
X12681D01*
Y4200D01*
X13046D01*
Y4205D01*
X13018Y4310D01*
X12963Y4405D01*
X12886Y4482D01*
X12791Y4537D01*
X12686Y4565D01*
D02*
G37*
G36*
X12581D02*
X12576D01*
X12471Y4537D01*
X12376Y4482D01*
X12299Y4405D01*
X12244Y4310D01*
X12216Y4205D01*
Y4200D01*
X12581D01*
Y4565D01*
D02*
G37*
G36*
X58520Y4459D02*
X58175D01*
Y4456D01*
X58202Y4356D01*
X58254Y4266D01*
X58328Y4192D01*
X58418Y4140D01*
X58518Y4113D01*
X58520D01*
Y4459D01*
D02*
G37*
G36*
X23115Y4131D02*
X22750D01*
Y3766D01*
X22755D01*
X22860Y3794D01*
X22955Y3849D01*
X23032Y3926D01*
X23087Y4021D01*
X23115Y4126D01*
Y4131D01*
D02*
G37*
G36*
X22650D02*
X22285D01*
Y4126D01*
X22313Y4021D01*
X22368Y3926D01*
X22445Y3849D01*
X22540Y3794D01*
X22645Y3766D01*
X22650D01*
Y4131D01*
D02*
G37*
G36*
X21265D02*
X20900D01*
Y3766D01*
X20905D01*
X21010Y3794D01*
X21105Y3849D01*
X21182Y3926D01*
X21237Y4021D01*
X21265Y4126D01*
Y4131D01*
D02*
G37*
G36*
X20800D02*
X20435D01*
Y4126D01*
X20463Y4021D01*
X20518Y3926D01*
X20595Y3849D01*
X20690Y3794D01*
X20795Y3766D01*
X20800D01*
Y4131D01*
D02*
G37*
G36*
X50684Y4784D02*
X49650D01*
Y3750D01*
X50684D01*
Y4784D01*
D02*
G37*
G36*
X49550D02*
X48516D01*
Y3750D01*
X49550D01*
Y4784D01*
D02*
G37*
G36*
X31652Y4538D02*
X31548D01*
X31448Y4511D01*
X31358Y4459D01*
X31284Y4386D01*
X31232Y4296D01*
X31205Y4196D01*
Y4092D01*
X31232Y3991D01*
X31284Y3901D01*
X31358Y3828D01*
X31448Y3776D01*
X31548Y3749D01*
X31652D01*
X31752Y3776D01*
X31842Y3828D01*
X31916Y3901D01*
X31968Y3991D01*
X31995Y4092D01*
Y4196D01*
X31968Y4296D01*
X31916Y4386D01*
X31842Y4459D01*
X31752Y4511D01*
X31652Y4538D01*
D02*
G37*
G36*
X28952D02*
X28848D01*
X28748Y4511D01*
X28658Y4459D01*
X28584Y4386D01*
X28532Y4296D01*
X28505Y4196D01*
Y4092D01*
X28532Y3991D01*
X28584Y3901D01*
X28658Y3828D01*
X28748Y3776D01*
X28848Y3749D01*
X28952D01*
X29052Y3776D01*
X29142Y3828D01*
X29216Y3901D01*
X29268Y3991D01*
X29295Y4092D01*
Y4196D01*
X29268Y4296D01*
X29216Y4386D01*
X29142Y4459D01*
X29052Y4511D01*
X28952Y4538D01*
D02*
G37*
G36*
X13046Y4100D02*
X12681D01*
Y3735D01*
X12686D01*
X12791Y3763D01*
X12886Y3818D01*
X12963Y3895D01*
X13018Y3990D01*
X13046Y4095D01*
Y4100D01*
D02*
G37*
G36*
X12581D02*
X12216D01*
Y4095D01*
X12244Y3990D01*
X12299Y3895D01*
X12376Y3818D01*
X12471Y3763D01*
X12576Y3735D01*
X12581D01*
Y4100D01*
D02*
G37*
G36*
X19310Y4210D02*
X18390D01*
Y3590D01*
X19310D01*
Y4210D01*
D02*
G37*
G36*
X5505Y4102D02*
X5409D01*
X5316Y4078D01*
X5233Y4030D01*
X5165Y3962D01*
X5117Y3878D01*
X5092Y3786D01*
Y3689D01*
X5117Y3597D01*
X5165Y3513D01*
X5233Y3445D01*
X5316Y3397D01*
X5409Y3372D01*
X5505D01*
X5598Y3397D01*
X5681Y3445D01*
X5749Y3513D01*
X5797Y3597D01*
X5822Y3689D01*
Y3786D01*
X5797Y3878D01*
X5749Y3962D01*
X5681Y4030D01*
X5598Y4078D01*
X5505Y4102D01*
D02*
G37*
G36*
X2509D02*
X2413D01*
X2320Y4078D01*
X2237Y4030D01*
X2169Y3962D01*
X2121Y3878D01*
X2096Y3786D01*
Y3689D01*
X2121Y3597D01*
X2169Y3513D01*
X2237Y3445D01*
X2320Y3397D01*
X2413Y3372D01*
X2509D01*
X2602Y3397D01*
X2685Y3445D01*
X2753Y3513D01*
X2801Y3597D01*
X2826Y3689D01*
Y3786D01*
X2801Y3878D01*
X2753Y3962D01*
X2685Y4030D01*
X2602Y4078D01*
X2509Y4102D01*
D02*
G37*
G36*
X22749Y3375D02*
X22651D01*
X22555Y3349D01*
X22470Y3300D01*
X22400Y3230D01*
X22351Y3145D01*
X22325Y3049D01*
Y2951D01*
X22351Y2855D01*
X22400Y2770D01*
X22470Y2700D01*
X22555Y2651D01*
X22651Y2625D01*
X22749D01*
X22845Y2651D01*
X22930Y2700D01*
X23000Y2770D01*
X23049Y2855D01*
X23075Y2951D01*
Y3049D01*
X23049Y3145D01*
X23000Y3230D01*
X22930Y3300D01*
X22845Y3349D01*
X22749Y3375D01*
D02*
G37*
G36*
X20899D02*
X20801D01*
X20705Y3349D01*
X20620Y3300D01*
X20550Y3230D01*
X20501Y3145D01*
X20475Y3049D01*
Y2951D01*
X20501Y2855D01*
X20550Y2770D01*
X20620Y2700D01*
X20705Y2651D01*
X20801Y2625D01*
X20899D01*
X20995Y2651D01*
X21080Y2700D01*
X21150Y2770D01*
X21199Y2855D01*
X21225Y2951D01*
Y3049D01*
X21199Y3145D01*
X21150Y3230D01*
X21080Y3300D01*
X20995Y3349D01*
X20899Y3375D01*
D02*
G37*
G36*
X50684Y3650D02*
X49650D01*
Y2616D01*
X50684D01*
Y3650D01*
D02*
G37*
G36*
X49550D02*
X48516D01*
Y2616D01*
X49550D01*
Y3650D01*
D02*
G37*
G36*
X20539Y2002D02*
X20461D01*
X20383Y1986D01*
X20318Y1943D01*
X20274Y1877D01*
X20259Y1800D01*
X20274Y1723D01*
X20318Y1657D01*
X20383Y1614D01*
X20461Y1598D01*
X20539D01*
X20617Y1614D01*
X20682Y1657D01*
X20726Y1723D01*
X20741Y1800D01*
X20726Y1877D01*
X20682Y1943D01*
X20617Y1986D01*
X20539Y2002D01*
D02*
G37*
G36*
X57451Y2561D02*
X57322D01*
X57196Y2536D01*
X57076Y2486D01*
X56969Y2415D01*
X56878Y2323D01*
X56806Y2216D01*
X56757Y2097D01*
X56732Y1970D01*
Y1841D01*
X56757Y1715D01*
X56806Y1596D01*
X56878Y1488D01*
X56969Y1397D01*
X57076Y1325D01*
X57196Y1276D01*
X57322Y1251D01*
X57451D01*
X57578Y1276D01*
X57697Y1325D01*
X57804Y1397D01*
X57895Y1488D01*
X57967Y1596D01*
X58016Y1715D01*
X58042Y1841D01*
Y1970D01*
X58016Y2097D01*
X57967Y2216D01*
X57895Y2323D01*
X57804Y2415D01*
X57697Y2486D01*
X57578Y2536D01*
X57451Y2561D01*
D02*
G37*
G36*
X2333D02*
X2204D01*
X2077Y2536D01*
X1958Y2486D01*
X1851Y2415D01*
X1760Y2323D01*
X1688Y2216D01*
X1639Y2097D01*
X1613Y1970D01*
Y1841D01*
X1639Y1715D01*
X1688Y1596D01*
X1760Y1488D01*
X1851Y1397D01*
X1958Y1325D01*
X2077Y1276D01*
X2204Y1251D01*
X2333D01*
X2460Y1276D01*
X2579Y1325D01*
X2686Y1397D01*
X2777Y1488D01*
X2849Y1596D01*
X2898Y1715D01*
X2923Y1841D01*
Y1970D01*
X2898Y2097D01*
X2849Y2216D01*
X2777Y2323D01*
X2686Y2415D01*
X2579Y2486D01*
X2460Y2536D01*
X2333Y2561D01*
D02*
G37*
G36*
X39244Y4794D02*
X37156D01*
Y2900D01*
X35055Y800D01*
X20645D01*
X20382Y1063D01*
X20406Y1109D01*
X20461Y1098D01*
X20539D01*
X20617Y1114D01*
X20682Y1157D01*
X20726Y1223D01*
X20741Y1300D01*
X20726Y1377D01*
X20682Y1443D01*
X20617Y1486D01*
X20539Y1502D01*
X20461D01*
X20383Y1486D01*
X20318Y1443D01*
X20274Y1377D01*
X20259Y1300D01*
X20270Y1246D01*
X20224Y1221D01*
X17447Y3997D01*
X17403Y4027D01*
X17350Y4038D01*
X16279D01*
X16271Y4056D01*
X16221Y4121D01*
X16156Y4171D01*
X16081Y4202D01*
X16000Y4213D01*
X15700D01*
X15619Y4202D01*
X15544Y4171D01*
X15479Y4121D01*
X15429Y4056D01*
X15398Y3981D01*
X15387Y3900D01*
X15398Y3819D01*
X15429Y3744D01*
X15479Y3679D01*
X15544Y3629D01*
X15619Y3598D01*
X15700Y3587D01*
X16000D01*
X16081Y3598D01*
X16156Y3629D01*
X16221Y3679D01*
X16271Y3744D01*
X16279Y3762D01*
X17293D01*
X20491Y565D01*
X20535Y535D01*
X20588Y524D01*
X35112D01*
X35165Y535D01*
X35209Y565D01*
X37350Y2706D01*
X39244D01*
Y4794D01*
D02*
G37*
%LPD*%
D10*
X58020Y30231D02*
X57720D01*
X57620Y30331D01*
X57720Y30431D01*
X57920D01*
X58020Y30531D01*
X57920Y30631D01*
X57620D01*
X58400Y25350D02*
X58100D01*
X58000Y25450D01*
X58100Y25550D01*
X58300D01*
X58400Y25650D01*
X58300Y25750D01*
X58000D01*
X58030Y20404D02*
X57730D01*
X57630Y20504D01*
X57730Y20603D01*
X57930D01*
X58030Y20703D01*
X57930Y20803D01*
X57630D01*
X5000Y41200D02*
Y40600D01*
X5300D01*
X5400Y40700D01*
Y40800D01*
Y40900D01*
X5300Y41000D01*
X5000D01*
X5700Y40600D02*
X5900D01*
X6000Y40700D01*
Y40900D01*
X5900Y41000D01*
X5700D01*
X5600Y40900D01*
Y40700D01*
X5700Y40600D01*
X6300Y41100D02*
Y41000D01*
X6200D01*
X6400D01*
X6300D01*
Y40700D01*
X6400Y40600D01*
X6799Y41100D02*
Y41000D01*
X6699D01*
X6899D01*
X6799D01*
Y40700D01*
X6899Y40600D01*
X7299D02*
X7499D01*
X7599Y40700D01*
Y40900D01*
X7499Y41000D01*
X7299D01*
X7199Y40900D01*
Y40700D01*
X7299Y40600D01*
X7799D02*
Y41000D01*
X7899D01*
X7999Y40900D01*
Y40600D01*
Y40900D01*
X8099Y41000D01*
X8199Y40900D01*
Y40600D01*
X8999D02*
X9199D01*
X9099D01*
Y41200D01*
X8999D01*
X9599Y41000D02*
X9798D01*
X9898Y40900D01*
Y40600D01*
X9599D01*
X9499Y40700D01*
X9599Y40800D01*
X9898D01*
X10098Y41000D02*
Y40700D01*
X10198Y40600D01*
X10498D01*
Y40500D01*
X10398Y40400D01*
X10298D01*
X10498Y40600D02*
Y41000D01*
X10998Y40600D02*
X10798D01*
X10698Y40700D01*
Y40900D01*
X10798Y41000D01*
X10998D01*
X11098Y40900D01*
Y40800D01*
X10698D01*
X11298Y41000D02*
Y40600D01*
Y40800D01*
X11398Y40900D01*
X11498Y41000D01*
X11598D01*
D17*
X7700Y19394D02*
D03*
Y18606D02*
D03*
D48*
X55980Y21888D02*
X57870Y23778D01*
X55572Y21480D02*
X55980Y21888D01*
X15370Y9700D02*
X17350D01*
X13250D02*
X15370D01*
X17350Y11680D02*
X22430Y16760D01*
Y19895D01*
X21750Y20575D02*
X22430Y19895D01*
X15850Y3900D02*
X17350D01*
X20588Y662D01*
X35112D01*
X38200Y3750D01*
X54820Y22710D02*
X55970Y23860D01*
Y25578D01*
X57880Y14451D02*
X58570Y13760D01*
X57880Y14451D02*
Y18854D01*
X38580Y11750D02*
X43774Y16944D01*
X47350D01*
X37151Y11290D02*
X40798D01*
X43502Y13994D01*
X44850D01*
X35949Y10983D02*
X41479D01*
X19033Y11071D02*
X23940D01*
X17650Y28994D02*
X21750Y24894D01*
Y23150D02*
Y24894D01*
X18650Y28994D02*
X22750Y24894D01*
Y23150D02*
Y24894D01*
X19650Y28994D02*
X23750Y24894D01*
Y23150D02*
Y24894D01*
X20650Y28994D02*
X24750Y24894D01*
Y23150D02*
Y24894D01*
X21650Y28994D02*
X25750Y24894D01*
Y23150D02*
Y24894D01*
X22650Y28994D02*
X26750Y24894D01*
Y23150D02*
Y24894D01*
X850Y10360D02*
X1680Y11190D01*
X3320D01*
X4310Y10200D01*
X13900D01*
X8802Y6150D02*
X8900D01*
X8643Y6309D02*
X8802Y6150D01*
X4888Y6309D02*
X8643D01*
X2450Y8747D02*
X4888Y6309D01*
X8900Y6150D02*
X10890D01*
X10895Y6145D01*
X11451D01*
X7850Y5310D02*
X8900Y4260D01*
X4888Y5310D02*
X7850D01*
X2450Y7748D02*
X4888Y5310D01*
X8900Y4260D02*
X10830D01*
X10940Y4150D01*
X11450D01*
X2461Y16739D02*
X4328Y18606D01*
X7700D01*
X8250Y19156D01*
Y36080D01*
X9270Y37100D01*
Y38095D01*
X9075Y38290D02*
X9270Y38095D01*
X5278Y38290D02*
X9075D01*
X4838Y37850D02*
X5278Y38290D01*
X13250Y10700D02*
X17996D01*
X18267Y10429D01*
X18767D01*
X21529Y7667D01*
X15434Y10429D02*
X18267D01*
X24750Y5311D02*
X26917Y3144D01*
X28900D01*
X31600D02*
X33327D01*
X35400Y5217D01*
X21750Y20575D02*
X22655Y21480D01*
X55572D01*
X55980Y20654D02*
Y21888D01*
X57870Y23778D02*
X58640Y24548D01*
Y27911D01*
X57870Y28681D02*
X58640Y27911D01*
X54069Y28681D02*
X57870D01*
X52950Y29800D02*
X54069Y28681D01*
X5457Y8747D02*
X6410Y9700D01*
X13250D01*
X3459Y10745D02*
X5457Y8747D01*
X2450Y10745D02*
X3459D01*
X2500Y19350D02*
X7656D01*
X7700Y19394D01*
Y36712D01*
X8838Y37850D01*
X5457Y5750D02*
X8330D01*
X8620Y5460D01*
X13640D01*
X14080Y5900D01*
X15850D01*
X5457Y6749D02*
X10509D01*
X10660Y6900D01*
X15850D01*
X54200Y29050D02*
X55631Y30481D01*
X55970D01*
X5453Y16739D02*
X9110D01*
X10946Y18575D01*
X21750D01*
X5457Y15740D02*
X19860D01*
X22220Y18100D01*
Y19105D01*
X21750Y19575D02*
X22220Y19105D01*
X5010Y14189D02*
X5457Y13742D01*
X5010Y14189D02*
Y17870D01*
X5200Y18060D01*
X8325D01*
X8460Y18195D01*
Y30575D01*
X8685Y30800D01*
X52950D01*
X1810Y21660D02*
X2500Y22350D01*
X1810Y15510D02*
Y21660D01*
Y15510D02*
X2139Y15181D01*
X2700D01*
X3100Y14781D01*
Y13393D02*
Y14781D01*
X2450Y12743D02*
X3100Y13393D01*
X350Y8849D02*
X2450Y6749D01*
X350Y8849D02*
Y22200D01*
X2500Y24350D01*
X2955Y10250D02*
X5457Y7748D01*
X1800Y10250D02*
X2955D01*
X1460Y9910D02*
X1800Y10250D01*
X700Y9910D02*
X1460D01*
X560Y10050D02*
X700Y9910D01*
X560Y10050D02*
Y10890D01*
X1970Y12300D01*
X3160D01*
X3310Y12450D01*
Y16075D01*
X3155Y16230D02*
X3310Y16075D01*
X2030Y16230D02*
X3155D01*
X2020Y16240D02*
X2030Y16230D01*
X2020Y16240D02*
Y19780D01*
X2060Y19820D01*
X3230D01*
X3360Y19950D01*
Y32490D01*
X2500Y33350D02*
X3360Y32490D01*
X1600Y14592D02*
X2450Y13742D01*
X1600Y14592D02*
Y22499D01*
X2011Y22910D01*
X2775D01*
X3140Y23275D01*
Y31710D01*
X2500Y32350D02*
X3140Y31710D01*
X23650Y28994D02*
X27750Y24894D01*
Y23150D02*
Y24894D01*
X24650Y28994D02*
X28750Y24894D01*
Y23150D02*
Y24894D01*
X25650Y28994D02*
X29750Y24894D01*
Y23150D02*
Y24894D01*
X26650Y28994D02*
X30750Y24894D01*
Y23150D02*
Y24894D01*
X27650Y28994D02*
X31750Y24894D01*
Y23150D02*
Y24894D01*
X28650Y28994D02*
X32750Y24894D01*
Y23150D02*
Y24894D01*
X29650Y28994D02*
X33750Y24894D01*
Y23150D02*
Y24894D01*
X30650Y28994D02*
X34750Y24894D01*
Y23150D02*
Y24894D01*
X31650Y28994D02*
X35750Y24894D01*
Y23150D02*
Y24894D01*
X32650Y28994D02*
X36750Y24894D01*
Y23150D02*
Y24894D01*
D49*
X21529Y7667D02*
X22394D01*
X24750Y5311D01*
X28900Y3144D02*
X31600D01*
X35400Y5217D02*
X36771D01*
X39121Y7567D01*
X41771Y10217D01*
X42121D01*
X45450D01*
X45616Y10383D01*
Y13351D01*
X45433Y37100D02*
X46950Y35583D01*
X43900Y37100D02*
X45433D01*
X41450D02*
X43900D01*
X40700Y37850D02*
X41450Y37100D01*
X38600Y37850D02*
X40700D01*
X37550Y36800D02*
X38600Y37850D01*
X35900Y36800D02*
X37550D01*
X34500Y35400D02*
X35900Y36800D01*
X33706Y35400D02*
X34500D01*
X31500Y33194D02*
X33706Y35400D01*
X28950Y33194D02*
X31500D01*
X26544Y35600D02*
X28950Y33194D01*
X26150Y35600D02*
X26544D01*
X24900Y36850D02*
X26150Y35600D01*
X23150Y36850D02*
X24900D01*
X20950D02*
X23150D01*
X20000Y37800D02*
X20950Y36850D01*
X17100Y37800D02*
X20000D01*
X16600Y37300D02*
X17100Y37800D01*
X14817Y37300D02*
X16600D01*
X13200Y35683D02*
X14817Y37300D01*
D50*
X13250Y10700D02*
D03*
D51*
X13900Y10200D02*
D03*
X13250Y9700D02*
D03*
D52*
X11838Y37850D02*
D03*
D53*
X10838D02*
D03*
X9838D02*
D03*
X8838D02*
D03*
X7838D02*
D03*
X6838D02*
D03*
X5838D02*
D03*
X4838D02*
D03*
X2500Y20350D02*
D03*
Y21350D02*
D03*
Y22350D02*
D03*
Y23350D02*
D03*
Y24350D02*
D03*
Y25350D02*
D03*
Y26350D02*
D03*
Y27350D02*
D03*
Y28350D02*
D03*
Y29350D02*
D03*
Y30350D02*
D03*
Y31350D02*
D03*
Y32350D02*
D03*
Y33350D02*
D03*
Y34350D02*
D03*
X52074Y5296D02*
D03*
Y11989D02*
D03*
X58570Y13760D02*
D03*
Y4509D02*
D03*
D54*
X9650Y28894D02*
D03*
X52950Y29800D02*
D03*
X9750Y25094D02*
D03*
X50700Y24894D02*
D03*
X50750Y28794D02*
D03*
D55*
X10650Y28894D02*
D03*
X52950Y31800D02*
D03*
Y30800D02*
D03*
X10750Y25094D02*
D03*
X20000Y36800D02*
D03*
X13700Y34817D02*
D03*
X11633Y32229D02*
D03*
X44850Y13994D02*
D03*
X19650Y28994D02*
D03*
X18650D02*
D03*
X21650D02*
D03*
X22650D02*
D03*
X20650D02*
D03*
X30650D02*
D03*
X31650D02*
D03*
X32650D02*
D03*
X25650D02*
D03*
X23650D02*
D03*
X24650D02*
D03*
X28650D02*
D03*
X29650D02*
D03*
X26650D02*
D03*
X27650D02*
D03*
X11560Y21482D02*
D03*
X41479Y10983D02*
D03*
X22171Y8433D02*
D03*
X28950Y32194D02*
D03*
X26150Y34600D02*
D03*
X23150Y35850D02*
D03*
X16600Y36300D02*
D03*
X13100Y17494D02*
D03*
X16200Y14050D02*
D03*
X19033Y11071D02*
D03*
X25250Y6177D02*
D03*
X28900Y4144D02*
D03*
X31600D02*
D03*
X34900Y6083D02*
D03*
X38479Y8333D02*
D03*
X47350Y16944D02*
D03*
X48780Y20965D02*
D03*
X49700Y24894D02*
D03*
X49750Y28794D02*
D03*
X48817Y32529D02*
D03*
X46450Y34717D02*
D03*
X43900Y36100D02*
D03*
X40700Y36850D02*
D03*
X37550Y35800D02*
D03*
X34500Y34400D02*
D03*
X31500Y32194D02*
D03*
X26750Y23150D02*
D03*
X27750D02*
D03*
X28750D02*
D03*
X25750D02*
D03*
X22750D02*
D03*
X23750D02*
D03*
X24750D02*
D03*
X29750D02*
D03*
X34750D02*
D03*
X35750D02*
D03*
X33750D02*
D03*
X30750D02*
D03*
X31750D02*
D03*
X32750D02*
D03*
X36750D02*
D03*
X21750Y18575D02*
D03*
Y21575D02*
D03*
Y20575D02*
D03*
Y19575D02*
D03*
D56*
X2500Y19350D02*
D03*
D57*
X20500Y1300D02*
D03*
Y1800D02*
D03*
D58*
X20850Y4181D02*
D03*
Y3000D02*
D03*
X22700Y4181D02*
D03*
Y3000D02*
D03*
X12632Y6145D02*
D03*
X11451D02*
D03*
X12631Y4150D02*
D03*
X11450D02*
D03*
D59*
X20000Y37800D02*
D03*
X17650Y28994D02*
D03*
X28950Y33194D02*
D03*
X26150Y35600D02*
D03*
X23150Y36850D02*
D03*
X16600Y37300D02*
D03*
X28900Y3144D02*
D03*
X31600D02*
D03*
X43900Y37100D02*
D03*
X40700Y37850D02*
D03*
X37550Y36800D02*
D03*
X34500Y35400D02*
D03*
X31500Y33194D02*
D03*
X21750Y23150D02*
D03*
D60*
X13200Y35683D02*
D03*
X35400Y5217D02*
D03*
D61*
X10867Y32871D02*
D03*
X45616Y13351D02*
D03*
D62*
X42121Y10217D02*
D03*
X39121Y7567D02*
D03*
D63*
X21529Y7667D02*
D03*
D64*
X2450Y14741D02*
D03*
Y15740D02*
D03*
Y13742D02*
D03*
X5457Y9746D02*
D03*
Y10745D02*
D03*
Y11744D02*
D03*
Y12743D02*
D03*
Y13742D02*
D03*
Y14741D02*
D03*
Y15740D02*
D03*
X5453Y16739D02*
D03*
X2450Y9746D02*
D03*
Y10745D02*
D03*
Y11744D02*
D03*
Y12743D02*
D03*
Y5750D02*
D03*
Y6749D02*
D03*
Y7748D02*
D03*
Y8747D02*
D03*
X5457Y4751D02*
D03*
Y3737D02*
D03*
X2461D02*
D03*
X2450Y4751D02*
D03*
X5457Y8747D02*
D03*
Y7748D02*
D03*
Y6749D02*
D03*
Y5750D02*
D03*
D65*
X2461Y16739D02*
D03*
D66*
X8900Y6150D02*
D03*
Y4260D02*
D03*
D67*
X18850Y3900D02*
D03*
D68*
Y4900D02*
D03*
Y5900D02*
D03*
Y6900D02*
D03*
X15850Y3900D02*
D03*
Y4900D02*
D03*
Y5900D02*
D03*
Y6900D02*
D03*
D69*
X10620Y21140D02*
D03*
D70*
X12194Y17071D02*
D03*
D71*
X15434Y13407D02*
D03*
X18267Y10429D02*
D03*
X49583Y33171D02*
D03*
D72*
X24750Y5311D02*
D03*
X46950Y35583D02*
D03*
D73*
X48256Y16521D02*
D03*
D74*
X49720Y20623D02*
D03*
D75*
X57387Y1906D02*
D03*
Y37339D02*
D03*
X2269Y1906D02*
D03*
Y37339D02*
D03*
D76*
X17350Y9700D02*
D03*
X15370D02*
D03*
X17350Y11680D02*
D03*
X54820Y22710D02*
D03*
X38580Y11750D02*
D03*
X37151Y11290D02*
D03*
X35949Y10983D02*
D03*
X23940Y11071D02*
D03*
X850Y10360D02*
D03*
X15434Y10429D02*
D03*
X54200Y29050D02*
D03*
D77*
X49600Y3700D02*
D03*
X38200Y3750D02*
D03*
D78*
X57870Y28681D02*
D03*
Y32181D02*
D03*
Y23778D02*
D03*
Y27278D02*
D03*
X57880Y18854D02*
D03*
Y22354D02*
D03*
D79*
X55970Y30481D02*
D03*
Y25578D02*
D03*
X55980Y20654D02*
D03*
M02*
