G04*
G04 #@! TF.GenerationSoftware,Altium Limited,Altium Designer,21.2.1 (34)*
G04*
G04 Layer_Color=2752767*
%FSLAX24Y24*%
%MOIN*%
G70*
G04*
G04 #@! TF.SameCoordinates,E21C5DDE-85CC-462C-932C-37DFDCE46009*
G04*
G04*
G04 #@! TF.FilePolarity,Positive*
G04*
G01*
G75*
%ADD84C,0.0020*%
%ADD85C,0.0027*%
D84*
X13170Y10620D02*
Y10780D01*
X13330D01*
Y10620D01*
X13170D01*
X13820Y10120D02*
Y10280D01*
X13980D01*
Y10120D01*
X13820D01*
X13170Y9620D02*
Y9780D01*
X13330D01*
Y9620D01*
X13170D01*
X9650Y28814D02*
X9570Y28974D01*
X9730D01*
X9650Y28814D01*
X10650D02*
X10570Y28974D01*
X10730D01*
X10650Y28814D01*
X52950Y31720D02*
X52870Y31880D01*
X53030D01*
X52950Y31720D01*
Y30720D02*
X52870Y30880D01*
X53030D01*
X52950Y30720D01*
Y29720D02*
X52870Y29880D01*
X53030D01*
X52950Y29720D01*
X20500Y1220D02*
X20540Y1260D01*
X20580D01*
X20540Y1300D01*
X20580Y1340D01*
X20540D01*
X20500Y1380D01*
X20460Y1340D01*
X20420D01*
X20460Y1300D01*
X20420Y1260D01*
X20460D01*
X20500Y1220D01*
Y1720D02*
X20540Y1760D01*
X20580D01*
X20540Y1800D01*
X20580Y1840D01*
X20540D01*
X20500Y1880D01*
X20460Y1840D01*
X20420D01*
X20460Y1800D01*
X20420Y1760D01*
X20460D01*
X20500Y1720D01*
X20770Y4101D02*
X20810Y4181D01*
X20770Y4261D01*
X20850Y4221D01*
X20930Y4261D01*
X20890Y4181D01*
X20930Y4101D01*
X20850Y4141D01*
X20770Y4101D01*
Y2920D02*
X20810Y3000D01*
X20770Y3080D01*
X20850Y3040D01*
X20930Y3080D01*
X20890Y3000D01*
X20930Y2920D01*
X20850Y2960D01*
X20770Y2920D01*
X22620Y4101D02*
X22660Y4181D01*
X22620Y4261D01*
X22700Y4221D01*
X22780Y4261D01*
X22740Y4181D01*
X22780Y4101D01*
X22700Y4141D01*
X22620Y4101D01*
Y2920D02*
X22660Y3000D01*
X22620Y3080D01*
X22700Y3040D01*
X22780Y3080D01*
X22740Y3000D01*
X22780Y2920D01*
X22700Y2960D01*
X22620Y2920D01*
X9750Y25014D02*
X9670Y25174D01*
X9830D01*
X9750Y25014D01*
X10750D02*
X10670Y25174D01*
X10830D01*
X10750Y25014D01*
X20000Y37720D02*
X19920Y37880D01*
X20080D01*
X20000Y37720D01*
Y36720D02*
X19920Y36880D01*
X20080D01*
X20000Y36720D01*
X13200Y35603D02*
X13120Y35763D01*
X13280D01*
X13200Y35603D01*
X13700Y34737D02*
X13620Y34897D01*
X13780D01*
X13700Y34737D01*
X10867Y32791D02*
X10787Y32951D01*
X10947D01*
X10867Y32791D01*
X11633Y32149D02*
X11553Y32309D01*
X11713D01*
X11633Y32149D01*
X45616Y13271D02*
X45536Y13431D01*
X45696D01*
X45616Y13271D01*
X44850Y13914D02*
X44770Y14074D01*
X44930D01*
X44850Y13914D01*
X19650Y28914D02*
X19570Y29074D01*
X19730D01*
X19650Y28914D01*
X17650D02*
X17570Y29074D01*
X17730D01*
X17650Y28914D01*
X18650D02*
X18570Y29074D01*
X18730D01*
X18650Y28914D01*
X21650D02*
X21570Y29074D01*
X21730D01*
X21650Y28914D01*
X22650D02*
X22570Y29074D01*
X22730D01*
X22650Y28914D01*
X20650D02*
X20570Y29074D01*
X20730D01*
X20650Y28914D01*
X30650D02*
X30570Y29074D01*
X30730D01*
X30650Y28914D01*
X31650D02*
X31570Y29074D01*
X31730D01*
X31650Y28914D01*
X32650D02*
X32570Y29074D01*
X32730D01*
X32650Y28914D01*
X25650D02*
X25570Y29074D01*
X25730D01*
X25650Y28914D01*
X23650D02*
X23570Y29074D01*
X23730D01*
X23650Y28914D01*
X24650D02*
X24570Y29074D01*
X24730D01*
X24650Y28914D01*
X28650D02*
X28570Y29074D01*
X28730D01*
X28650Y28914D01*
X29650D02*
X29570Y29074D01*
X29730D01*
X29650Y28914D01*
X26650D02*
X26570Y29074D01*
X26730D01*
X26650Y28914D01*
X27650D02*
X27570Y29074D01*
X27730D01*
X27650Y28914D01*
X11560Y21402D02*
X11480Y21562D01*
X11640D01*
X11560Y21402D01*
X41479Y10903D02*
X41399Y11063D01*
X41559D01*
X41479Y10903D01*
X42121Y10137D02*
X42041Y10297D01*
X42201D01*
X42121Y10137D01*
X21529Y7587D02*
X21449Y7747D01*
X21609D01*
X21529Y7587D01*
X22171Y8353D02*
X22091Y8513D01*
X22251D01*
X22171Y8353D01*
X2410Y14701D02*
Y14661D01*
X2490D01*
Y14701D01*
X2530D01*
Y14781D01*
X2490D01*
Y14821D01*
X2410D01*
Y14781D01*
X2370D01*
Y14701D01*
X2410D01*
X2421Y16699D02*
Y16659D01*
X2501D01*
Y16699D01*
X2541D01*
Y16779D01*
X2501D01*
Y16819D01*
X2421D01*
Y16779D01*
X2381D01*
Y16699D01*
X2421D01*
X2410Y15700D02*
Y15660D01*
X2490D01*
Y15700D01*
X2530D01*
Y15780D01*
X2490D01*
Y15820D01*
X2410D01*
Y15780D01*
X2370D01*
Y15700D01*
X2410D01*
Y13702D02*
Y13662D01*
X2490D01*
Y13702D01*
X2530D01*
Y13782D01*
X2490D01*
Y13822D01*
X2410D01*
Y13782D01*
X2370D01*
Y13702D01*
X2410D01*
X5417Y9706D02*
Y9666D01*
X5497D01*
Y9706D01*
X5537D01*
Y9786D01*
X5497D01*
Y9826D01*
X5417D01*
Y9786D01*
X5377D01*
Y9706D01*
X5417D01*
Y10705D02*
Y10665D01*
X5497D01*
Y10705D01*
X5537D01*
Y10785D01*
X5497D01*
Y10825D01*
X5417D01*
Y10785D01*
X5377D01*
Y10705D01*
X5417D01*
Y11704D02*
Y11664D01*
X5497D01*
Y11704D01*
X5537D01*
Y11784D01*
X5497D01*
Y11824D01*
X5417D01*
Y11784D01*
X5377D01*
Y11704D01*
X5417D01*
Y12703D02*
Y12663D01*
X5497D01*
Y12703D01*
X5537D01*
Y12783D01*
X5497D01*
Y12823D01*
X5417D01*
Y12783D01*
X5377D01*
Y12703D01*
X5417D01*
Y13702D02*
Y13662D01*
X5497D01*
Y13702D01*
X5537D01*
Y13782D01*
X5497D01*
Y13822D01*
X5417D01*
Y13782D01*
X5377D01*
Y13702D01*
X5417D01*
Y14701D02*
Y14661D01*
X5497D01*
Y14701D01*
X5537D01*
Y14781D01*
X5497D01*
Y14821D01*
X5417D01*
Y14781D01*
X5377D01*
Y14701D01*
X5417D01*
Y15700D02*
Y15660D01*
X5497D01*
Y15700D01*
X5537D01*
Y15780D01*
X5497D01*
Y15820D01*
X5417D01*
Y15780D01*
X5377D01*
Y15700D01*
X5417D01*
X5413Y16699D02*
Y16659D01*
X5493D01*
Y16699D01*
X5533D01*
Y16779D01*
X5493D01*
Y16819D01*
X5413D01*
Y16779D01*
X5373D01*
Y16699D01*
X5413D01*
X2410Y9706D02*
Y9666D01*
X2490D01*
Y9706D01*
X2530D01*
Y9786D01*
X2490D01*
Y9826D01*
X2410D01*
Y9786D01*
X2370D01*
Y9706D01*
X2410D01*
Y10705D02*
Y10665D01*
X2490D01*
Y10705D01*
X2530D01*
Y10785D01*
X2490D01*
Y10825D01*
X2410D01*
Y10785D01*
X2370D01*
Y10705D01*
X2410D01*
Y11704D02*
Y11664D01*
X2490D01*
Y11704D01*
X2530D01*
Y11784D01*
X2490D01*
Y11824D01*
X2410D01*
Y11784D01*
X2370D01*
Y11704D01*
X2410D01*
Y12703D02*
Y12663D01*
X2490D01*
Y12703D01*
X2530D01*
Y12783D01*
X2490D01*
Y12823D01*
X2410D01*
Y12783D01*
X2370D01*
Y12703D01*
X2410D01*
Y5710D02*
Y5670D01*
X2490D01*
Y5710D01*
X2530D01*
Y5790D01*
X2490D01*
Y5830D01*
X2410D01*
Y5790D01*
X2370D01*
Y5710D01*
X2410D01*
Y6709D02*
Y6669D01*
X2490D01*
Y6709D01*
X2530D01*
Y6789D01*
X2490D01*
Y6829D01*
X2410D01*
Y6789D01*
X2370D01*
Y6709D01*
X2410D01*
Y7708D02*
Y7668D01*
X2490D01*
Y7708D01*
X2530D01*
Y7788D01*
X2490D01*
Y7828D01*
X2410D01*
Y7788D01*
X2370D01*
Y7708D01*
X2410D01*
Y8707D02*
Y8667D01*
X2490D01*
Y8707D01*
X2530D01*
Y8787D01*
X2490D01*
Y8827D01*
X2410D01*
Y8787D01*
X2370D01*
Y8707D01*
X2410D01*
X5417Y4711D02*
Y4671D01*
X5497D01*
Y4711D01*
X5537D01*
Y4791D01*
X5497D01*
Y4831D01*
X5417D01*
Y4791D01*
X5377D01*
Y4711D01*
X5417D01*
Y3697D02*
Y3657D01*
X5497D01*
Y3697D01*
X5537D01*
Y3777D01*
X5497D01*
Y3817D01*
X5417D01*
Y3777D01*
X5377D01*
Y3697D01*
X5417D01*
X2421D02*
Y3657D01*
X2501D01*
Y3697D01*
X2541D01*
Y3777D01*
X2501D01*
Y3817D01*
X2421D01*
Y3777D01*
X2381D01*
Y3697D01*
X2421D01*
X2410Y4711D02*
Y4671D01*
X2490D01*
Y4711D01*
X2530D01*
Y4791D01*
X2490D01*
Y4831D01*
X2410D01*
Y4791D01*
X2370D01*
Y4711D01*
X2410D01*
X5417Y8707D02*
Y8667D01*
X5497D01*
Y8707D01*
X5537D01*
Y8787D01*
X5497D01*
Y8827D01*
X5417D01*
Y8787D01*
X5377D01*
Y8707D01*
X5417D01*
Y7708D02*
Y7668D01*
X5497D01*
Y7708D01*
X5537D01*
Y7788D01*
X5497D01*
Y7828D01*
X5417D01*
Y7788D01*
X5377D01*
Y7708D01*
X5417D01*
Y6709D02*
Y6669D01*
X5497D01*
Y6709D01*
X5537D01*
Y6789D01*
X5497D01*
Y6829D01*
X5417D01*
Y6789D01*
X5377D01*
Y6709D01*
X5417D01*
Y5710D02*
Y5670D01*
X5497D01*
Y5710D01*
X5537D01*
Y5790D01*
X5497D01*
Y5830D01*
X5417D01*
Y5790D01*
X5377D01*
Y5710D01*
X5417D01*
X8820Y6070D02*
X8860Y6150D01*
X8820Y6230D01*
X8900Y6190D01*
X8980Y6230D01*
X8940Y6150D01*
X8980Y6070D01*
X8900Y6110D01*
X8820Y6070D01*
Y4180D02*
X8860Y4260D01*
X8820Y4340D01*
X8900Y4300D01*
X8980Y4340D01*
X8940Y4260D01*
X8980Y4180D01*
X8900Y4220D01*
X8820Y4180D01*
X18770Y3820D02*
X18810D01*
X18850Y3860D01*
X18890Y3820D01*
X18930D01*
Y3860D01*
X18890Y3900D01*
X18930Y3940D01*
Y3980D01*
X18890D01*
X18850Y3940D01*
X18810Y3980D01*
X18770D01*
Y3940D01*
X18810Y3900D01*
X18770Y3860D01*
Y3820D01*
Y4820D02*
X18810D01*
X18850Y4860D01*
X18890Y4820D01*
X18930D01*
Y4860D01*
X18890Y4900D01*
X18930Y4940D01*
Y4980D01*
X18890D01*
X18850Y4940D01*
X18810Y4980D01*
X18770D01*
Y4940D01*
X18810Y4900D01*
X18770Y4860D01*
Y4820D01*
Y5820D02*
X18810D01*
X18850Y5860D01*
X18890Y5820D01*
X18930D01*
Y5860D01*
X18890Y5900D01*
X18930Y5940D01*
Y5980D01*
X18890D01*
X18850Y5940D01*
X18810Y5980D01*
X18770D01*
Y5940D01*
X18810Y5900D01*
X18770Y5860D01*
Y5820D01*
Y6820D02*
X18810D01*
X18850Y6860D01*
X18890Y6820D01*
X18930D01*
Y6860D01*
X18890Y6900D01*
X18930Y6940D01*
Y6980D01*
X18890D01*
X18850Y6940D01*
X18810Y6980D01*
X18770D01*
Y6940D01*
X18810Y6900D01*
X18770Y6860D01*
Y6820D01*
X15770Y3820D02*
X15810D01*
X15850Y3860D01*
X15890Y3820D01*
X15930D01*
Y3860D01*
X15890Y3900D01*
X15930Y3940D01*
Y3980D01*
X15890D01*
X15850Y3940D01*
X15810Y3980D01*
X15770D01*
Y3940D01*
X15810Y3900D01*
X15770Y3860D01*
Y3820D01*
Y4820D02*
X15810D01*
X15850Y4860D01*
X15890Y4820D01*
X15930D01*
Y4860D01*
X15890Y4900D01*
X15930Y4940D01*
Y4980D01*
X15890D01*
X15850Y4940D01*
X15810Y4980D01*
X15770D01*
Y4940D01*
X15810Y4900D01*
X15770Y4860D01*
Y4820D01*
Y5820D02*
X15810D01*
X15850Y5860D01*
X15890Y5820D01*
X15930D01*
Y5860D01*
X15890Y5900D01*
X15930Y5940D01*
Y5980D01*
X15890D01*
X15850Y5940D01*
X15810Y5980D01*
X15770D01*
Y5940D01*
X15810Y5900D01*
X15770Y5860D01*
Y5820D01*
Y6820D02*
X15810D01*
X15850Y6860D01*
X15890Y6820D01*
X15930D01*
Y6860D01*
X15890Y6900D01*
X15930Y6940D01*
Y6980D01*
X15890D01*
X15850Y6940D01*
X15810Y6980D01*
X15770D01*
Y6940D01*
X15810Y6900D01*
X15770Y6860D01*
Y6820D01*
X12552Y6065D02*
X12592Y6145D01*
X12552Y6225D01*
X12632Y6185D01*
X12712Y6225D01*
X12672Y6145D01*
X12712Y6065D01*
X12632Y6105D01*
X12552Y6065D01*
X11371D02*
X11411Y6145D01*
X11371Y6225D01*
X11451Y6185D01*
X11531Y6225D01*
X11491Y6145D01*
X11531Y6065D01*
X11451Y6105D01*
X11371Y6065D01*
X12551Y4070D02*
X12591Y4150D01*
X12551Y4230D01*
X12631Y4190D01*
X12711Y4230D01*
X12671Y4150D01*
X12711Y4070D01*
X12631Y4110D01*
X12551Y4070D01*
X11370D02*
X11410Y4150D01*
X11370Y4230D01*
X11450Y4190D01*
X11530Y4230D01*
X11490Y4150D01*
X11530Y4070D01*
X11450Y4110D01*
X11370Y4070D01*
X28950Y32114D02*
X28870Y32274D01*
X29030D01*
X28950Y32114D01*
Y33114D02*
X28870Y33274D01*
X29030D01*
X28950Y33114D01*
X26150Y34520D02*
X26070Y34680D01*
X26230D01*
X26150Y34520D01*
Y35520D02*
X26070Y35680D01*
X26230D01*
X26150Y35520D01*
X23150Y35770D02*
X23070Y35930D01*
X23230D01*
X23150Y35770D01*
Y36770D02*
X23070Y36930D01*
X23230D01*
X23150Y36770D01*
X16600Y36220D02*
X16520Y36380D01*
X16680D01*
X16600Y36220D01*
Y37220D02*
X16520Y37380D01*
X16680D01*
X16600Y37220D01*
X10620Y21060D02*
X10540Y21220D01*
X10700D01*
X10620Y21060D01*
X13100Y17414D02*
X13020Y17574D01*
X13180D01*
X13100Y17414D01*
X12194Y16991D02*
X12114Y17151D01*
X12274D01*
X12194Y16991D01*
X15434Y13327D02*
X15354Y13487D01*
X15514D01*
X15434Y13327D01*
X16200Y13970D02*
X16120Y14130D01*
X16280D01*
X16200Y13970D01*
X19033Y10991D02*
X18953Y11151D01*
X19113D01*
X19033Y10991D01*
X18267Y10349D02*
X18187Y10509D01*
X18347D01*
X18267Y10349D01*
X25250Y6097D02*
X25170Y6257D01*
X25330D01*
X25250Y6097D01*
X24750Y5231D02*
X24670Y5391D01*
X24830D01*
X24750Y5231D01*
X28900Y4064D02*
X28820Y4224D01*
X28980D01*
X28900Y4064D01*
Y3064D02*
X28820Y3224D01*
X28980D01*
X28900Y3064D01*
X31600Y4064D02*
X31520Y4224D01*
X31680D01*
X31600Y4064D01*
Y3064D02*
X31520Y3224D01*
X31680D01*
X31600Y3064D01*
X34900Y6003D02*
X34820Y6163D01*
X34980D01*
X34900Y6003D01*
X35400Y5137D02*
X35320Y5297D01*
X35480D01*
X35400Y5137D01*
X38479Y8253D02*
X38399Y8413D01*
X38559D01*
X38479Y8253D01*
X39121Y7487D02*
X39041Y7647D01*
X39201D01*
X39121Y7487D01*
X48256Y16441D02*
X48176Y16601D01*
X48336D01*
X48256Y16441D01*
X47350Y16864D02*
X47270Y17024D01*
X47430D01*
X47350Y16864D01*
X49720Y20543D02*
X49640Y20703D01*
X49800D01*
X49720Y20543D01*
X48780Y20885D02*
X48700Y21045D01*
X48860D01*
X48780Y20885D01*
X49700Y24814D02*
X49620Y24974D01*
X49780D01*
X49700Y24814D01*
X50700D02*
X50620Y24974D01*
X50780D01*
X50700Y24814D01*
X49750Y28714D02*
X49670Y28874D01*
X49830D01*
X49750Y28714D01*
X50750D02*
X50670Y28874D01*
X50830D01*
X50750Y28714D01*
X48817Y32449D02*
X48737Y32609D01*
X48897D01*
X48817Y32449D01*
X49583Y33091D02*
X49503Y33251D01*
X49663D01*
X49583Y33091D01*
X46450Y34637D02*
X46370Y34797D01*
X46530D01*
X46450Y34637D01*
X46950Y35503D02*
X46870Y35663D01*
X47030D01*
X46950Y35503D01*
X43900Y36020D02*
X43820Y36180D01*
X43980D01*
X43900Y36020D01*
Y37020D02*
X43820Y37180D01*
X43980D01*
X43900Y37020D01*
X40700Y36770D02*
X40620Y36930D01*
X40780D01*
X40700Y36770D01*
Y37770D02*
X40620Y37930D01*
X40780D01*
X40700Y37770D01*
X37550Y35720D02*
X37470Y35880D01*
X37630D01*
X37550Y35720D01*
Y36720D02*
X37470Y36880D01*
X37630D01*
X37550Y36720D01*
X34500Y34320D02*
X34420Y34480D01*
X34580D01*
X34500Y34320D01*
Y35320D02*
X34420Y35480D01*
X34580D01*
X34500Y35320D01*
X31500Y32114D02*
X31420Y32274D01*
X31580D01*
X31500Y32114D01*
Y33114D02*
X31420Y33274D01*
X31580D01*
X31500Y33114D01*
X26750Y23070D02*
X26670Y23230D01*
X26830D01*
X26750Y23070D01*
X27750D02*
X27670Y23230D01*
X27830D01*
X27750Y23070D01*
X28750D02*
X28670Y23230D01*
X28830D01*
X28750Y23070D01*
X25750D02*
X25670Y23230D01*
X25830D01*
X25750Y23070D01*
X22750D02*
X22670Y23230D01*
X22830D01*
X22750Y23070D01*
X23750D02*
X23670Y23230D01*
X23830D01*
X23750Y23070D01*
X24750D02*
X24670Y23230D01*
X24830D01*
X24750Y23070D01*
X29750D02*
X29670Y23230D01*
X29830D01*
X29750Y23070D01*
X34750D02*
X34670Y23230D01*
X34830D01*
X34750Y23070D01*
X35750D02*
X35670Y23230D01*
X35830D01*
X35750Y23070D01*
X33750D02*
X33670Y23230D01*
X33830D01*
X33750Y23070D01*
X30750D02*
X30670Y23230D01*
X30830D01*
X30750Y23070D01*
X31750D02*
X31670Y23230D01*
X31830D01*
X31750Y23070D01*
X32750D02*
X32670Y23230D01*
X32830D01*
X32750Y23070D01*
X21750D02*
X21670Y23230D01*
X21830D01*
X21750Y23070D01*
X36750D02*
X36670Y23230D01*
X36830D01*
X36750Y23070D01*
X21750Y18495D02*
X21670Y18655D01*
X21830D01*
X21750Y18495D01*
Y21495D02*
X21670Y21655D01*
X21830D01*
X21750Y21495D01*
Y20495D02*
X21670Y20655D01*
X21830D01*
X21750Y20495D01*
Y19495D02*
X21670Y19655D01*
X21830D01*
X21750Y19495D01*
X57307Y1906D02*
X57387Y1986D01*
X57467Y1906D01*
X57387Y1826D01*
X57307Y1906D01*
Y37339D02*
X57387Y37419D01*
X57467Y37339D01*
X57387Y37259D01*
X57307Y37339D01*
X2189Y1906D02*
X2269Y1986D01*
X2349Y1906D01*
X2269Y1826D01*
X2189Y1906D01*
Y37339D02*
X2269Y37419D01*
X2349Y37339D01*
X2269Y37259D01*
X2189Y37339D01*
X17270Y9620D02*
Y9780D01*
X17430D01*
Y9620D01*
X17270D01*
X17310Y9660D02*
Y9740D01*
X17390D01*
Y9660D01*
X17310D01*
X15290Y9620D02*
Y9780D01*
X15450D01*
Y9620D01*
X15290D01*
X15330Y9660D02*
Y9740D01*
X15410D01*
Y9660D01*
X15330D01*
X17270Y11600D02*
Y11760D01*
X17430D01*
Y11600D01*
X17270D01*
X17310Y11640D02*
Y11720D01*
X17390D01*
Y11640D01*
X17310D01*
X54740Y22630D02*
Y22790D01*
X54900D01*
Y22630D01*
X54740D01*
X54780Y22670D02*
Y22750D01*
X54860D01*
Y22670D01*
X54780D01*
X38500Y11670D02*
Y11830D01*
X38660D01*
Y11670D01*
X38500D01*
X38540Y11710D02*
Y11790D01*
X38620D01*
Y11710D01*
X38540D01*
X37071Y11210D02*
Y11370D01*
X37231D01*
Y11210D01*
X37071D01*
X37111Y11250D02*
Y11330D01*
X37191D01*
Y11250D01*
X37111D01*
X35869Y10903D02*
Y11063D01*
X36029D01*
Y10903D01*
X35869D01*
X35909Y10943D02*
Y11023D01*
X35989D01*
Y10943D01*
X35909D01*
X23860Y10991D02*
Y11151D01*
X24020D01*
Y10991D01*
X23860D01*
X23900Y11031D02*
Y11111D01*
X23980D01*
Y11031D01*
X23900D01*
X770Y10280D02*
Y10440D01*
X930D01*
Y10280D01*
X770D01*
X810Y10320D02*
Y10400D01*
X890D01*
Y10320D01*
X810D01*
X15354Y10349D02*
Y10509D01*
X15514D01*
Y10349D01*
X15354D01*
X15394Y10389D02*
Y10469D01*
X15474D01*
Y10389D01*
X15394D01*
X54120Y28970D02*
Y29130D01*
X54280D01*
Y28970D01*
X54120D01*
X54160Y29010D02*
Y29090D01*
X54240D01*
Y29010D01*
X54160D01*
D85*
X11918Y37850D02*
G03*
X11918Y37850I-80J0D01*
G01*
X10918D02*
G03*
X10918Y37850I-80J0D01*
G01*
X9918D02*
G03*
X9918Y37850I-80J0D01*
G01*
X8918D02*
G03*
X8918Y37850I-80J0D01*
G01*
X7918D02*
G03*
X7918Y37850I-80J0D01*
G01*
X6918D02*
G03*
X6918Y37850I-80J0D01*
G01*
X5918D02*
G03*
X5918Y37850I-80J0D01*
G01*
X4918D02*
G03*
X4918Y37850I-80J0D01*
G01*
X2580Y19350D02*
G03*
X2580Y19350I-80J0D01*
G01*
Y20350D02*
G03*
X2580Y20350I-80J0D01*
G01*
Y21350D02*
G03*
X2580Y21350I-80J0D01*
G01*
Y22350D02*
G03*
X2580Y22350I-80J0D01*
G01*
Y23350D02*
G03*
X2580Y23350I-80J0D01*
G01*
Y24350D02*
G03*
X2580Y24350I-80J0D01*
G01*
Y25350D02*
G03*
X2580Y25350I-80J0D01*
G01*
Y26350D02*
G03*
X2580Y26350I-80J0D01*
G01*
Y27350D02*
G03*
X2580Y27350I-80J0D01*
G01*
Y28350D02*
G03*
X2580Y28350I-80J0D01*
G01*
Y29350D02*
G03*
X2580Y29350I-80J0D01*
G01*
Y30350D02*
G03*
X2580Y30350I-80J0D01*
G01*
Y31350D02*
G03*
X2580Y31350I-80J0D01*
G01*
Y32350D02*
G03*
X2580Y32350I-80J0D01*
G01*
Y33350D02*
G03*
X2580Y33350I-80J0D01*
G01*
Y34350D02*
G03*
X2580Y34350I-80J0D01*
G01*
X52154Y5296D02*
G03*
X52154Y5296I-80J0D01*
G01*
Y11989D02*
G03*
X52154Y11989I-80J0D01*
G01*
X58650Y13760D02*
G03*
X58650Y13760I-80J0D01*
G01*
Y4509D02*
G03*
X58650Y4509I-80J0D01*
G01*
M02*
