G04*
G04 #@! TF.GenerationSoftware,Altium Limited,Altium Designer,21.2.1 (34)*
G04*
G04 Layer_Color=2752767*
%FSLAX24Y24*%
%MOIN*%
G70*
G04*
G04 #@! TF.SameCoordinates,50E8038E-39F9-4302-AF09-D4DFFB075F86*
G04*
G04*
G04 #@! TF.FilePolarity,Positive*
G04*
G01*
G75*
%ADD84C,0.0020*%
%ADD85C,0.0027*%
D84*
X9570Y28814D02*
Y28974D01*
X9730D01*
Y28814D01*
X9570D01*
X10570D02*
Y28974D01*
X10730D01*
Y28814D01*
X10570D01*
X52870Y31720D02*
Y31880D01*
X53030D01*
Y31720D01*
X52870D01*
Y30720D02*
Y30880D01*
X53030D01*
Y30720D01*
X52870D01*
Y29720D02*
Y29880D01*
X53030D01*
Y29720D01*
X52870D01*
X20500Y1220D02*
X20420Y1380D01*
X20580D01*
X20500Y1220D01*
Y1720D02*
X20420Y1880D01*
X20580D01*
X20500Y1720D01*
X20850Y4101D02*
X20890Y4141D01*
X20930D01*
X20890Y4181D01*
X20930Y4221D01*
X20890D01*
X20850Y4261D01*
X20810Y4221D01*
X20770D01*
X20810Y4181D01*
X20770Y4141D01*
X20810D01*
X20850Y4101D01*
Y2920D02*
X20890Y2960D01*
X20930D01*
X20890Y3000D01*
X20930Y3040D01*
X20890D01*
X20850Y3080D01*
X20810Y3040D01*
X20770D01*
X20810Y3000D01*
X20770Y2960D01*
X20810D01*
X20850Y2920D01*
X22700Y4101D02*
X22740Y4141D01*
X22780D01*
X22740Y4181D01*
X22780Y4221D01*
X22740D01*
X22700Y4261D01*
X22660Y4221D01*
X22620D01*
X22660Y4181D01*
X22620Y4141D01*
X22660D01*
X22700Y4101D01*
Y2920D02*
X22740Y2960D01*
X22780D01*
X22740Y3000D01*
X22780Y3040D01*
X22740D01*
X22700Y3080D01*
X22660Y3040D01*
X22620D01*
X22660Y3000D01*
X22620Y2960D01*
X22660D01*
X22700Y2920D01*
X9670Y25014D02*
Y25174D01*
X9830D01*
Y25014D01*
X9670D01*
X10670D02*
Y25174D01*
X10830D01*
Y25014D01*
X10670D01*
X19920Y37720D02*
Y37880D01*
X20080D01*
Y37720D01*
X19920D01*
Y36720D02*
Y36880D01*
X20080D01*
Y36720D01*
X19920D01*
X13120Y35603D02*
Y35763D01*
X13280D01*
Y35603D01*
X13120D01*
X13620Y34737D02*
Y34897D01*
X13780D01*
Y34737D01*
X13620D01*
X10787Y32791D02*
Y32951D01*
X10947D01*
Y32791D01*
X10787D01*
X11553Y32149D02*
Y32309D01*
X11713D01*
Y32149D01*
X11553D01*
X45536Y13271D02*
Y13431D01*
X45696D01*
Y13271D01*
X45536D01*
X44770Y13914D02*
Y14074D01*
X44930D01*
Y13914D01*
X44770D01*
X19570Y28914D02*
Y29074D01*
X19730D01*
Y28914D01*
X19570D01*
X17570D02*
Y29074D01*
X17730D01*
Y28914D01*
X17570D01*
X18570D02*
Y29074D01*
X18730D01*
Y28914D01*
X18570D01*
X21570D02*
Y29074D01*
X21730D01*
Y28914D01*
X21570D01*
X22570D02*
Y29074D01*
X22730D01*
Y28914D01*
X22570D01*
X20570D02*
Y29074D01*
X20730D01*
Y28914D01*
X20570D01*
X30570D02*
Y29074D01*
X30730D01*
Y28914D01*
X30570D01*
X31570D02*
Y29074D01*
X31730D01*
Y28914D01*
X31570D01*
X32570D02*
Y29074D01*
X32730D01*
Y28914D01*
X32570D01*
X25570D02*
Y29074D01*
X25730D01*
Y28914D01*
X25570D01*
X23570D02*
Y29074D01*
X23730D01*
Y28914D01*
X23570D01*
X24570D02*
Y29074D01*
X24730D01*
Y28914D01*
X24570D01*
X28570D02*
Y29074D01*
X28730D01*
Y28914D01*
X28570D01*
X29570D02*
Y29074D01*
X29730D01*
Y28914D01*
X29570D01*
X26570D02*
Y29074D01*
X26730D01*
Y28914D01*
X26570D01*
X27570D02*
Y29074D01*
X27730D01*
Y28914D01*
X27570D01*
X11480Y21402D02*
Y21562D01*
X11640D01*
Y21402D01*
X11480D01*
X41399Y10903D02*
Y11063D01*
X41559D01*
Y10903D01*
X41399D01*
X42041Y10137D02*
Y10297D01*
X42201D01*
Y10137D01*
X42041D01*
X21449Y7587D02*
Y7747D01*
X21609D01*
Y7587D01*
X21449D01*
X22091Y8353D02*
Y8513D01*
X22251D01*
Y8353D01*
X22091D01*
X2370Y14661D02*
X2410Y14741D01*
X2370Y14821D01*
X2450Y14781D01*
X2530Y14821D01*
X2490Y14741D01*
X2530Y14661D01*
X2450Y14701D01*
X2370Y14661D01*
X2381Y16659D02*
X2421Y16739D01*
X2381Y16819D01*
X2461Y16779D01*
X2541Y16819D01*
X2501Y16739D01*
X2541Y16659D01*
X2461Y16699D01*
X2381Y16659D01*
X2370Y15660D02*
X2410Y15740D01*
X2370Y15820D01*
X2450Y15780D01*
X2530Y15820D01*
X2490Y15740D01*
X2530Y15660D01*
X2450Y15700D01*
X2370Y15660D01*
Y13662D02*
X2410Y13742D01*
X2370Y13822D01*
X2450Y13782D01*
X2530Y13822D01*
X2490Y13742D01*
X2530Y13662D01*
X2450Y13702D01*
X2370Y13662D01*
X5377Y9666D02*
X5417Y9746D01*
X5377Y9826D01*
X5457Y9786D01*
X5537Y9826D01*
X5497Y9746D01*
X5537Y9666D01*
X5457Y9706D01*
X5377Y9666D01*
Y10665D02*
X5417Y10745D01*
X5377Y10825D01*
X5457Y10785D01*
X5537Y10825D01*
X5497Y10745D01*
X5537Y10665D01*
X5457Y10705D01*
X5377Y10665D01*
Y11664D02*
X5417Y11744D01*
X5377Y11824D01*
X5457Y11784D01*
X5537Y11824D01*
X5497Y11744D01*
X5537Y11664D01*
X5457Y11704D01*
X5377Y11664D01*
Y12663D02*
X5417Y12743D01*
X5377Y12823D01*
X5457Y12783D01*
X5537Y12823D01*
X5497Y12743D01*
X5537Y12663D01*
X5457Y12703D01*
X5377Y12663D01*
Y13662D02*
X5417Y13742D01*
X5377Y13822D01*
X5457Y13782D01*
X5537Y13822D01*
X5497Y13742D01*
X5537Y13662D01*
X5457Y13702D01*
X5377Y13662D01*
Y14661D02*
X5417Y14741D01*
X5377Y14821D01*
X5457Y14781D01*
X5537Y14821D01*
X5497Y14741D01*
X5537Y14661D01*
X5457Y14701D01*
X5377Y14661D01*
Y15660D02*
X5417Y15740D01*
X5377Y15820D01*
X5457Y15780D01*
X5537Y15820D01*
X5497Y15740D01*
X5537Y15660D01*
X5457Y15700D01*
X5377Y15660D01*
X5373Y16659D02*
X5413Y16739D01*
X5373Y16819D01*
X5453Y16779D01*
X5533Y16819D01*
X5493Y16739D01*
X5533Y16659D01*
X5453Y16699D01*
X5373Y16659D01*
X2370Y9666D02*
X2410Y9746D01*
X2370Y9826D01*
X2450Y9786D01*
X2530Y9826D01*
X2490Y9746D01*
X2530Y9666D01*
X2450Y9706D01*
X2370Y9666D01*
Y10665D02*
X2410Y10745D01*
X2370Y10825D01*
X2450Y10785D01*
X2530Y10825D01*
X2490Y10745D01*
X2530Y10665D01*
X2450Y10705D01*
X2370Y10665D01*
Y11664D02*
X2410Y11744D01*
X2370Y11824D01*
X2450Y11784D01*
X2530Y11824D01*
X2490Y11744D01*
X2530Y11664D01*
X2450Y11704D01*
X2370Y11664D01*
Y12663D02*
X2410Y12743D01*
X2370Y12823D01*
X2450Y12783D01*
X2530Y12823D01*
X2490Y12743D01*
X2530Y12663D01*
X2450Y12703D01*
X2370Y12663D01*
Y5670D02*
X2410Y5750D01*
X2370Y5830D01*
X2450Y5790D01*
X2530Y5830D01*
X2490Y5750D01*
X2530Y5670D01*
X2450Y5710D01*
X2370Y5670D01*
Y6669D02*
X2410Y6749D01*
X2370Y6829D01*
X2450Y6789D01*
X2530Y6829D01*
X2490Y6749D01*
X2530Y6669D01*
X2450Y6709D01*
X2370Y6669D01*
Y7668D02*
X2410Y7748D01*
X2370Y7828D01*
X2450Y7788D01*
X2530Y7828D01*
X2490Y7748D01*
X2530Y7668D01*
X2450Y7708D01*
X2370Y7668D01*
Y8667D02*
X2410Y8747D01*
X2370Y8827D01*
X2450Y8787D01*
X2530Y8827D01*
X2490Y8747D01*
X2530Y8667D01*
X2450Y8707D01*
X2370Y8667D01*
X5377Y4671D02*
X5417Y4751D01*
X5377Y4831D01*
X5457Y4791D01*
X5537Y4831D01*
X5497Y4751D01*
X5537Y4671D01*
X5457Y4711D01*
X5377Y4671D01*
Y3657D02*
X5417Y3737D01*
X5377Y3817D01*
X5457Y3777D01*
X5537Y3817D01*
X5497Y3737D01*
X5537Y3657D01*
X5457Y3697D01*
X5377Y3657D01*
X2381D02*
X2421Y3737D01*
X2381Y3817D01*
X2461Y3777D01*
X2541Y3817D01*
X2501Y3737D01*
X2541Y3657D01*
X2461Y3697D01*
X2381Y3657D01*
X2370Y4671D02*
X2410Y4751D01*
X2370Y4831D01*
X2450Y4791D01*
X2530Y4831D01*
X2490Y4751D01*
X2530Y4671D01*
X2450Y4711D01*
X2370Y4671D01*
X5377Y8667D02*
X5417Y8747D01*
X5377Y8827D01*
X5457Y8787D01*
X5537Y8827D01*
X5497Y8747D01*
X5537Y8667D01*
X5457Y8707D01*
X5377Y8667D01*
Y7668D02*
X5417Y7748D01*
X5377Y7828D01*
X5457Y7788D01*
X5537Y7828D01*
X5497Y7748D01*
X5537Y7668D01*
X5457Y7708D01*
X5377Y7668D01*
Y6669D02*
X5417Y6749D01*
X5377Y6829D01*
X5457Y6789D01*
X5537Y6829D01*
X5497Y6749D01*
X5537Y6669D01*
X5457Y6709D01*
X5377Y6669D01*
Y5670D02*
X5417Y5750D01*
X5377Y5830D01*
X5457Y5790D01*
X5537Y5830D01*
X5497Y5750D01*
X5537Y5670D01*
X5457Y5710D01*
X5377Y5670D01*
X13290Y10660D02*
Y10620D01*
X13370D01*
Y10660D01*
X13410D01*
Y10740D01*
X13370D01*
Y10780D01*
X13290D01*
Y10740D01*
X13250D01*
Y10660D01*
X13290D01*
Y10160D02*
Y10120D01*
X13370D01*
Y10160D01*
X13410D01*
Y10240D01*
X13370D01*
Y10280D01*
X13290D01*
Y10240D01*
X13250D01*
Y10160D01*
X13290D01*
Y9660D02*
Y9620D01*
X13370D01*
Y9660D01*
X13410D01*
Y9740D01*
X13370D01*
Y9780D01*
X13290D01*
Y9740D01*
X13250D01*
Y9660D01*
X13290D01*
X8900Y6070D02*
X8940Y6110D01*
X8980D01*
X8940Y6150D01*
X8980Y6190D01*
X8940D01*
X8900Y6230D01*
X8860Y6190D01*
X8820D01*
X8860Y6150D01*
X8820Y6110D01*
X8860D01*
X8900Y6070D01*
Y4180D02*
X8940Y4220D01*
X8980D01*
X8940Y4260D01*
X8980Y4300D01*
X8940D01*
X8900Y4340D01*
X8860Y4300D01*
X8820D01*
X8860Y4260D01*
X8820Y4220D01*
X8860D01*
X8900Y4180D01*
X18770Y3820D02*
X18810D01*
X18850Y3860D01*
X18890Y3820D01*
X18930D01*
Y3860D01*
X18890Y3900D01*
X18930Y3940D01*
Y3980D01*
X18890D01*
X18850Y3940D01*
X18810Y3980D01*
X18770D01*
Y3940D01*
X18810Y3900D01*
X18770Y3860D01*
Y3820D01*
Y4820D02*
X18810D01*
X18850Y4860D01*
X18890Y4820D01*
X18930D01*
Y4860D01*
X18890Y4900D01*
X18930Y4940D01*
Y4980D01*
X18890D01*
X18850Y4940D01*
X18810Y4980D01*
X18770D01*
Y4940D01*
X18810Y4900D01*
X18770Y4860D01*
Y4820D01*
Y5820D02*
X18810D01*
X18850Y5860D01*
X18890Y5820D01*
X18930D01*
Y5860D01*
X18890Y5900D01*
X18930Y5940D01*
Y5980D01*
X18890D01*
X18850Y5940D01*
X18810Y5980D01*
X18770D01*
Y5940D01*
X18810Y5900D01*
X18770Y5860D01*
Y5820D01*
Y6820D02*
X18810D01*
X18850Y6860D01*
X18890Y6820D01*
X18930D01*
Y6860D01*
X18890Y6900D01*
X18930Y6940D01*
Y6980D01*
X18890D01*
X18850Y6940D01*
X18810Y6980D01*
X18770D01*
Y6940D01*
X18810Y6900D01*
X18770Y6860D01*
Y6820D01*
X15770Y3820D02*
X15810D01*
X15850Y3860D01*
X15890Y3820D01*
X15930D01*
Y3860D01*
X15890Y3900D01*
X15930Y3940D01*
Y3980D01*
X15890D01*
X15850Y3940D01*
X15810Y3980D01*
X15770D01*
Y3940D01*
X15810Y3900D01*
X15770Y3860D01*
Y3820D01*
Y4820D02*
X15810D01*
X15850Y4860D01*
X15890Y4820D01*
X15930D01*
Y4860D01*
X15890Y4900D01*
X15930Y4940D01*
Y4980D01*
X15890D01*
X15850Y4940D01*
X15810Y4980D01*
X15770D01*
Y4940D01*
X15810Y4900D01*
X15770Y4860D01*
Y4820D01*
Y5820D02*
X15810D01*
X15850Y5860D01*
X15890Y5820D01*
X15930D01*
Y5860D01*
X15890Y5900D01*
X15930Y5940D01*
Y5980D01*
X15890D01*
X15850Y5940D01*
X15810Y5980D01*
X15770D01*
Y5940D01*
X15810Y5900D01*
X15770Y5860D01*
Y5820D01*
Y6820D02*
X15810D01*
X15850Y6860D01*
X15890Y6820D01*
X15930D01*
Y6860D01*
X15890Y6900D01*
X15930Y6940D01*
Y6980D01*
X15890D01*
X15850Y6940D01*
X15810Y6980D01*
X15770D01*
Y6940D01*
X15810Y6900D01*
X15770Y6860D01*
Y6820D01*
X12632Y6065D02*
X12672Y6105D01*
X12712D01*
X12672Y6145D01*
X12712Y6185D01*
X12672D01*
X12632Y6225D01*
X12592Y6185D01*
X12552D01*
X12592Y6145D01*
X12552Y6105D01*
X12592D01*
X12632Y6065D01*
X11451D02*
X11491Y6105D01*
X11531D01*
X11491Y6145D01*
X11531Y6185D01*
X11491D01*
X11451Y6225D01*
X11411Y6185D01*
X11371D01*
X11411Y6145D01*
X11371Y6105D01*
X11411D01*
X11451Y6065D01*
X12631Y4070D02*
X12671Y4110D01*
X12711D01*
X12671Y4150D01*
X12711Y4190D01*
X12671D01*
X12631Y4230D01*
X12591Y4190D01*
X12551D01*
X12591Y4150D01*
X12551Y4110D01*
X12591D01*
X12631Y4070D01*
X11450D02*
X11490Y4110D01*
X11530D01*
X11490Y4150D01*
X11530Y4190D01*
X11490D01*
X11450Y4230D01*
X11410Y4190D01*
X11370D01*
X11410Y4150D01*
X11370Y4110D01*
X11410D01*
X11450Y4070D01*
X28870Y32114D02*
Y32274D01*
X29030D01*
Y32114D01*
X28870D01*
Y33114D02*
Y33274D01*
X29030D01*
Y33114D01*
X28870D01*
X26070Y34520D02*
Y34680D01*
X26230D01*
Y34520D01*
X26070D01*
Y35520D02*
Y35680D01*
X26230D01*
Y35520D01*
X26070D01*
X23070Y35770D02*
Y35930D01*
X23230D01*
Y35770D01*
X23070D01*
Y36770D02*
Y36930D01*
X23230D01*
Y36770D01*
X23070D01*
X16520Y36220D02*
Y36380D01*
X16680D01*
Y36220D01*
X16520D01*
Y37220D02*
Y37380D01*
X16680D01*
Y37220D01*
X16520D01*
X10540Y21060D02*
Y21220D01*
X10700D01*
Y21060D01*
X10540D01*
X13020Y17414D02*
Y17574D01*
X13180D01*
Y17414D01*
X13020D01*
X12114Y16991D02*
Y17151D01*
X12274D01*
Y16991D01*
X12114D01*
X15354Y13327D02*
Y13487D01*
X15514D01*
Y13327D01*
X15354D01*
X16120Y13970D02*
Y14130D01*
X16280D01*
Y13970D01*
X16120D01*
X18953Y10991D02*
Y11151D01*
X19113D01*
Y10991D01*
X18953D01*
X18187Y10349D02*
Y10509D01*
X18347D01*
Y10349D01*
X18187D01*
X25170Y6097D02*
Y6257D01*
X25330D01*
Y6097D01*
X25170D01*
X24670Y5231D02*
Y5391D01*
X24830D01*
Y5231D01*
X24670D01*
X28820Y4064D02*
Y4224D01*
X28980D01*
Y4064D01*
X28820D01*
Y3064D02*
Y3224D01*
X28980D01*
Y3064D01*
X28820D01*
X31520Y4064D02*
Y4224D01*
X31680D01*
Y4064D01*
X31520D01*
Y3064D02*
Y3224D01*
X31680D01*
Y3064D01*
X31520D01*
X34820Y6003D02*
Y6163D01*
X34980D01*
Y6003D01*
X34820D01*
X35320Y5137D02*
Y5297D01*
X35480D01*
Y5137D01*
X35320D01*
X38399Y8253D02*
Y8413D01*
X38559D01*
Y8253D01*
X38399D01*
X39041Y7487D02*
Y7647D01*
X39201D01*
Y7487D01*
X39041D01*
X48176Y16441D02*
Y16601D01*
X48336D01*
Y16441D01*
X48176D01*
X47270Y16864D02*
Y17024D01*
X47430D01*
Y16864D01*
X47270D01*
X49640Y20543D02*
Y20703D01*
X49800D01*
Y20543D01*
X49640D01*
X48700Y20885D02*
Y21045D01*
X48860D01*
Y20885D01*
X48700D01*
X49620Y24814D02*
Y24974D01*
X49780D01*
Y24814D01*
X49620D01*
X50620D02*
Y24974D01*
X50780D01*
Y24814D01*
X50620D01*
X49670Y28714D02*
Y28874D01*
X49830D01*
Y28714D01*
X49670D01*
X50670D02*
Y28874D01*
X50830D01*
Y28714D01*
X50670D01*
X48737Y32449D02*
Y32609D01*
X48897D01*
Y32449D01*
X48737D01*
X49503Y33091D02*
Y33251D01*
X49663D01*
Y33091D01*
X49503D01*
X46370Y34637D02*
Y34797D01*
X46530D01*
Y34637D01*
X46370D01*
X46870Y35503D02*
Y35663D01*
X47030D01*
Y35503D01*
X46870D01*
X43820Y36020D02*
Y36180D01*
X43980D01*
Y36020D01*
X43820D01*
Y37020D02*
Y37180D01*
X43980D01*
Y37020D01*
X43820D01*
X40620Y36770D02*
Y36930D01*
X40780D01*
Y36770D01*
X40620D01*
Y37770D02*
Y37930D01*
X40780D01*
Y37770D01*
X40620D01*
X37470Y35720D02*
Y35880D01*
X37630D01*
Y35720D01*
X37470D01*
Y36720D02*
Y36880D01*
X37630D01*
Y36720D01*
X37470D01*
X34420Y34320D02*
Y34480D01*
X34580D01*
Y34320D01*
X34420D01*
Y35320D02*
Y35480D01*
X34580D01*
Y35320D01*
X34420D01*
X31420Y32114D02*
Y32274D01*
X31580D01*
Y32114D01*
X31420D01*
Y33114D02*
Y33274D01*
X31580D01*
Y33114D01*
X31420D01*
X26670Y23070D02*
Y23230D01*
X26830D01*
Y23070D01*
X26670D01*
X27670D02*
Y23230D01*
X27830D01*
Y23070D01*
X27670D01*
X28670D02*
Y23230D01*
X28830D01*
Y23070D01*
X28670D01*
X25670D02*
Y23230D01*
X25830D01*
Y23070D01*
X25670D01*
X22670D02*
Y23230D01*
X22830D01*
Y23070D01*
X22670D01*
X23670D02*
Y23230D01*
X23830D01*
Y23070D01*
X23670D01*
X24670D02*
Y23230D01*
X24830D01*
Y23070D01*
X24670D01*
X29670D02*
Y23230D01*
X29830D01*
Y23070D01*
X29670D01*
X34670D02*
Y23230D01*
X34830D01*
Y23070D01*
X34670D01*
X35670D02*
Y23230D01*
X35830D01*
Y23070D01*
X35670D01*
X33670D02*
Y23230D01*
X33830D01*
Y23070D01*
X33670D01*
X30670D02*
Y23230D01*
X30830D01*
Y23070D01*
X30670D01*
X31670D02*
Y23230D01*
X31830D01*
Y23070D01*
X31670D01*
X32670D02*
Y23230D01*
X32830D01*
Y23070D01*
X32670D01*
X21670D02*
Y23230D01*
X21830D01*
Y23070D01*
X21670D01*
X36670D02*
Y23230D01*
X36830D01*
Y23070D01*
X36670D01*
X21670Y18495D02*
Y18655D01*
X21830D01*
Y18495D01*
X21670D01*
Y21495D02*
Y21655D01*
X21830D01*
Y21495D01*
X21670D01*
Y20495D02*
Y20655D01*
X21830D01*
Y20495D01*
X21670D01*
Y19495D02*
Y19655D01*
X21830D01*
Y19495D01*
X21670D01*
X57307Y1512D02*
X57387Y1592D01*
X57467Y1512D01*
X57387Y1432D01*
X57307Y1512D01*
Y36945D02*
X57387Y37025D01*
X57467Y36945D01*
X57387Y36865D01*
X57307Y36945D01*
X2189Y1512D02*
X2269Y1592D01*
X2349Y1512D01*
X2269Y1432D01*
X2189Y1512D01*
Y36945D02*
X2269Y37025D01*
X2349Y36945D01*
X2269Y36865D01*
X2189Y36945D01*
X19510Y20490D02*
Y20650D01*
X19670D01*
Y20490D01*
X19510D01*
X19550Y20530D02*
Y20610D01*
X19630D01*
Y20530D01*
X19550D01*
X54740Y22630D02*
Y22790D01*
X54900D01*
Y22630D01*
X54740D01*
X54780Y22670D02*
Y22750D01*
X54860D01*
Y22670D01*
X54780D01*
X22140Y24490D02*
Y24650D01*
X22300D01*
Y24490D01*
X22140D01*
X22180Y24530D02*
Y24610D01*
X22260D01*
Y24530D01*
X22180D01*
X50461Y12457D02*
Y12617D01*
X50621D01*
Y12457D01*
X50461D01*
X50501Y12497D02*
Y12577D01*
X50581D01*
Y12497D01*
X50501D01*
X38500Y11670D02*
Y11830D01*
X38660D01*
Y11670D01*
X38500D01*
X38540Y11710D02*
Y11790D01*
X38620D01*
Y11710D01*
X38540D01*
X37071Y11210D02*
Y11370D01*
X37231D01*
Y11210D01*
X37071D01*
X37111Y11250D02*
Y11330D01*
X37191D01*
Y11250D01*
X37111D01*
X35869Y10903D02*
Y11063D01*
X36029D01*
Y10903D01*
X35869D01*
X35909Y10943D02*
Y11023D01*
X35989D01*
Y10943D01*
X35909D01*
X23860Y10991D02*
Y11151D01*
X24020D01*
Y10991D01*
X23860D01*
X23900Y11031D02*
Y11111D01*
X23980D01*
Y11031D01*
X23900D01*
X770Y10400D02*
Y10560D01*
X930D01*
Y10400D01*
X770D01*
X810Y10440D02*
Y10520D01*
X890D01*
Y10440D01*
X810D01*
X15354Y10349D02*
Y10509D01*
X15514D01*
Y10349D01*
X15354D01*
X15394Y10389D02*
Y10469D01*
X15474D01*
Y10389D01*
X15394D01*
X54120Y28970D02*
Y29130D01*
X54280D01*
Y28970D01*
X54120D01*
X54160Y29010D02*
Y29090D01*
X54240D01*
Y29010D01*
X54160D01*
D85*
X2580Y19350D02*
G03*
X2580Y19350I-80J0D01*
G01*
Y20350D02*
G03*
X2580Y20350I-80J0D01*
G01*
Y21350D02*
G03*
X2580Y21350I-80J0D01*
G01*
Y22350D02*
G03*
X2580Y22350I-80J0D01*
G01*
Y23350D02*
G03*
X2580Y23350I-80J0D01*
G01*
Y24350D02*
G03*
X2580Y24350I-80J0D01*
G01*
Y25350D02*
G03*
X2580Y25350I-80J0D01*
G01*
Y26350D02*
G03*
X2580Y26350I-80J0D01*
G01*
Y27350D02*
G03*
X2580Y27350I-80J0D01*
G01*
Y28350D02*
G03*
X2580Y28350I-80J0D01*
G01*
Y29350D02*
G03*
X2580Y29350I-80J0D01*
G01*
Y30350D02*
G03*
X2580Y30350I-80J0D01*
G01*
Y31350D02*
G03*
X2580Y31350I-80J0D01*
G01*
Y32350D02*
G03*
X2580Y32350I-80J0D01*
G01*
Y33350D02*
G03*
X2580Y33350I-80J0D01*
G01*
Y34350D02*
G03*
X2580Y34350I-80J0D01*
G01*
X11830Y37850D02*
G03*
X11830Y37850I-80J0D01*
G01*
X10830D02*
G03*
X10830Y37850I-80J0D01*
G01*
X9830D02*
G03*
X9830Y37850I-80J0D01*
G01*
X8830D02*
G03*
X8830Y37850I-80J0D01*
G01*
X7830D02*
G03*
X7830Y37850I-80J0D01*
G01*
X6830D02*
G03*
X6830Y37850I-80J0D01*
G01*
X5830D02*
G03*
X5830Y37850I-80J0D01*
G01*
X4830D02*
G03*
X4830Y37850I-80J0D01*
G01*
X52154Y5296D02*
G03*
X52154Y5296I-80J0D01*
G01*
Y11989D02*
G03*
X52154Y11989I-80J0D01*
G01*
X58650Y13760D02*
G03*
X58650Y13760I-80J0D01*
G01*
Y4509D02*
G03*
X58650Y4509I-80J0D01*
G01*
M02*
