G04*
G04 #@! TF.GenerationSoftware,Altium Limited,Altium Designer,21.2.1 (34)*
G04*
G04 Layer_Color=16711935*
%FSLAX24Y24*%
%MOIN*%
G70*
G04*
G04 #@! TF.SameCoordinates,50E8038E-39F9-4302-AF09-D4DFFB075F86*
G04*
G04*
G04 #@! TF.FilePolarity,Positive*
G04*
G01*
G75*
%ADD10C,0.0100*%
%ADD16C,0.0060*%
%ADD83C,0.0060*%
D10*
X5700Y40550D02*
Y40950D01*
X5800D01*
X5900Y40850D01*
Y40550D01*
Y40850D01*
X6000Y40950D01*
X6100Y40850D01*
Y40550D01*
X6600D02*
X6400D01*
X6300Y40650D01*
Y40850D01*
X6400Y40950D01*
X6600D01*
X6700Y40850D01*
Y40750D01*
X6300D01*
X7299Y40950D02*
X7000D01*
X6900Y40850D01*
Y40650D01*
X7000Y40550D01*
X7299D01*
X7499Y41150D02*
Y40550D01*
Y40850D01*
X7599Y40950D01*
X7799D01*
X7899Y40850D01*
Y40550D01*
X8199Y40950D02*
X8399D01*
X8499Y40850D01*
Y40550D01*
X8199D01*
X8099Y40650D01*
X8199Y40750D01*
X8499D01*
X8699Y40550D02*
Y40950D01*
X8999D01*
X9099Y40850D01*
Y40550D01*
X9299D02*
X9499D01*
X9399D01*
Y40950D01*
X9299D01*
X10199D02*
X9899D01*
X9799Y40850D01*
Y40650D01*
X9899Y40550D01*
X10199D01*
X10498Y40950D02*
X10698D01*
X10798Y40850D01*
Y40550D01*
X10498D01*
X10398Y40650D01*
X10498Y40750D01*
X10798D01*
X10998Y40550D02*
X11198D01*
X11098D01*
Y41150D01*
X10998D01*
X11498Y40550D02*
X11698D01*
X11598D01*
Y41150D01*
X11498Y41050D01*
X5050Y40750D02*
Y41150D01*
X5150D01*
X5250Y41050D01*
Y40750D01*
Y41050D01*
X5350Y41150D01*
X5450Y41050D01*
Y40750D01*
X5950D02*
X5750D01*
X5650Y40850D01*
Y41050D01*
X5750Y41150D01*
X5950D01*
X6050Y41050D01*
Y40950D01*
X5650D01*
X6649Y41150D02*
X6350D01*
X6250Y41050D01*
Y40850D01*
X6350Y40750D01*
X6649D01*
X6849Y41350D02*
Y40750D01*
Y41050D01*
X6949Y41150D01*
X7149D01*
X7249Y41050D01*
Y40750D01*
X7549Y41150D02*
X7749D01*
X7849Y41050D01*
Y40750D01*
X7549D01*
X7449Y40850D01*
X7549Y40950D01*
X7849D01*
X8049Y40750D02*
Y41150D01*
X8349D01*
X8449Y41050D01*
Y40750D01*
X8649D02*
X8849D01*
X8749D01*
Y41150D01*
X8649D01*
X9549D02*
X9249D01*
X9149Y41050D01*
Y40850D01*
X9249Y40750D01*
X9549D01*
X9848Y41150D02*
X10048D01*
X10148Y41050D01*
Y40750D01*
X9848D01*
X9748Y40850D01*
X9848Y40950D01*
X10148D01*
X10348Y40750D02*
X10548D01*
X10448D01*
Y41350D01*
X10348D01*
X11448Y40750D02*
X11648D01*
X11548D01*
Y41350D01*
X11448Y41250D01*
D16*
X415Y39349D02*
X58683D01*
X59046Y362D02*
X59047Y38945D01*
X21Y38955D02*
X35Y353D01*
X398Y-19D02*
X58683Y-21D01*
D83*
X59047Y38945D02*
G03*
X58683Y39349I-384J20D01*
G01*
Y-21D02*
G03*
X59046Y362I-10J373D01*
G01*
X35Y353D02*
G03*
X398Y-19I367J-5D01*
G01*
X415Y39349D02*
G03*
X21Y38955I-0J-394D01*
G01*
X93711Y-20511D02*
G03*
X94105Y-20905I394J0D01*
G01*
M02*
